<svg width="24" height="24" viewBox="0 0 24 24" fill="none" xmlns="http://www.w3.org/2000/svg">
<path d="M24 11.9935C24.0008 13.0375 23.8647 14.077 23.5952 15.0856C23.3768 15.9106 23.0676 16.7088 22.6732 17.4656C21.8612 19.0544 20.705 20.442 19.2888 21.5273C17.8726 22.6126 16.232 23.3683 14.4868 23.7392C12.7415 24.1101 10.9354 24.087 9.20021 23.6714C7.46501 23.2559 5.84439 22.4584 4.45647 21.3371C3.06855 20.2158 1.94829 18.799 1.17734 17.1899C0.406395 15.5808 0.00418761 13.8199 3.25253e-05 12.0357C-0.00412256 10.2514 0.389879 8.48869 1.15332 6.876C1.91677 5.26332 3.03041 3.84129 4.4131 2.71356C5.73335 1.63641 7.26586 0.849714 8.91066 0.40481C9.92044 0.134974 10.9613 -0.00111591 12.0065 2.88196e-05C13.5201 -0.00331441 15.0203 0.284247 16.4253 0.84707C16.743 0.967467 17.0534 1.10638 17.3548 1.26309C17.4873 1.32556 17.6197 1.39552 17.7521 1.47298C18.5012 1.87876 19.2038 2.36513 19.8472 2.92345C20.2879 3.30112 20.6989 3.71211 21.0766 4.15278C21.6349 4.79628 22.1212 5.49882 22.527 6.24789C22.9404 6.9858 23.2661 7.76943 23.4978 8.58288C23.8324 9.68878 24.0017 10.8381 24 11.9935Z" fill="#FFB74D"/>
<path d="M12.0065 21.4609C17.2352 21.4609 21.4739 17.2222 21.4739 11.9935C21.4739 6.76481 17.2352 2.52612 12.0065 2.52612C6.77784 2.52612 2.53915 6.76481 2.53915 11.9935C2.53915 17.2222 6.77784 21.4609 12.0065 21.4609Z" fill="#EF9014"/>
<path d="M14.9919 13.1304L14.5306 10.741L6.52149 13.8738C6.57774 14.1652 6.69792 14.4408 6.87348 14.6808C7.04903 14.9209 7.27565 15.1195 7.53721 15.2626C7.79877 15.4057 8.08884 15.4898 8.38679 15.5088C8.68474 15.5278 8.98324 15.4813 9.26107 15.3726L14.9919 13.1304Z" fill="#FFB74D"/>
<g style="mix-blend-mode:screen">
<path d="M14.9919 13.1304L14.5306 10.741L6.52149 13.8738C6.57774 14.1652 6.69792 14.4408 6.87348 14.6808C7.04903 14.9209 7.27565 15.1195 7.53721 15.2626C7.79877 15.4057 8.08884 15.4898 8.38679 15.5088C8.68474 15.5278 8.98324 15.4813 9.26107 15.3726L14.9919 13.1304Z" fill="#FFB74D"/>
</g>
<path d="M15.7526 17.0677L9.42085 16.489C8.71797 16.4245 8.05518 16.1348 7.53227 15.6635C7.00936 15.1922 6.65463 14.5648 6.52149 13.8757L12.8532 14.4544C13.5561 14.519 14.2188 14.8087 14.7417 15.28C15.2646 15.7513 15.6194 16.3787 15.7526 17.0677Z" fill="#FFB74D"/>
<path d="M14.2311 9.19387C14.1749 8.90241 14.0547 8.62685 13.8791 8.3868C13.7036 8.14675 13.477 7.94811 13.2154 7.80501C12.9538 7.6619 12.6638 7.57785 12.3658 7.55884C12.0679 7.53982 11.7694 7.58631 11.4915 7.69499L5.76074 9.93655C5.81699 10.228 5.93717 10.5036 6.11273 10.7436C6.28828 10.9837 6.5149 11.1823 6.77646 11.3254C7.03802 11.4685 7.32809 11.5526 7.62604 11.5716C7.92399 11.5906 8.22249 11.5441 8.50032 11.4354L14.2311 9.19387Z" fill="#FFB74D"/>
<g style="mix-blend-mode:screen">
<path d="M14.2311 9.19387C14.1749 8.90241 14.0547 8.62685 13.8791 8.3868C13.7036 8.14675 13.477 7.94811 13.2154 7.80501C12.9538 7.6619 12.6638 7.57785 12.3658 7.55884C12.0679 7.53982 11.7694 7.58631 11.4915 7.69499L5.76074 9.93655C5.81699 10.228 5.93717 10.5036 6.11273 10.7436C6.28828 10.9837 6.5149 11.1823 6.77646 11.3254C7.03802 11.4685 7.32809 11.5526 7.62604 11.5716C7.92399 11.5906 8.22249 11.5441 8.50032 11.4354L14.2311 9.19387Z" fill="#FFB74D"/>
</g>
<path d="M14.2311 9.19387L7.89936 8.61516C7.19625 8.55048 6.53331 8.26047 6.01038 7.7888C5.48746 7.31714 5.13286 6.68936 5 6V6L11.3318 6.57872C12.0349 6.64319 12.698 6.93313 13.221 7.40483C13.7439 7.87653 14.0985 8.50443 14.2311 9.19387Z" fill="#FFB74D"/>
<path d="M19 17.3647L12.6682 16.786C11.9652 16.7218 11.3023 16.4322 10.7793 15.9608C10.2564 15.4895 9.90172 14.8619 9.76887 14.1727L16.1006 14.7514C16.8035 14.816 17.4662 15.1057 17.9891 15.577C18.512 16.0483 18.8668 16.6757 19 17.3647Z" fill="#FFB74D"/>
<path d="M14.6089 10.7294L15.0708 13.1195L8.73838 12.5408C8.03561 12.4757 7.37311 12.1856 6.85057 11.7139C6.32803 11.2423 5.89838 10.6147 5.76561 9.92566H5.84096L14.6089 10.7294Z" fill="#FFB74D"/>
<path d="M17.4792 9.49096L11.1455 8.91096C10.4429 8.84612 9.78041 8.55627 9.25777 8.08501C8.73514 7.61374 8.38057 6.98654 8.2474 6.29773L14.5792 6.87645C15.2823 6.94106 15.9452 7.23095 16.4683 7.70248C16.9913 8.17401 17.346 8.80167 17.4792 9.49096Z" fill="#FFB74D"/>
</svg>
