<svg width="170" height="139" viewBox="0 0 170 139" fill="none" xmlns="http://www.w3.org/2000/svg">
<path d="M122 87L115.729 58.3097L18.4752 96.3507C19.1583 99.8898 20.6176 103.236 22.7493 106.151C24.8811 109.066 27.6329 111.478 30.809 113.215C33.9851 114.953 37.5074 115.974 41.1253 116.205C44.7433 116.436 48.368 115.871 51.7415 114.551L122 87Z" fill="url(#paint0_linear_42_305)"/>
<g style="mix-blend-mode:screen">
<path d="M122 87L114.254 58.459L17 96.5C17.6831 100.039 19.1424 103.385 21.2742 106.3C23.4059 109.215 26.1577 111.627 29.3338 113.365C32.5099 115.102 36.0322 116.123 39.6501 116.354C43.2681 116.585 45.6264 117.674 49 116.354L122 87Z" fill="url(#paint1_linear_42_305)"/>
</g>
<path d="M130.567 135.133L53.6817 128.106C45.1467 127.323 37.0986 123.806 30.749 118.083C24.3993 112.36 20.0919 104.741 18.4752 96.3741L95.3609 103.401C103.895 104.185 111.943 107.704 118.292 113.426C124.642 119.149 128.95 126.767 130.567 135.133Z" fill="url(#paint2_linear_42_305)"/>
<path d="M112.092 39.5235C111.409 35.9843 109.95 32.6383 107.818 29.7234C105.686 26.8085 102.935 24.3964 99.7584 22.6587C96.5823 20.921 93.06 19.9004 89.4421 19.6696C85.8241 19.4387 82.1994 20.0031 78.8259 21.3228L9.23758 48.5418C9.92065 52.081 11.38 55.427 13.5117 58.3419C15.6435 61.2568 18.3953 63.6688 21.5714 65.4065C24.7475 67.1442 28.2698 68.1648 31.8877 68.3957C35.5057 68.6266 39.1304 68.0621 42.5039 66.7424L112.092 39.5235Z" fill="url(#paint3_linear_42_305)"/>
<g style="mix-blend-mode:screen">
<path d="M112.092 39.5235C111.409 35.9843 109.95 32.6383 107.818 29.7234C105.686 26.8085 102.935 24.3964 99.7584 22.6587C96.5823 20.921 93.06 19.9004 89.4421 19.6696C85.8241 19.4387 82.1994 20.0031 78.8259 21.3228L9.23758 48.5418C9.5 52 11.38 55.427 13.5117 58.3419C15.6435 61.2568 18.3953 63.6688 21.5714 65.4065C24.7475 67.1442 28.2698 68.1648 31.8877 68.3957C35.5057 68.6266 39.1304 68.0621 42.5039 66.7424L112.092 39.5235Z" fill="url(#paint4_linear_42_305)"/>
</g>
<path d="M112.092 39.5235L35.2065 32.4962C26.6687 31.7108 18.6187 28.1893 12.2689 22.462C5.91914 16.7346 1.61334 9.11151 0 0.740753L0 0.740753L76.8857 7.76802C85.4244 8.55091 93.4757 12.0716 99.8259 17.7994C106.176 23.5272 110.481 31.1516 112.092 39.5235Z" fill="url(#paint5_linear_42_305)"/>
<path d="M170 138.741L93.1143 131.713C84.578 130.934 76.5279 127.418 70.1776 121.694C63.8272 115.971 59.5209 108.35 57.9078 99.9814L134.793 107.009C143.328 107.793 151.376 111.311 157.725 117.034C164.074 122.756 168.382 130.374 170 138.741Z" fill="url(#paint6_linear_42_305)"/>
<path d="M116.68 58.1692L122.288 87.1918L45.3946 80.1646C36.861 79.3744 28.8164 75.8507 22.4712 70.1237C16.1261 64.3967 11.1122 56.8672 9.5 48.5L116.68 58.1692Z" fill="url(#paint7_linear_42_305)"/>
<path d="M151.533 43.1308L74.6234 36.0879C66.0917 35.3007 58.0478 31.7811 51.7015 26.0586C45.3552 20.336 41.0497 12.72 39.4326 4.35591L116.318 11.3832C124.856 12.1677 132.906 15.6878 139.257 21.4136C145.608 27.1394 149.916 34.7609 151.533 43.1308Z" fill="url(#paint8_linear_42_305)"/>
<defs>
<linearGradient id="paint0_linear_42_305" x1="117.607" y1="61.7823" x2="46.3764" y2="107.206" gradientUnits="userSpaceOnUse">
<stop stop-color="#00B2F2"/>
<stop offset="1" stop-color="#2B3992"/>
</linearGradient>
<linearGradient id="paint1_linear_42_305" x1="17" y1="59.8695" x2="126.011" y2="68.9735" gradientUnits="userSpaceOnUse">
<stop stop-color="#BFC3FC"/>
<stop offset="1" stop-color="#A2C3FC"/>
</linearGradient>
<linearGradient id="paint2_linear_42_305" x1="98.5" y1="107.5" x2="36.0798" y2="131.109" gradientUnits="userSpaceOnUse">
<stop stop-color="#BCC0FF"/>
<stop offset="1" stop-color="#A2C3FC"/>
</linearGradient>
<linearGradient id="paint3_linear_42_305" x1="97.9926" y1="25.0984" x2="24.4244" y2="62.8762" gradientUnits="userSpaceOnUse">
<stop stop-color="#00B2F2"/>
<stop offset="1" stop-color="#2B3992"/>
</linearGradient>
<linearGradient id="paint4_linear_42_305" x1="9.23758" y1="20.7957" x2="115.741" y2="31.2411" gradientUnits="userSpaceOnUse">
<stop stop-color="#BFC3FC"/>
<stop offset="1" stop-color="#A2C3FC"/>
</linearGradient>
<linearGradient id="paint5_linear_42_305" x1="-1.90779e-07" y1="1.67527" x2="32.0591" y2="25.1598" gradientUnits="userSpaceOnUse">
<stop stop-color="#BFC3FC"/>
<stop offset="1" stop-color="#A2C3FC"/>
</linearGradient>
<linearGradient id="paint6_linear_42_305" x1="57.9078" y1="100.915" x2="173.006" y2="116.413" gradientUnits="userSpaceOnUse">
<stop stop-color="#BFC3FC"/>
<stop offset="1" stop-color="#A2C3FC"/>
</linearGradient>
<linearGradient id="paint7_linear_42_305" x1="9.5" y1="49.4323" x2="125.28" y2="65.1459" gradientUnits="userSpaceOnUse">
<stop stop-color="#BFC3FC"/>
<stop offset="1" stop-color="#A2C3FC"/>
</linearGradient>
<linearGradient id="paint8_linear_42_305" x1="39.4326" y1="5.29024" x2="154.541" y2="20.784" gradientUnits="userSpaceOnUse">
<stop stop-color="#BFC3FC"/>
<stop offset="1" stop-color="#A2C3FC"/>
</linearGradient>
</defs>
</svg>
