<svg width="65" height="70" viewBox="0 0 65 70" fill="none" xmlns="http://www.w3.org/2000/svg">
<path d="M48.1285 23.6833L54.31 8.51667C54.4266 8.16667 54.4266 7.7 54.1933 7.35L53.7268 6.76667H53.1437L37.3985 10.9667L25.3855 0.35L24.919 0H24.4525C23.7527 0 23.1695 0.583333 23.1695 1.16667L22.2365 17.5L8.59066 26.0167C8.12414 26.25 8.00751 26.7167 8.00751 27.1833L8.12414 28L23.7527 34.3L31.3337 57.4C31.4503 57.9833 32.0335 58.3333 32.5 58.3333C32.9665 58.3333 33.5497 57.9833 33.6663 57.5167L41.014 37.6833L55.5929 39.4333H55.7095C56.1761 39.4333 56.6426 39.2 56.7592 38.7333L57.1091 38.0333L48.1285 23.6833Z" fill="#FFD54F"/>
<path d="M39.498 12.8334L36.8155 13.6501L33.6664 10.8501L43.5801 35.7001L48.8285 36.2834L39.498 12.8334Z" fill="#FFECB3"/>
<path d="M28.1848 5.95L25.3856 3.5L24.5692 18.9L23.5195 19.4833L34.8327 47.8333L39.498 35.1167L39.8479 35.2333L28.1848 5.95Z" fill="#FFE082"/>
<path d="M32.7333 55.6501L30.7506 49.7001L32.0335 49.2334L32.85 51.5667L34.3661 47.3667L35.6491 47.8334L32.7333 55.6501ZM36.4655 45.3834L35.1826 44.9167L39.2647 33.9501L44.7463 34.6501L44.6297 35.9334L40.1977 35.3501L36.4655 45.3834ZM53.1437 35.9334L51.7442 33.6001L52.9105 32.9001L54.31 35.2334L53.1437 35.9334ZM25.7355 34.3001L25.1523 32.6667L9.9903 26.6001L11.7398 25.5501L12.0897 26.0167L26.3186 31.7334L27.0184 33.9501L25.7355 34.3001ZM14.7722 25.2001L14.0724 24.0334L23.1696 18.3167L23.8694 19.4834L14.7722 25.2001ZM48.4785 19.4834L47.1955 19.0167L51.2776 9.10008L52.5606 9.56675L48.4785 19.4834ZM37.0487 13.5334L34.5994 11.3167L35.5325 10.2667L37.5152 12.0167L49.8781 8.75008L50.228 10.0334L37.0487 13.5334ZM26.4353 4.20008L25.6188 3.50008H24.9191L25.0357 1.16675L27.3683 3.26675L26.4353 4.20008Z" fill="#FFCA28"/>
<path d="M45.3294 56H19.6707V61.8333H45.3294V56Z" fill="#FF7043"/>
<path d="M49.9946 59.5H15.0054V68.8333H49.9946V59.5Z" fill="#B71C1C"/>
<path d="M51.1611 67.6667H13.8392V70.0001H51.1611V67.6667Z" fill="#4B4B4B"/>
<path d="M40.6643 59.5H24.3359V66.5H40.6643V59.5Z" fill="#FFB300"/>
<path d="M39.498 60.6667H25.5023V65.3334H39.498V60.6667Z" fill="#FBE9E7"/>
<path d="M14.7723 54.8333L9.87382 48.1833C8.70751 44.5666 8.70751 40.8333 9.87382 37.3333C9.99045 36.9833 10.3403 36.6333 10.8069 36.5166C11.2734 36.4 11.6233 36.6333 11.9732 36.8666C15.9386 41.8833 17.1049 48.7666 14.7723 54.8333Z" fill="#FFCA28"/>
<path d="M8.47414 45.6166C8.00762 44.5666 7.65773 43.7499 7.42447 42.9333C9.40719 36.8666 8.12425 30.2166 4.04217 25.4333C3.80891 25.1999 3.45901 25.0833 3.22575 25.0833C2.6426 25.0833 2.29271 25.4333 2.05944 25.8999C0.19335 32.0833 1.94281 38.8499 6.37479 43.5166C6.60805 44.3333 6.95794 45.1499 7.42447 46.1999L8.47414 45.6166Z" fill="#FFCA28"/>
<path d="M12.0896 48.9999C11.1565 48.9999 10.3401 47.9499 10.3401 46.6666C10.3401 45.3833 11.1565 44.3333 12.0896 44.3333C13.0226 44.3333 13.839 45.3833 13.839 46.6666C13.839 47.9499 13.0226 48.9999 12.0896 48.9999Z" fill="#FFB300"/>
<path d="M4.2755 43.6333C3.69235 43.6333 2.99256 43.2833 2.40941 42.8166C1.94288 42.3499 1.70962 41.8833 1.59299 41.4166C1.47636 40.8333 1.59299 40.2499 1.94288 39.8999C2.64267 39.1999 3.92561 39.4333 4.85866 40.3666C5.32518 40.8333 5.55844 41.2999 5.67507 41.7666C5.7917 42.3499 5.67507 42.9333 5.32518 43.2833C5.09192 43.5166 4.6254 43.6333 4.2755 43.6333Z" fill="#FFB300"/>
<path d="M17.3381 56.4666C16.5217 55.8832 15.5886 55.1832 14.6556 54.2499C12.6729 48.1832 7.65774 43.5166 1.35967 42.2332C0.893148 42.1166 0.426625 42.3499 0.193363 42.6999C-0.039899 43.0499 -0.0398995 43.3999 0.0767314 43.7499C2.29272 49.6999 7.65774 54.1332 13.9558 55.1832C14.8889 55.9999 15.8219 56.8166 16.6383 57.3999L17.3381 56.4666Z" fill="#FFB300"/>
<path d="M50.228 54.8333L55.1265 48.1833C56.2928 44.5666 56.2928 40.8333 55.1265 37.3333C55.0098 36.9833 54.66 36.6333 54.1934 36.5166C53.7269 36.4 53.377 36.6333 53.0271 36.8666C49.0617 41.8833 47.8954 48.7666 50.228 54.8333Z" fill="#FFE082"/>
<path d="M56.526 45.6166C56.9925 44.5666 57.3424 43.7499 57.5757 42.9333C55.593 36.8666 56.8759 30.2166 60.958 25.4333C61.1912 25.1999 61.5411 25.0833 61.7744 25.0833C62.3575 25.0833 62.7074 25.4333 62.9407 25.8999C64.8068 32.0833 63.0573 38.8499 58.6254 43.5166C58.3921 44.3333 58.0422 45.1499 57.5757 46.1999L56.526 45.6166Z" fill="#FFD54F"/>
<path d="M51.1609 46.6666C51.1609 45.3833 51.9773 44.3333 52.9104 44.3333C53.8434 44.3333 54.6598 45.3833 54.6598 46.6666C54.6598 47.9499 53.8434 48.9999 52.9104 48.9999C51.9773 48.9999 51.1609 47.9499 51.1609 46.6666Z" fill="#FFB300"/>
<path d="M59.675 43.1666C59.3251 42.8166 59.2085 42.2333 59.3251 41.65C59.4417 41.1833 59.675 40.6 60.1415 40.25C61.0746 39.3166 62.3575 39.2 63.0573 39.7833C63.4072 40.1333 63.5238 40.7166 63.4072 41.3C63.2906 41.7666 63.0573 42.35 62.5908 42.7C62.0076 43.2833 61.4245 43.5166 60.7247 43.5166C60.3748 43.6333 59.9083 43.5166 59.675 43.1666Z" fill="#FFB300"/>
<path d="M47.662 56.4666C48.4785 55.8832 49.4115 55.1832 50.3446 54.2499C52.3273 48.1832 57.3424 43.5166 63.6405 42.2332C64.107 42.1166 64.5735 42.3499 64.8068 42.6999C65.0401 43.0499 65.04 43.3999 64.9234 43.7499C62.7074 49.6999 57.3424 54.1332 51.0443 55.1832C50.1113 55.9999 49.1782 56.8166 48.3618 57.3999L47.662 56.4666Z" fill="#FFCA28"/>
</svg>
