<svg width="260" height="250" viewBox="0 0 260 250" fill="none" xmlns="http://www.w3.org/2000/svg">
<path d="M44.3842 146.513L6.80811 153.85L12.4302 185.19L50.0063 177.854L44.3842 146.513Z" fill="#F5F5F5"/>
<path d="M44.3752 146.522L44.193 146.563L43.6407 146.672L41.6028 147.087L33.9317 148.648L6.82053 154.012L6.93098 153.851C8.58781 163.179 10.5263 173.872 12.5642 185.188L12.393 185.067L49.9753 177.756L49.8759 177.906C48.2191 168.474 46.8273 160.65 45.8608 155.176C45.3859 152.439 45.0103 150.29 44.7563 148.81C44.6293 148.084 44.5354 147.519 44.4691 147.133C44.4028 146.747 44.3752 146.557 44.3752 146.557C44.3752 146.557 44.4194 146.736 44.4912 147.133L44.8005 148.787C45.0711 150.25 45.4632 152.388 45.9658 155.124C46.9654 160.615 48.3958 168.457 50.1134 177.911L50.141 178.038H50.0195L12.4648 185.396L12.3157 185.424L12.288 185.275L6.67141 153.88L6.6438 153.742H6.77635L33.9925 148.499L41.6691 147.041L43.6904 146.661L44.204 146.568L44.3752 146.522Z" fill="#E0E0E0"/>
<path d="M43.3979 148.746L8.46008 155.567L13.3741 182.96L48.3119 176.139L43.3979 148.746Z" fill="#EBEBEB"/>
<path d="M13.3595 182.97L22.5107 163.559L31.9767 172.737L36.0856 166.042L48.2964 176.148L13.3595 182.97Z" fill="#E0E0E0"/>
<path d="M32.9046 159.371C33.0064 159.938 32.9447 160.525 32.727 161.056C32.5094 161.587 32.1457 162.039 31.6819 162.355C31.2182 162.67 30.6751 162.835 30.1214 162.829C29.5678 162.823 29.0283 162.645 28.5713 162.319C28.1143 161.993 27.7603 161.533 27.554 160.997C27.3476 160.461 27.2983 159.873 27.4121 159.307C27.526 158.742 27.7979 158.225 28.1936 157.821C28.5893 157.417 29.0909 157.144 29.6351 157.037C29.9967 156.966 30.3681 156.97 30.7281 157.049C31.0881 157.128 31.4297 157.28 31.7333 157.497C32.037 157.714 32.2967 157.991 32.4976 158.312C32.6986 158.634 32.8369 158.993 32.9046 159.371Z" fill="#E0E0E0"/>
<path d="M100.684 15.2061L81.4465 126.083L160.137 140.943L179.375 30.0658L100.684 15.2061Z" fill="#FAFAFA"/>
<path d="M160.16 140.951L160.243 140.415L160.508 138.859C160.74 137.488 161.088 135.46 161.54 132.821L165.45 110.075C168.819 90.5718 173.602 62.8644 179.257 30.0465L179.368 30.2079L100.674 15.3661L100.845 15.2451C93.6658 56.6016 86.9998 94.916 81.582 126.115L81.4826 125.971L138.66 136.831L154.538 139.868L158.713 140.669L160.149 140.957L158.735 140.703L154.576 139.931L138.715 136.964L81.4274 126.213H81.3114V126.086C86.7182 94.8872 93.3565 56.567 100.525 15.2048V15.055L100.674 15.0838L179.401 29.9601H179.533V30.0984C173.806 62.9393 168.968 90.6697 165.566 110.184L161.59 132.885C161.126 135.512 160.773 137.494 160.53 138.888C160.414 139.568 160.32 140.081 160.259 140.427L160.16 140.951Z" fill="#E0E0E0"/>
<path d="M140.741 33.2387L107.33 26.9295L102.062 57.295L135.473 63.6042L140.741 33.2387Z" fill="#E0E0E0"/>
<path d="M167.394 38.2719L146.005 34.2327L145.317 38.1956L166.707 42.2348L167.394 38.2719Z" fill="#E0E0E0"/>
<path d="M162.463 75.0853L101.412 63.5568L100.725 67.5197L161.775 79.0483L162.463 75.0853Z" fill="#E0E0E0"/>
<path d="M161.253 82.0605L100.203 70.532L99.5149 74.4949L160.565 86.0235L161.253 82.0605Z" fill="#E0E0E0"/>
<path d="M160.043 89.0356L98.9921 77.507L98.3045 81.47L159.355 92.9986L160.043 89.0356Z" fill="#E0E0E0"/>
<path d="M158.833 96.0051L97.7825 84.4765L97.0949 88.4394L158.145 99.968L158.833 96.0051Z" fill="#E0E0E0"/>
<path d="M157.617 102.985L96.5665 91.4564L95.8789 95.4193L156.929 106.948L157.617 102.985Z" fill="#E0E0E0"/>
<path d="M153.475 126.889L92.4244 115.36L91.7368 119.323L152.787 130.852L153.475 126.889Z" fill="#E0E0E0"/>
<path d="M128.875 104.757L95.3606 98.4288L94.673 102.392L128.187 108.72L128.875 104.757Z" fill="#E0E0E0"/>
<path d="M166.279 44.68L144.889 40.6408L144.201 44.6038L165.591 48.643L166.279 44.68Z" fill="#E0E0E0"/>
<path d="M164.419 51.2227L143.116 47.1407L142.421 51.0875L163.724 55.1695L164.419 51.2227Z" fill="#E0E0E0"/>
<path d="M155.852 55.9562L142.662 53.4656L141.975 57.4285L155.164 59.9192L155.852 55.9562Z" fill="#E0E0E0"/>
<path d="M195.721 14.6977L188.933 14.9801L188.199 16.9678C187.99 17.4823 187.877 18.0339 187.867 18.5926C187.863 18.8427 187.926 19.0891 188.049 19.3039C188.172 19.5187 188.35 19.6934 188.563 19.8083C189.176 20.0183 189.819 20.112 190.463 20.0848V20.661L184.073 20.926V20.3498C184.715 20.2372 185.3 19.8974 185.73 19.3877C186.381 18.44 186.895 17.3975 187.254 16.2937L193.523 0H193.793L201.354 16.1324C202.077 17.6592 202.657 18.6214 203.099 19.0132C203.495 19.3286 203.982 19.4951 204.48 19.4856V20.033L195.179 20.4247V19.8774H195.561C196.105 19.9007 196.644 19.765 197.118 19.4856C197.218 19.4048 197.296 19.2991 197.346 19.1783C197.397 19.0574 197.417 18.9254 197.405 18.7942C197.396 18.6073 197.361 18.4229 197.3 18.2469C197.3 18.1604 197.124 17.7975 196.831 17.1579L195.721 14.6977ZM195.196 13.6203L192.07 6.83898L189.386 13.8681L195.196 13.6203Z" fill="#E0E0E0"/>
<path d="M208.574 56.5586L177.532 67.3754L185.822 93.2675L216.864 82.4507L208.574 56.5586Z" fill="#F5F5F5"/>
<path d="M207.978 58.5811L179.12 68.6367L186.366 91.2664L215.223 81.2107L207.978 58.5811Z" fill="#EBEBEB"/>
<path d="M186.365 91.2689L191.943 73.6961L201 80.3162L203.734 74.1398L215.227 81.215L186.365 91.2689Z" fill="#E0E0E0"/>
<path d="M200.283 68.8737C200.431 69.342 200.443 69.8456 200.317 70.3209C200.191 70.7962 199.933 71.2219 199.575 71.5443C199.217 71.8666 198.776 72.0711 198.307 72.1319C197.838 72.1927 197.362 72.1071 196.939 71.8859C196.517 71.6647 196.167 71.3179 195.933 70.8892C195.699 70.4605 195.593 69.9691 195.627 69.4773C195.661 68.9854 195.834 68.515 196.124 68.1256C196.414 67.7362 196.808 67.4451 197.256 67.2893C197.555 67.1848 197.87 67.1429 198.184 67.1661C198.498 67.1893 198.804 67.277 199.086 67.4243C199.367 67.5716 199.617 67.7754 199.823 68.0242C200.028 68.273 200.185 68.5617 200.283 68.8737Z" fill="#E0E0E0"/>
<path d="M209.437 26.4457L201.839 66.9238L250.368 76.8382L257.966 36.36L209.437 26.4457Z" fill="#F5F5F5"/>
<path d="M257.973 36.367L257.736 36.3267L257.051 36.1941L254.411 35.6698L244.47 33.6763L209.417 26.5896L209.572 26.4801C207.313 38.5276 204.728 52.338 201.989 66.9551L201.873 66.7765L250.396 76.7152L250.252 76.8189L255.825 47.4753C256.504 43.9434 257.034 41.1779 257.399 39.2766C257.581 38.3374 257.719 37.6115 257.818 37.116C257.918 36.6205 257.973 36.367 257.973 36.367C257.973 36.367 257.934 36.609 257.852 37.0929C257.769 37.5769 257.631 38.3029 257.46 39.2362L255.957 47.4234C254.643 54.5101 252.76 64.6447 250.495 76.865V76.9918H250.374L201.84 67.0992H201.691V66.9494C204.452 52.338 207.037 38.5276 209.301 26.4801L209.329 26.3476H209.456L244.569 33.5899L254.466 35.6468L257.078 36.2229L257.741 36.367H257.973Z" fill="#E0E0E0"/>
<path d="M210.632 29.3416L203.991 64.7197L249.111 73.9376L255.752 38.5595L210.632 29.3416Z" fill="#EBEBEB"/>
<path d="M203.994 64.7196L223.881 45.9485L231.061 61.7006L239.063 55.7028L249.115 73.9381L203.994 64.7196Z" fill="#E0E0E0"/>
<path d="M238.296 46.0925C238.158 46.8261 237.814 47.5005 237.309 48.0305C236.803 48.5604 236.158 48.9221 235.456 49.0697C234.753 49.2173 234.025 49.1442 233.362 48.8597C232.699 48.5752 232.132 48.092 231.733 47.4714C231.333 46.8507 231.119 46.1203 231.118 45.3727C231.116 44.6251 231.327 43.8938 231.724 43.2713C232.121 42.6488 232.686 42.1631 233.347 41.8756C234.009 41.588 234.737 41.5117 235.44 41.6561C235.907 41.7512 236.352 41.9415 236.748 42.2161C237.144 42.4907 237.485 42.8442 237.75 43.2563C238.015 43.6684 238.2 44.131 238.294 44.6177C238.387 45.1044 238.388 45.6056 238.296 46.0925Z" fill="#E0E0E0"/>
<path d="M22.7151 4.01005L25.2279 34.5348L36.5772 37.744L58.5853 35.0706L55.4871 0.708679L22.7151 4.01005Z" fill="#F5F5F5"/>
<path d="M28.6853 31.7865L25.228 34.5348C26.5446 35.7197 28.0803 36.61 29.7401 37.1505C31.9641 37.7897 34.2838 37.9852 36.5773 37.7267C36.5773 37.7267 31.3307 36.7933 28.6853 31.7865Z" fill="#EBEBEB"/>
<path d="M52.8362 11.9322C52.8362 11.9898 47.2693 12.6005 40.3934 13.2977C33.5176 13.9948 27.9341 14.5076 27.9286 14.45C27.9231 14.3924 33.49 13.7816 40.3713 13.0845C47.2527 12.3873 52.8307 11.8746 52.8362 11.9322Z" fill="#E0E0E0"/>
<path d="M53.1619 16.6336C53.1619 16.6913 47.5949 17.2962 40.7191 17.9934C33.8433 18.6905 28.2543 19.2091 28.2543 19.1457C28.2543 19.0823 33.8157 18.4773 40.697 17.786C47.5784 17.0946 53.1564 16.576 53.1619 16.6336Z" fill="#E0E0E0"/>
<path d="M53.6867 20.7704C53.6867 20.8281 48.1197 21.4388 41.2439 22.1359C34.3681 22.8331 28.7846 23.3516 28.7791 23.2882C28.7735 23.2249 34.346 22.6199 41.2218 21.9228C48.0976 21.2256 53.6811 20.7416 53.6867 20.7704Z" fill="#E0E0E0"/>
<path d="M54.0346 24.7747C54.0346 24.8323 48.4677 25.4431 41.5863 26.1402C34.705 26.8374 29.127 27.3501 29.1215 27.2925C29.1159 27.2349 34.6884 26.6299 41.5697 25.927C48.4511 25.2241 54.0291 24.7171 54.0346 24.7747Z" fill="#E0E0E0"/>
<path d="M260 249.844C260 249.931 201.796 250 130.006 250C58.2153 250 0 249.931 0 249.844C0 249.758 58.1932 249.689 130.006 249.689C201.818 249.689 260 249.758 260 249.844Z" fill="#263238"/>
<path d="M15.646 57.097L38.9299 196.193L137.113 180.106L141.664 168.641L115.1 40.0198L23.0686 45.7525L15.646 57.097Z" fill="#E0E0E0"/>
<path opacity="0.3" d="M38.9299 196.193L45.9051 185.038L22.6212 45.9427L15.646 57.0971L38.9299 196.193Z" fill="black"/>
<path d="M22.6212 45.9427L45.9051 185.038L141.664 168.641L117.474 31.8269L22.6212 45.9427Z" fill="#FAFAFA"/>
<path d="M22.6432 45.9427L117.452 31.6886H117.568V31.8096C124.334 70.0376 132.717 117.392 141.785 168.612L141.813 168.768H141.664L140.084 169.039L45.905 185.171H45.7725V185.033C32.0981 102.902 22.8254 47.1699 22.6432 45.9427C22.8475 47.1699 32.2307 102.884 46.0596 185.015L45.905 184.9L140.079 168.768L141.658 168.497L141.537 168.681C132.491 117.455 124.129 70.0952 117.375 31.8614L117.513 31.9652L22.6432 45.9427Z" fill="#263238"/>
<path d="M99.3959 111.813C100.583 102.492 94.3029 93.9319 85.3683 92.6932C76.4337 91.4544 68.2283 98.0064 67.0409 107.327C65.8535 116.648 72.1339 125.209 81.0685 126.447C90.0031 127.686 98.2085 121.134 99.3959 111.813Z" fill="url(#paint0_linear_7_253)"/>
<path d="M75.7336 114.033L74.9935 109.136L91.2691 106.451L91.9649 111.06C91.9649 111.06 90.9764 115.024 84.3877 116.107C77.7991 117.19 75.7336 114.033 75.7336 114.033Z" fill="white"/>
<path d="M72.4254 109.164L84.0398 111.313L94.1133 105.402L82.4823 103.489L72.4254 109.164Z" fill="white"/>
<path d="M104.921 61.6021L47.2116 71.116C46.5036 71.2327 46.0204 71.9261 46.1323 72.6647L46.3271 73.9509C46.439 74.6895 47.1036 75.1936 47.8116 75.0769L105.521 65.563C106.229 65.4463 106.712 64.7529 106.6 64.0143L106.405 62.7281C106.293 61.9895 105.629 61.4854 104.921 61.6021Z" fill="#E0E0E0"/>
<path d="M95.7908 71.6223L59.1928 77.6558C58.4848 77.7726 58.0016 78.466 58.1135 79.2046L58.3083 80.4907C58.4202 81.2293 59.0848 81.7335 59.7928 81.6167L96.3908 75.5832C97.0988 75.4665 97.582 74.7731 97.4701 74.0345L97.2753 72.7483C97.1634 72.0097 96.4988 71.5056 95.7908 71.6223Z" fill="#E0E0E0"/>
<path d="M108.972 156.963L72.3743 162.996C71.6663 163.113 71.1831 163.806 71.295 164.545L71.4898 165.831C71.6017 166.57 72.2663 167.074 72.9743 166.957L109.572 160.924C110.28 160.807 110.764 160.113 110.652 159.375L110.457 158.089C110.345 157.35 109.68 156.846 108.972 156.963Z" fill="#E0E0E0"/>
<path d="M136.732 172.507L136.268 172.599L134.899 172.841L129.602 173.763L109.936 177.128L43.4973 188.403H43.3537V188.253C42.3982 182.774 41.4207 177.007 40.4266 171.118C35.1082 139.58 30.2924 111.025 26.8075 90.3528C25.0789 80.0223 23.6816 71.6566 22.7151 65.8719C22.2347 62.9912 21.8646 60.7442 21.6106 59.2116C21.4891 58.4434 21.3952 57.8672 21.3289 57.4831C21.2682 57.0913 21.2461 56.907 21.2461 56.907C21.2461 56.907 21.2903 57.1028 21.3621 57.4831C21.4339 57.8634 21.5333 58.4568 21.6658 59.2116C21.9309 60.7442 22.323 62.9796 22.8201 65.8604C23.8086 71.622 25.239 80.0051 27.0063 90.3298C30.5188 111.002 35.3457 139.551 40.7193 171.084C41.7134 176.955 42.6854 182.722 43.6188 188.219L43.4475 188.098L109.903 176.932L129.58 173.653L134.888 172.789L136.257 172.57L136.732 172.507Z" fill="#263238"/>
<path d="M129.431 177.738C129.431 177.738 129.288 177.773 128.995 177.825L127.703 178.061L122.699 178.948L104.098 182.192L40.9899 193.087L40.8463 193.116V192.966L37.251 172.392L23.3834 92.7612C21.6271 82.5747 20.2078 74.3242 19.2192 68.626C18.7387 65.7798 18.3632 63.5673 18.1147 62.0578C17.9932 61.3146 17.8993 60.7384 17.833 60.3293C17.7667 59.9203 17.7446 59.7532 17.7446 59.7532C17.7446 59.7532 17.7888 59.9491 17.8606 60.3293L18.1754 62.0578C18.4405 63.5616 18.8381 65.774 19.3462 68.6145L23.5987 92.7381C27.1664 113.117 32.0927 141.262 37.5326 172.363C38.7642 179.409 39.9627 186.306 41.1169 192.937L40.9512 192.811L104.082 182.019L122.693 178.868L127.703 178.032L129 177.825L129.431 177.738Z" fill="#263238"/>
<path d="M24.9352 104.843L22.7814 108.029L28.0169 140.801L31.1373 141.907L24.9352 104.843Z" fill="#263238"/>
<path d="M39.8865 102.116L24.9364 104.841L31.143 141.903L46.093 139.178L39.8865 102.116Z" fill="#263238"/>
<path d="M40.3719 100.683L39.3981 100.86C38.8422 100.961 38.4702 101.513 38.5673 102.093L44.8474 139.633C44.9444 140.213 45.4737 140.601 46.0296 140.499L47.0034 140.322C47.5593 140.221 47.9313 139.669 47.8342 139.089L41.5541 101.549C41.4571 100.969 40.9278 100.581 40.3719 100.683Z" fill="#263238"/>
<path d="M36.6711 114.281L26.9676 120.042C26.2725 119.264 25.4067 118.674 24.4447 118.323C23.4826 117.972 22.4531 117.87 21.4449 118.026C19.8127 118.295 18.3446 119.215 17.3503 120.592C16.356 121.969 15.9132 123.695 16.1154 125.406C16.2996 126.836 16.9301 128.163 17.9096 129.182C18.889 130.201 20.1628 130.855 21.5342 131.044C22.9056 131.232 24.2982 130.944 25.4969 130.223C26.6956 129.503 27.6336 128.392 28.166 127.06L39.1177 128.88C39.2319 128.899 39.3487 128.888 39.4583 128.85C39.568 128.812 39.6674 128.747 39.7483 128.661C39.8292 128.575 39.8894 128.47 39.9237 128.355C39.9581 128.24 39.9658 128.118 39.9461 127.999L37.737 114.811C37.7161 114.692 37.6687 114.581 37.5986 114.486C37.5285 114.39 37.4377 114.314 37.3337 114.262C37.2297 114.21 37.1154 114.185 37.0002 114.188C36.885 114.191 36.7722 114.223 36.6711 114.281V114.281Z" stroke="#455A64" stroke-width="2" stroke-miterlimit="10"/>
<path d="M44.7729 139.142C44.7401 139.019 44.7143 138.894 44.6956 138.767C44.6459 138.496 44.5851 138.145 44.5078 137.707C44.3366 136.745 44.1046 135.402 43.8174 133.795C43.2652 130.453 42.4699 125.902 41.6083 120.872C40.7468 115.842 40.0178 111.279 39.46 107.937C39.2004 106.307 38.9906 104.976 38.8415 104.013C38.7752 103.57 38.7255 103.218 38.6868 102.942C38.6623 102.815 38.653 102.685 38.6592 102.556C38.7004 102.675 38.73 102.799 38.7476 102.925C38.8028 103.201 38.8746 103.553 38.9574 103.985C39.1342 104.947 39.3772 106.289 39.6699 107.891C40.2608 111.198 41.0506 115.761 41.9066 120.814C42.7626 125.867 43.5082 130.436 44.0328 133.755C44.2924 135.408 44.4968 136.751 44.6238 137.684C44.6845 138.151 44.7398 138.508 44.7618 138.756C44.7807 138.883 44.7844 139.013 44.7729 139.142Z" fill="#455A64"/>
<path d="M30.8446 142.034C30.8041 141.915 30.7763 141.791 30.7617 141.665L30.574 140.582C30.4028 139.62 30.1708 138.278 29.8836 136.664C29.3314 133.328 28.5361 128.777 27.6745 123.747C26.813 118.717 26.084 114.154 25.5262 110.806C25.2721 109.182 25.0623 107.851 24.9076 106.883C24.8414 106.445 24.7917 106.088 24.753 105.811C24.7271 105.688 24.716 105.562 24.7199 105.437C24.7613 105.554 24.7927 105.676 24.8137 105.8C24.8635 106.076 24.9352 106.428 25.0181 106.86C25.1948 107.822 25.4378 109.164 25.7305 110.772C26.3215 114.073 27.1112 118.642 27.9396 123.689C28.768 128.736 29.5412 133.317 30.0659 136.63C30.3254 138.289 30.5298 139.631 30.6568 140.559C30.7231 141.026 30.7728 141.383 30.7949 141.637C30.8212 141.768 30.8378 141.9 30.8446 142.034Z" fill="#455A64"/>
<path d="M94.1133 105.402C93.874 105.597 93.619 105.771 93.3511 105.921L91.2193 107.228C89.4079 108.317 86.895 109.815 84.1116 111.452H84.0619H84.0121H83.8962C80.7206 110.876 77.8543 110.299 75.7777 109.902L73.3201 109.395C73.0165 109.346 72.7172 109.271 72.4254 109.17C72.7336 109.177 73.0405 109.214 73.3422 109.28L75.8109 109.689C77.8985 110.046 80.7813 110.559 83.9514 111.146H84.0619H83.968C86.7293 109.51 89.2808 108.047 91.1144 107.004L93.3235 105.782C93.576 105.633 93.8402 105.505 94.1133 105.402Z" fill="#263238"/>
<path d="M102.491 172.582H149.578V198.359H102.491C99.9059 198.359 97.4266 197.288 95.5986 195.381C93.7705 193.474 92.7435 190.887 92.7435 188.19V182.745C92.7435 180.048 93.7705 177.462 95.5986 175.555C97.4266 173.647 99.9059 172.576 102.491 172.576V172.582Z" fill="url(#paint1_linear_7_253)"/>
<path d="M137.268 172.582H236.578C237.007 172.582 237.419 172.76 237.722 173.076C238.026 173.393 238.196 173.822 238.196 174.27V175.152C238.196 175.599 238.026 176.029 237.722 176.345C237.419 176.662 237.007 176.84 236.578 176.84H137.268V172.559V172.582Z" fill="url(#paint2_linear_7_253)"/>
<path d="M137.268 194.078H236.578C237.007 194.078 237.419 194.256 237.722 194.573C238.026 194.889 238.196 195.319 238.196 195.766V196.671C238.196 197.119 238.026 197.548 237.722 197.865C237.419 198.181 237.007 198.359 236.578 198.359H137.268V194.078Z" fill="url(#paint3_linear_7_253)"/>
<path d="M235.186 194.078H148.529C146.341 194.078 144.242 193.171 142.694 191.557C141.147 189.943 140.278 187.753 140.278 185.47C140.282 183.191 141.153 181.006 142.7 179.395C144.247 177.785 146.343 176.88 148.529 176.88H235.186C234.041 179.589 233.45 182.518 233.45 185.479C233.45 188.44 234.041 191.369 235.186 194.078Z" fill="#F5F5F5"/>
<path opacity="0.3" d="M140.278 198.359H102.679C100.042 198.359 97.514 197.266 95.6497 195.322C93.7854 193.377 92.738 190.739 92.738 187.988V182.872C92.738 180.143 93.7772 177.526 95.627 175.596C97.4768 173.666 99.9857 172.582 102.602 172.582H141.217C132.27 178.234 132.938 191.774 140.278 198.359Z" fill="black"/>
<path d="M224.66 186.271C224.66 186.358 206.871 186.421 184.935 186.421C162.998 186.421 145.21 186.358 145.21 186.271C145.21 186.185 162.993 186.116 184.935 186.116C206.877 186.116 224.66 186.185 224.66 186.271Z" fill="#263238"/>
<path d="M232.834 190.097C232.834 190.183 215.05 190.253 193.114 190.253C171.178 190.253 153.383 190.183 153.383 190.097C153.383 190.011 171.167 189.941 193.114 189.941C215.061 189.941 232.834 190.011 232.834 190.097Z" fill="#263238"/>
<path d="M230.426 180.844C230.426 180.925 212.637 180.994 190.701 180.994C168.764 180.994 150.975 180.925 150.975 180.844C150.975 180.763 168.759 180.688 190.701 180.688C212.642 180.688 230.426 180.758 230.426 180.844Z" fill="#263238"/>
<path d="M135.926 196.556C135.926 196.636 127.598 196.706 117.331 196.706C107.064 196.706 98.7357 196.636 98.7357 196.556C98.7357 196.475 107.059 196.4 117.331 196.4C127.603 196.4 135.926 196.469 135.926 196.556Z" fill="#263238"/>
<path d="M135.926 174.719C135.926 174.806 127.598 174.875 117.331 174.875C107.064 174.875 98.7357 174.806 98.7357 174.719C98.7357 174.633 107.059 174.57 117.331 174.57C127.603 174.57 135.926 174.639 135.926 174.719Z" fill="#263238"/>
<path d="M81.6981 216.456H145.149V249.654H81.6981C79.1129 249.654 76.6335 248.583 74.8055 246.676C72.9774 244.769 71.9504 242.182 71.9504 239.485V226.62C71.9504 223.923 72.9774 221.336 74.8055 219.429C76.6335 217.522 79.1129 216.45 81.6981 216.45V216.456Z" fill="url(#paint4_linear_7_253)"/>
<path d="M129.293 216.456H257.664C258.093 216.456 258.505 216.634 258.808 216.951C259.112 217.267 259.282 217.697 259.282 218.144V220.282C259.282 220.73 259.112 221.159 258.808 221.476C258.505 221.792 258.093 221.97 257.664 221.97H129.293V216.456Z" fill="url(#paint5_linear_7_253)"/>
<path d="M129.293 244.14H257.664C258.093 244.14 258.505 244.318 258.808 244.635C259.112 244.952 259.282 245.381 259.282 245.829V247.966C259.282 248.414 259.112 248.843 258.808 249.16C258.505 249.476 258.093 249.654 257.664 249.654H129.293V244.14Z" fill="url(#paint6_linear_7_253)"/>
<path d="M255.4 244.14H143.801C142.406 244.141 141.023 243.855 139.733 243.298C138.444 242.742 137.272 241.925 136.284 240.896C135.297 239.866 134.514 238.644 133.98 237.299C133.445 235.953 133.17 234.511 133.17 233.055C133.17 230.114 134.29 227.293 136.284 225.213C138.278 223.133 140.982 221.964 143.801 221.964H255.4C253.922 225.458 253.159 229.234 253.159 233.052C253.159 236.871 253.922 240.647 255.4 244.14Z" fill="#F5F5F5"/>
<path opacity="0.3" d="M133.17 249.654H81.5766C79.025 249.654 76.578 248.597 74.7738 246.715C72.9695 244.832 71.9559 242.28 71.9559 239.618V226.844C71.9559 224.094 73.0033 221.456 74.8676 219.511C76.7319 217.566 79.2604 216.473 81.8969 216.473H134.363C122.859 223.739 123.71 241.173 133.17 249.654Z" fill="black"/>
<path d="M241.841 234.081C241.841 234.167 218.933 234.236 190.684 234.236C162.435 234.236 139.521 234.167 139.521 234.081C139.521 233.994 162.424 233.931 190.684 233.931C218.944 233.931 241.841 234 241.841 234.081Z" fill="#263238"/>
<path d="M252.39 239.013C252.39 239.099 229.481 239.168 201.232 239.168C172.984 239.168 150.07 239.099 150.07 239.013C150.07 238.926 172.967 238.857 201.232 238.857C229.498 238.857 252.39 238.926 252.39 239.013Z" fill="#263238"/>
<path d="M249.269 229.512C249.269 229.593 226.361 229.662 198.107 229.662C169.852 229.662 146.944 229.593 146.944 229.512C146.944 229.431 169.847 229.356 198.107 229.356C226.367 229.356 249.269 229.425 249.269 229.512Z" fill="#263238"/>
<path d="M127.575 247.327C127.575 247.413 116.85 247.482 103.629 247.482C90.4073 247.482 79.6766 247.413 79.6766 247.327C79.6766 247.24 90.3963 247.171 103.629 247.171C116.861 247.171 127.575 247.24 127.575 247.327Z" fill="#263238"/>
<path d="M127.575 219.21C127.575 219.297 116.85 219.366 103.629 219.366C90.4073 219.366 79.6766 219.297 79.6766 219.21C79.6766 219.124 90.3963 219.055 103.629 219.055C116.861 219.055 127.575 219.124 127.575 219.21Z" fill="#263238"/>
<path d="M111.874 197.57H164.153V216.583H111.874C109.97 216.583 108.144 215.794 106.798 214.389C105.451 212.984 104.695 211.079 104.695 209.093V205.06C104.695 203.073 105.451 201.168 106.798 199.764C108.144 198.359 109.97 197.57 111.874 197.57Z" fill="#455A64"/>
<path d="M151.274 197.57H255.19C255.639 197.57 256.071 197.756 256.389 198.088C256.707 198.42 256.885 198.869 256.885 199.339V200.283C256.885 200.753 256.707 201.202 256.389 201.534C256.071 201.866 255.639 202.052 255.19 202.052H151.274V197.576V197.57Z" fill="#455A64"/>
<path d="M151.274 212.1H255.19C255.639 212.1 256.071 212.287 256.389 212.618C256.707 212.95 256.885 213.4 256.885 213.869V214.814C256.885 215.283 256.707 215.733 256.389 216.065C256.071 216.397 255.639 216.583 255.19 216.583H151.274V212.106V212.1Z" fill="#455A64"/>
<path d="M253.731 212.1H159.243C157.964 212.1 156.738 211.57 155.834 210.627C154.929 209.684 154.421 208.405 154.421 207.071C154.421 206.41 154.546 205.757 154.789 205.147C155.031 204.537 155.386 203.983 155.834 203.516C156.282 203.049 156.813 202.679 157.398 202.427C157.983 202.175 158.61 202.046 159.243 202.046H253.731C251.301 205.396 251.301 208.747 253.731 212.1Z" fill="#F5F5F5"/>
<path opacity="0.3" d="M154.422 216.577H111.896C110.946 216.577 110.006 216.382 109.128 216.003C108.25 215.623 107.452 215.067 106.781 214.367C106.109 213.666 105.576 212.834 105.212 211.918C104.849 211.002 104.662 210.021 104.662 209.03V205.267C104.662 203.226 105.439 201.268 106.823 199.824C108.206 198.381 110.083 197.57 112.04 197.57H155.41C146.049 201.735 146.745 211.72 154.422 216.577Z" fill="black"/>
<path d="M242.719 206.264C242.719 206.35 224.108 206.42 201.15 206.42C178.192 206.42 159.608 206.368 159.608 206.264C159.608 206.16 178.214 206.108 201.172 206.108C224.13 206.108 242.719 206.195 242.719 206.264Z" fill="#263238"/>
<path d="M251.285 208.983C251.285 209.07 232.679 209.139 209.721 209.139C186.763 209.139 168.157 209.07 168.157 208.983C168.157 208.897 186.763 208.834 209.721 208.834C232.679 208.834 251.285 208.903 251.285 208.983Z" fill="#263238"/>
<path d="M149.871 214.687C149.871 214.768 141.161 214.837 130.414 214.837C119.667 214.837 110.958 214.768 110.958 214.687C110.958 214.607 119.667 214.532 130.414 214.532C141.161 214.532 149.871 214.601 149.871 214.687Z" fill="#263238"/>
<path d="M149.871 199.805C149.871 199.892 141.161 199.961 130.414 199.961C119.667 199.961 110.958 199.892 110.958 199.805C110.958 199.719 119.667 199.655 130.414 199.655C141.161 199.655 149.871 199.719 149.871 199.805Z" fill="#263238"/>
<path d="M255.643 197.57C255.643 197.65 223.688 197.72 184.272 197.72C144.856 197.72 112.896 197.65 112.896 197.57C112.896 197.489 144.845 197.414 184.272 197.414C223.699 197.414 255.643 197.483 255.643 197.57Z" fill="#263238"/>
<path d="M198.333 180.562V190.886L201.763 188.587L205.584 190.886V180.562H198.333Z" fill="url(#paint7_linear_7_253)"/>
<path d="M233.187 78.0807L215.917 93.0838L189.651 147.225L206.026 154.946L231.574 101.847L233.187 78.0807Z" fill="url(#paint8_linear_7_253)"/>
<g opacity="0.7">
<path opacity="0.7" d="M231.574 101.847C231.376 101.896 231.169 101.897 230.971 101.849C230.772 101.801 230.587 101.705 230.429 101.57C230.272 101.436 230.146 101.265 230.062 101.071C229.978 100.877 229.938 100.665 229.945 100.453C229.401 101.117 228.671 101.586 227.857 101.794C227.044 102.001 226.189 101.937 225.412 101.611C224.635 101.284 223.976 100.712 223.528 99.9736C223.08 99.2355 222.866 98.3693 222.915 97.4972C222.187 97.9056 221.369 98.1051 220.544 98.0752C219.718 98.0452 218.915 97.787 218.217 97.3268C217.518 96.8667 216.95 96.2212 216.569 95.4564C216.188 94.6916 216.009 93.835 216.05 92.9744L233.171 78.0807L231.574 101.847Z" fill="white"/>
</g>
<path d="M226.24 84.1188C226.24 84.1188 226.505 88.6013 232.524 87.8235L233.187 78.0865L226.24 84.1188Z" fill="url(#paint9_linear_7_253)"/>
<path opacity="0.3" d="M222.915 97.4972L197.593 150.676L189.651 147.219L215.917 93.0608L216.05 92.9513C216.01 93.6732 216.131 94.3949 216.403 95.06C216.767 95.9323 217.356 96.6822 218.104 97.2264C219.026 97.8779 220.142 98.1603 221.247 98.0215C221.829 97.9575 222.395 97.7796 222.915 97.4972Z" fill="black"/>
<path opacity="0.3" d="M229.945 100.453L203.927 153.955L206.026 154.946L231.574 101.847C231.229 101.913 230.872 101.843 230.573 101.65C230.274 101.458 230.054 101.156 229.956 100.804C229.938 100.688 229.935 100.57 229.945 100.453Z" fill="black"/>
<path d="M222.788 92.3348C222.733 92.4027 222.702 92.488 222.699 92.5768C222.7 92.702 222.746 92.8224 222.828 92.9141C222.91 93.0058 223.022 93.0622 223.141 93.0723C223.532 93.0896 223.918 92.9788 224.246 92.7554C224.451 92.6279 224.614 92.4393 224.715 92.2138C224.77 92.0901 224.794 91.9542 224.785 91.8183C224.776 91.6825 224.735 91.5511 224.665 91.436C224.575 91.3196 224.461 91.2246 224.333 91.157C224.204 91.0895 224.064 91.0511 223.92 91.0442C223.599 91.016 223.276 91.0335 222.959 91.0961C222.255 91.2203 221.584 91.4949 220.987 91.9027C220.828 92.0041 220.692 92.1399 220.587 92.3009C220.482 92.4618 220.412 92.6443 220.38 92.8361C220.371 93.0379 220.41 93.2389 220.494 93.4209C220.577 93.603 220.703 93.7604 220.86 93.8789C221.223 94.0975 221.624 94.2381 222.039 94.2925C222.455 94.347 222.876 94.3141 223.279 94.1958C224.079 94.0202 224.817 93.619 225.413 93.0358C226.009 92.4526 226.44 91.7099 226.659 90.8887C226.694 90.7066 226.689 90.5186 226.644 90.339C226.599 90.1593 226.515 89.9927 226.4 89.8516C226.164 89.5941 225.875 89.3969 225.555 89.2754C224.968 89.0555 224.354 88.9274 223.732 88.8952C222.827 88.8454 221.922 88.9865 221.07 89.31C220.772 89.431 220.546 89.5347 220.391 89.6153L220.159 89.7306C220.441 89.5438 220.741 89.3874 221.054 89.2639C221.908 88.9183 222.822 88.7613 223.738 88.803C224.369 88.8278 224.993 88.9542 225.588 89.1775C225.926 89.2916 226.233 89.4893 226.482 89.7536C226.613 89.9093 226.707 90.0944 226.756 90.2944C226.806 90.4944 226.811 90.7038 226.77 90.9059C226.489 91.9782 225.859 92.9149 224.988 93.5553C224.118 94.1956 223.06 94.4995 221.998 94.4147C221.564 94.3936 221.144 94.2437 220.789 93.9826C220.613 93.8528 220.47 93.6797 220.374 93.4787C220.278 93.2777 220.23 93.055 220.236 92.8303C220.27 92.6208 220.347 92.4213 220.462 92.2454C220.576 92.0695 220.725 91.9212 220.899 91.8105C221.51 91.3938 222.199 91.117 222.92 90.9981C223.245 90.9293 223.579 90.9118 223.909 90.9463C224.066 90.9561 224.219 91.0008 224.358 91.0773C224.497 91.1538 224.619 91.2604 224.715 91.3899C224.793 91.5167 224.839 91.6621 224.847 91.8124C224.856 91.9627 224.828 92.1128 224.765 92.2484C224.66 92.4907 224.484 92.6923 224.262 92.8245C223.925 93.0493 223.529 93.1581 223.13 93.1357C223.001 93.1213 222.882 93.0572 222.796 92.9559C222.711 92.8546 222.664 92.7235 222.666 92.5883C222.665 92.539 222.676 92.4901 222.697 92.446C222.718 92.4018 222.749 92.3637 222.788 92.3348Z" fill="white"/>
<path d="M232.049 92.0122C231.814 91.9951 231.578 91.9951 231.342 92.0122C230.696 92.0507 230.065 92.2272 229.487 92.5307C228.631 92.9829 227.83 93.54 227.101 94.19C226.209 95.0064 225.194 95.6625 224.096 96.1317C222.965 96.5398 221.743 96.5899 220.584 96.2757C219.797 96.0586 219.062 95.675 218.423 95.1487C217.785 94.6223 217.257 93.9646 216.873 93.2163C216.757 92.9974 216.661 92.7679 216.586 92.5307C216.619 92.5852 216.647 92.6431 216.668 92.7036C216.72 92.8188 216.803 92.9801 216.917 93.1875C217.236 93.773 217.643 94.302 218.121 94.7547C218.831 95.4253 219.685 95.9075 220.612 96.1605C221.75 96.459 222.947 96.4069 224.058 96.0107C225.142 95.5402 226.146 94.8926 227.035 94.0921C227.775 93.4444 228.587 92.8912 229.454 92.4443C230.043 92.1491 230.684 91.9843 231.337 91.9603C231.575 91.9424 231.815 91.9599 232.049 92.0122Z" fill="white"/>
<path d="M231.955 97.4395C231.64 97.1029 231.218 96.898 230.768 96.8634C229.677 96.851 228.59 97.0162 227.548 97.3531C226.492 97.6517 225.464 98.0509 224.477 98.5457C224.102 98.7301 223.798 98.8972 223.588 99.0124C223.484 99.0779 223.375 99.1357 223.262 99.1853C223.356 99.101 223.458 99.0276 223.566 98.9664C223.771 98.8396 224.063 98.661 224.439 98.4593C225.421 97.9391 226.452 97.5259 227.515 97.2264C228.1 97.062 228.694 96.9312 229.293 96.8346C229.783 96.7411 230.283 96.7198 230.779 96.7712C231.12 96.8095 231.443 96.9473 231.712 97.1687C231.806 97.2454 231.888 97.3367 231.955 97.4395Z" fill="white"/>
<path d="M224.776 101.248C224.943 101.067 225.128 100.905 225.328 100.764C225.819 100.384 226.385 100.122 226.985 99.9977C227.286 99.9342 227.596 99.9411 227.894 100.018C228.192 100.094 228.47 100.239 228.708 100.441C228.846 100.569 228.962 100.721 229.05 100.891C229.087 100.95 229.11 101.017 229.117 101.087C228.992 100.869 228.833 100.674 228.647 100.51C228.412 100.329 228.143 100.201 227.858 100.136C227.572 100.07 227.277 100.068 226.991 100.13C226.415 100.253 225.869 100.494 225.383 100.839C225.19 100.99 224.987 101.127 224.776 101.248Z" fill="white"/>
<path d="M232.508 88.7857C232.482 88.811 232.454 88.8341 232.425 88.8548C232.344 88.9215 232.259 88.9831 232.171 89.0392C232.036 89.1384 231.884 89.2089 231.723 89.2466C231.506 89.2839 231.283 89.2701 231.072 89.2063C230.536 89.0421 230.009 88.8498 229.492 88.6301C228.855 88.4138 228.201 88.2539 227.537 88.1519C226.314 87.9609 225.079 87.8742 223.842 87.8926H222.738C222.6 87.9011 222.462 87.9011 222.324 87.8926C222.46 87.8669 222.599 87.8553 222.738 87.8581C223.003 87.8581 223.39 87.8235 223.842 87.8177C225.083 87.7744 226.325 87.8477 227.554 88.0367C228.232 88.1511 228.899 88.3285 229.547 88.5667C230.138 88.7914 230.652 89.0449 231.11 89.1429C231.283 89.2081 231.468 89.2312 231.651 89.2102C231.834 89.1892 232.01 89.1248 232.165 89.0219C232.273 88.9328 232.387 88.8538 232.508 88.7857Z" fill="white"/>
<path d="M250.805 137.701V184.894C250.816 184.985 250.858 185.068 250.923 185.129C250.989 185.189 251.073 185.222 251.161 185.222C251.248 185.222 251.333 185.189 251.399 185.129C251.464 185.068 251.506 184.985 251.517 184.894V137.701C251.506 137.611 251.464 137.527 251.399 137.467C251.333 137.407 251.248 137.373 251.161 137.373C251.073 137.373 250.989 137.407 250.923 137.467C250.858 137.527 250.816 137.611 250.805 137.701Z" fill="url(#paint10_linear_7_253)"/>
<path d="M253.72 174.506C253.72 175.033 253.571 175.547 253.29 175.985C253.01 176.423 252.612 176.764 252.145 176.965C251.679 177.167 251.166 177.22 250.671 177.117C250.176 177.014 249.722 176.761 249.365 176.388C249.008 176.016 248.765 175.542 248.666 175.026C248.568 174.509 248.619 173.974 248.812 173.488C249.005 173.001 249.332 172.586 249.751 172.293C250.171 172.001 250.664 171.844 251.169 171.844C251.846 171.844 252.495 172.125 252.973 172.624C253.452 173.123 253.72 173.8 253.72 174.506Z" fill="url(#paint11_linear_7_253)"/>
<path d="M250.451 175.883C250.451 175.883 248.59 177.819 248.038 183.506C247.485 189.192 247.353 192.039 247.353 192.039L252.373 192.361V188.288C252.373 188.484 253.362 191.324 253.362 191.324L257.327 189.97C257.327 189.97 255.902 174.852 250.451 175.883Z" fill="url(#paint12_linear_7_253)"/>
<path d="M224.367 141.573H139.206V173.602H224.367V141.573Z" fill="#263238"/>
<path d="M254.278 136.059H108.616V141.573H254.278V136.059Z" fill="#263238"/>
<path opacity="0.3" d="M139.206 164.516C139.206 164.516 165.075 154.83 181.787 151.264C198.499 147.698 224.367 148.879 224.367 148.879V141.573H139.206V164.516Z" fill="black"/>
<path opacity="0.3" d="M161.303 136.059H108.616V141.573H161.303V136.059Z" fill="black"/>
<path d="M253.224 141.573C253.224 141.66 220.838 141.729 180.876 141.729C140.913 141.729 108.528 141.66 108.528 141.573C108.528 141.487 140.913 141.418 180.876 141.418C220.838 141.418 253.224 141.487 253.224 141.573Z" fill="#455A64"/>
<path d="M161.22 141.619C161.072 140.694 161.022 139.755 161.071 138.819C161.021 137.881 161.071 136.94 161.22 136.013C161.369 136.94 161.419 137.881 161.369 138.819C161.419 139.755 161.369 140.694 161.22 141.619Z" fill="#455A64"/>
<path d="M173.37 173.602C173.287 173.602 173.221 167.356 173.221 159.647C173.221 151.938 173.287 145.687 173.37 145.687C173.453 145.687 173.514 151.938 173.514 159.647C173.514 167.356 173.448 173.602 173.37 173.602Z" fill="#455A64"/>
<path d="M50.1687 212.936L59.9605 208.816L67.4383 188.432L77.3793 193.79C77.3793 193.79 76.4183 195.807 74.3583 200.785C73.5631 202.709 70.9232 208.067 69.8518 210.677C68.8625 213.092 67.2299 215.16 65.1477 216.636C63.0655 218.111 60.6212 218.933 58.1049 219.003L48.915 219.256L50.1687 212.936Z" fill="#FFBF9D"/>
<path d="M45.2867 208.995L43.8121 207.37C43.5259 207.179 43.1909 207.083 42.8512 207.094L38.1679 207.243C37.7309 207.288 37.309 207.435 36.9334 207.672C36.5578 207.909 36.238 208.231 35.9974 208.615L34.2964 211.639C34.2964 211.639 33.1477 213.708 33.2968 214.209C33.3661 214.414 33.5047 214.586 33.6867 214.692C33.8687 214.798 34.0816 214.831 34.2854 214.785C34.2854 214.785 34.4455 215.742 34.7548 215.938C34.9272 216.039 35.1177 216.101 35.3144 216.122C35.511 216.143 35.7097 216.121 35.898 216.059C35.9792 216.24 36.1104 216.391 36.2747 216.494C36.4391 216.596 36.629 216.646 36.8203 216.635C36.9029 216.63 36.9845 216.615 37.0633 216.589C37.6156 216.416 37.8696 215.292 37.8696 215.292L40.2444 214.831C40.2444 214.831 43.6575 217.211 44.8614 218.772C46.0654 220.334 49.2134 219.141 49.2134 219.141L50.3952 213.259L45.2867 208.995Z" fill="#FFBF9D"/>
<path d="M41.8514 209.721C41.5195 209.833 41.1732 209.894 40.8242 209.9C40.178 209.974 39.2668 210.003 38.234 210.142L38.35 210.055C38.1683 210.452 37.9636 210.837 37.737 211.207C37.1151 212.239 36.3565 213.174 35.4837 213.984C35.1455 214.345 34.7492 214.642 34.3129 214.86C34.2853 214.826 34.7216 214.474 35.3456 213.829C36.1555 212.984 36.8741 212.049 37.4885 211.04C37.7094 210.668 37.9104 210.283 38.0904 209.888L38.1236 209.807H38.2009C39.2557 209.681 40.167 209.692 40.8132 209.675C41.1599 209.655 41.5076 209.67 41.8514 209.721Z" fill="#FF9A6C"/>
<path d="M41.9729 212.026C41.7006 212.173 41.4011 212.257 41.0948 212.273C40.3317 212.381 39.5565 212.352 38.8028 212.187L38.9685 212.089C38.8716 212.392 38.7573 212.688 38.6261 212.976C38.204 213.899 37.6042 214.72 36.8644 215.39C36.5694 215.681 36.2222 215.908 35.8427 216.059C36.1158 215.759 36.4034 215.475 36.7042 215.206C37.5825 214.304 38.2513 213.204 38.6593 211.991L38.7034 211.864H38.8305C39.8655 212.072 40.9234 212.126 41.9729 212.026Z" fill="#FF9A6C"/>
<path d="M47.9097 213.235L43.729 211.207C43.1701 210.876 42.5475 210.68 41.9065 210.631C41.2205 210.691 40.5579 210.92 39.9736 211.3L37.7258 212.515C37.6043 212.579 37.4662 212.659 37.4276 212.798C37.3889 212.936 37.4938 213.155 37.6209 213.293C38.2025 213.867 38.9637 214.202 39.7637 214.236C40.5637 214.27 41.3485 214 41.9728 213.477C42.279 214.515 42.7555 215.49 43.3811 216.358C43.7018 216.792 44.1244 217.133 44.6081 217.347C45.0919 217.561 45.6204 217.641 46.1425 217.58" fill="#FFBF9D"/>
<path d="M46.137 217.614C46.137 217.614 46.0984 217.614 46.0266 217.655C45.9137 217.678 45.7992 217.692 45.6842 217.695C45.2461 217.696 44.8142 217.588 44.425 217.378C43.8225 217.05 43.3124 216.563 42.9449 215.966C42.4855 215.205 42.1147 214.388 41.8403 213.535L42.0502 213.593C41.3709 214.183 40.4953 214.469 39.6147 214.388C39.1414 214.348 38.6799 214.213 38.2561 213.99C38.0387 213.871 37.8365 213.724 37.6541 213.552C37.5544 213.467 37.4637 213.37 37.3835 213.264C37.3322 213.199 37.2952 213.123 37.2752 213.041C37.2552 212.96 37.2525 212.875 37.2675 212.792C37.308 212.654 37.3967 212.537 37.516 212.463C37.6154 212.4 37.6983 212.36 37.7866 212.314L38.3389 212.031L39.3551 211.484C39.9898 211.096 40.6665 210.789 41.3709 210.568C42.0466 210.439 42.7443 210.548 43.3536 210.879C43.9058 211.15 44.4581 211.415 44.8999 211.645L47.109 212.798C47.3893 212.922 47.6575 213.075 47.9098 213.253C47.6187 213.159 47.3345 213.044 47.0593 212.907L44.795 211.864L43.2431 211.132C42.6792 210.84 42.0389 210.749 41.4206 210.873C40.741 211.097 40.0886 211.402 39.4766 211.784L38.4604 212.36L37.9413 212.642C37.7645 212.74 37.5768 212.832 37.5712 212.924C37.5657 213.017 37.6927 213.235 37.8639 213.38C38.0324 213.534 38.2178 213.668 38.4162 213.777C38.8025 213.986 39.2251 214.111 39.6588 214.146C40.4657 214.228 41.2711 213.975 41.9011 213.443L42.0447 213.31L42.1054 213.5C42.3628 214.339 42.7092 215.145 43.1382 215.903C43.483 216.447 43.9492 216.896 44.4968 217.211C44.995 217.507 45.5645 217.647 46.137 217.614Z" fill="#FF9A6C"/>
<path d="M102.276 156.138C102.315 152.866 102.828 149.605 102.685 146.344C102.541 143.083 101.74 139.666 99.5532 137.321C97.3662 134.976 93.5721 134.077 91.0095 135.973L90.4849 138.756C91.4955 151.374 91.3575 164.199 92.3626 176.817C92.4951 178.476 93.7875 179.974 94.5054 181.455C95.2234 182.935 96.6814 184.163 98.2719 184.059C100.354 183.926 101.718 181.754 102.37 179.657C104.717 172.156 102.171 164.037 102.276 156.138Z" fill="#263238"/>
<path d="M94.7317 139.182C94.3148 138.348 93.7764 137.586 93.1356 136.924C92.8131 136.595 92.4233 136.347 91.9958 136.199C91.5682 136.05 91.1139 136.004 90.667 136.065C90.4567 136.091 90.2563 136.173 90.0852 136.304C89.914 136.434 89.7777 136.607 89.6894 136.808C89.5514 137.229 89.8496 137.782 90.2417 137.747L90.3301 137.828C91.2689 138.692 92.2244 139.539 93.1964 140.369C93.4307 140.591 93.7021 140.767 93.9972 140.888C94.1466 140.943 94.3078 140.954 94.4628 140.919C94.6179 140.885 94.7607 140.806 94.8753 140.692C95.2508 140.283 94.9913 139.649 94.7317 139.182Z" fill="url(#paint13_linear_7_253)"/>
<path d="M96.5047 142.391C95.0457 140.445 93.1867 138.866 91.0648 137.769C88.9429 136.672 86.6121 136.086 84.2441 136.054C81.4828 136.007 80.3064 136.63 78.3017 137.177C76.2936 137.678 74.5196 138.902 73.2925 140.634C71.8677 142.737 70.6748 145.093 70.4041 147.652C70.0503 150.271 69.9301 152.919 70.0452 155.562C70.1617 158.22 70.9797 160.792 72.4089 162.995L78.8374 164.147C82.3885 164.274 85.9893 164.395 89.4521 163.571C92.9149 162.747 96.2727 160.782 98.1228 157.619C100.702 153.188 99.6305 146.378 96.5047 142.391Z" fill="#263238"/>
<path d="M90.7828 142.345L82.2115 138.79L79.9693 139.067C74.9325 139.067 71.4587 144.88 71.4256 149.138C71.3869 153.868 71.5195 159.647 72.243 163.133C73.6899 170.145 79.4225 170.727 79.4225 170.727C79.4225 170.727 79.3066 174.46 79.2624 176.817L92.3899 175.826L93.0472 144.748C93.0259 144.125 92.7816 143.532 92.3625 143.087C91.9434 142.643 91.3798 142.378 90.7828 142.345Z" fill="#FFBF9D"/>
<path d="M82.322 161.491C82.2688 161.131 82.0922 160.803 81.8249 160.569C81.5812 160.351 81.2756 160.223 80.9553 160.205C80.635 160.186 80.3177 160.278 80.0521 160.465C79.7759 160.687 79.5613 160.982 79.4303 161.319C79.2993 161.656 79.2566 162.024 79.3066 162.384C79.4547 162.6 79.645 162.78 79.8649 162.913C80.0848 163.046 80.3294 163.129 80.5823 163.156H80.8198C81.2191 163.153 81.603 162.995 81.8967 162.712C82.0513 162.555 82.1699 162.364 82.2435 162.152C82.3171 161.941 82.344 161.715 82.322 161.491Z" fill="#FF9A6C"/>
<path d="M73.6956 155.124C73.7056 155.36 73.8036 155.583 73.9687 155.744C74.1338 155.906 74.3529 155.993 74.5792 155.989C74.6901 155.992 74.8005 155.972 74.9038 155.93C75.0072 155.888 75.1015 155.825 75.1812 155.744C75.261 155.664 75.3245 155.567 75.3681 155.461C75.4117 155.355 75.4345 155.24 75.4352 155.124C75.4252 154.888 75.3273 154.665 75.1624 154.503C74.9974 154.34 74.7784 154.251 74.5516 154.254C74.4402 154.251 74.3294 154.272 74.2257 154.314C74.1219 154.356 74.0274 154.42 73.9476 154.501C73.8678 154.582 73.8044 154.679 73.7611 154.786C73.7178 154.893 73.6955 155.008 73.6956 155.124Z" fill="#263238"/>
<path d="M72.9611 151.529C73.0715 151.644 73.7066 151.097 74.6179 151.045C75.5291 150.993 76.2747 151.443 76.3631 151.322C76.4514 151.201 76.2858 151.057 75.9765 150.843C75.5554 150.576 75.0659 150.449 74.5737 150.48C74.087 150.508 73.6212 150.696 73.2427 151.016C72.9887 151.235 72.9003 151.454 72.9611 151.529Z" fill="#263238"/>
<path d="M78.9752 159.157C78.4736 159.023 77.9576 158.958 77.4399 158.962C77.2024 158.962 76.9759 158.91 76.9262 158.743C76.891 158.486 76.9315 158.225 77.0422 157.994L77.6497 156.058C78.4892 153.298 79.0856 151.034 78.9752 150.999C78.8647 150.964 78.1026 153.177 77.2631 155.931C77.0643 156.611 76.871 157.262 76.7109 157.878C76.5754 158.187 76.5499 158.537 76.6391 158.864C76.677 158.95 76.7336 159.027 76.8045 159.087C76.8754 159.146 76.9587 159.189 77.0477 159.209C77.182 159.239 77.3193 159.251 77.4564 159.244C77.9641 159.284 78.4746 159.255 78.9752 159.157Z" fill="#263238"/>
<path d="M79.4116 170.721C82.6094 170.583 85.708 169.524 88.364 167.661C88.364 167.661 86.2046 172.703 79.384 172.426L79.4116 170.721Z" fill="#FF9A6C"/>
<path d="M81.7368 159.676C81.5877 159.676 81.6374 160.736 80.809 161.537C79.9806 162.338 78.8926 162.286 78.8926 162.43C78.8926 162.574 79.1466 162.626 79.605 162.609C80.1999 162.585 80.7674 162.342 81.2066 161.923C81.6281 161.52 81.8834 160.963 81.919 160.367C81.9577 159.924 81.8307 159.664 81.7368 159.676Z" fill="#263238"/>
<path d="M73.2759 148.072C73.4471 148.303 74.154 148.101 74.999 148.13C75.844 148.159 76.5454 148.343 76.7166 148.13C76.7939 148.02 76.7166 147.79 76.3852 147.554C75.974 147.276 75.4946 147.128 75.0045 147.127C74.5163 147.113 74.0346 147.247 73.6183 147.513C73.3091 147.75 73.2041 147.974 73.2759 148.072Z" fill="#263238"/>
<path d="M83.9071 154.877C83.9117 155.114 83.828 155.344 83.6735 155.518C83.519 155.692 83.3057 155.797 83.0787 155.81C82.9684 155.82 82.8572 155.808 82.7516 155.773C82.6459 155.738 82.548 155.682 82.4632 155.607C82.3785 155.533 82.3088 155.442 82.258 155.339C82.2073 155.236 82.1765 155.124 82.1674 155.009C82.1613 154.772 82.2438 154.543 82.3975 154.368C82.5511 154.194 82.7637 154.089 82.9903 154.076C83.1011 154.065 83.2128 154.077 83.3191 154.111C83.4254 154.145 83.524 154.202 83.6093 154.276C83.6946 154.351 83.7649 154.442 83.816 154.545C83.8671 154.648 83.8981 154.761 83.9071 154.877Z" fill="#263238"/>
<path d="M85.6026 151.126C85.4977 151.247 84.8294 150.751 83.8905 150.769C82.9517 150.786 82.2779 151.287 82.173 151.172C82.068 151.057 82.2282 150.901 82.5264 150.671C82.9272 150.37 83.4078 150.207 83.9016 150.204C84.3889 150.192 84.8671 150.343 85.2657 150.636C85.5695 150.861 85.6744 151.074 85.6026 151.126Z" fill="#263238"/>
<path d="M85.0502 147.997C84.8735 148.222 84.1445 147.997 83.2774 147.997C82.4103 147.997 81.6703 148.176 81.4991 147.951C81.4218 147.836 81.5378 147.611 81.8526 147.375C82.2896 147.113 82.7856 146.978 83.2895 146.983C83.7933 146.988 84.2867 147.134 84.7189 147.404C85.0502 147.663 85.1386 147.888 85.0502 147.997Z" fill="#263238"/>
<path d="M91.882 156.634C91.882 156.11 92.3735 154.831 92.8705 154.721C94.1905 154.427 96.5984 154.404 96.8027 157.93C97.0899 162.747 92.3845 162.056 92.3845 161.917C92.3845 161.779 91.9758 158.443 91.882 156.634Z" fill="#FFBF9D"/>
<path d="M93.5444 160.073C93.5444 160.073 93.6272 160.125 93.7708 160.183C93.9642 160.263 94.1795 160.263 94.3728 160.183C94.8478 159.964 95.2123 159.129 95.1847 158.259C95.171 157.843 95.0692 157.436 94.8864 157.066C94.8335 156.919 94.7477 156.788 94.6363 156.683C94.5249 156.577 94.391 156.501 94.2458 156.461C94.151 156.442 94.0527 156.458 93.968 156.506C93.8833 156.555 93.8175 156.632 93.7819 156.726C93.7267 156.864 93.7819 156.956 93.7377 156.968C93.6935 156.98 93.6328 156.893 93.6604 156.691C93.6784 156.569 93.737 156.457 93.8261 156.375C93.9482 156.269 94.104 156.216 94.2624 156.225C94.4554 156.249 94.6389 156.327 94.794 156.449C94.9492 156.572 95.0706 156.735 95.146 156.922C95.3666 157.327 95.4898 157.782 95.505 158.247C95.505 159.221 95.1129 160.16 94.4557 160.402C94.3334 160.447 94.2031 160.463 94.0741 160.449C93.9452 160.435 93.8208 160.392 93.7101 160.321C93.561 160.171 93.5278 160.085 93.5444 160.073Z" fill="#FF9A6C"/>
<path d="M93.0585 154.738L91.8821 156.006C86.8178 150.953 76.9099 138.278 77.4622 139.027C79.7718 138.125 82.261 137.842 84.7025 138.203C88.4746 138.871 95.621 140.841 95.5106 145.479C95.4001 150.118 93.0585 154.738 93.0585 154.738Z" fill="#263238"/>
<path d="M99.7739 153.672C99.7594 153.576 99.7354 153.481 99.7021 153.39C99.6177 153.13 99.5124 152.877 99.3873 152.635C98.9107 151.74 98.2508 150.965 97.4544 150.365C96.2821 149.489 94.9746 148.828 93.5885 148.412C92.0421 147.888 90.3024 147.485 88.618 146.718C87.004 146.015 85.4733 145.12 84.0562 144.051C82.8978 143.175 81.8182 142.192 80.8309 141.112C80.1685 140.382 79.547 139.613 78.9697 138.808L78.5058 138.145C78.4009 137.995 78.3401 137.915 78.3291 137.92C78.3678 138.009 78.414 138.094 78.4672 138.174C78.5611 138.329 78.6991 138.571 78.8924 138.865C79.447 139.696 80.054 140.487 80.7094 141.233C81.6887 142.338 82.7648 143.345 83.9236 144.241C85.3502 145.331 86.8964 146.241 88.5296 146.949C90.1565 147.607 91.8156 148.174 93.5001 148.648C94.8798 149.043 96.1864 149.676 97.366 150.521C98.154 151.097 98.818 151.839 99.3155 152.699C99.6469 153.298 99.7463 153.678 99.7739 153.672Z" fill="#455A64"/>
<path d="M98.4266 154.41C98.4416 154.049 98.3813 153.689 98.2498 153.356C97.9041 152.432 97.2974 151.641 96.5102 151.085C95.3361 150.294 94.0213 149.757 92.6442 149.507C90.9971 149.164 89.3912 148.633 87.856 147.922C86.3272 147.193 84.8913 146.268 83.5814 145.168C82.513 144.271 81.5325 143.266 80.6544 142.167C80.0563 141.423 79.503 140.642 78.9975 139.827C78.8429 139.551 78.7103 139.326 78.6054 139.153C78.5657 139.07 78.5155 138.992 78.4563 138.923C78.485 139.011 78.5219 139.096 78.5668 139.176L78.9202 139.873C79.3892 140.715 79.9191 141.518 80.5052 142.276C81.3707 143.404 82.3482 144.433 83.4213 145.347C84.7388 146.468 86.1883 147.409 87.7345 148.147C89.2851 148.863 90.9079 149.394 92.5724 149.732C93.9232 149.967 95.2174 150.474 96.3831 151.224C97.1535 151.755 97.7597 152.507 98.1283 153.39C98.2616 153.718 98.3616 154.06 98.4266 154.41Z" fill="#455A64"/>
<path d="M92.9037 162.897C92.9037 162.862 93.2958 162.81 93.9806 162.626C94.9403 162.333 95.8239 161.817 96.5653 161.116C97.6478 160.06 98.4717 158.748 98.9677 157.291C99.5984 155.507 99.9382 153.626 99.9728 151.725C100.028 149.829 99.6913 147.942 98.9842 146.194C98.3984 144.767 97.5883 143.453 96.5874 142.305C95.6413 141.265 94.6041 140.32 93.4891 139.482C93.5792 139.516 93.6646 139.563 93.7431 139.62C93.9033 139.724 94.1518 139.862 94.439 140.081C95.2766 140.683 96.0504 141.376 96.7475 142.149C98.4266 143.978 99.5754 146.265 100.061 148.746C100.242 149.731 100.322 150.734 100.299 151.737C100.265 153.671 99.9124 155.585 99.2548 157.394C98.7336 158.89 97.8666 160.227 96.7309 161.289C95.7593 162.208 94.5253 162.769 93.2185 162.885C93.1148 162.907 93.0085 162.911 92.9037 162.897Z" fill="#455A64"/>
<path d="M98.7853 222.2L71.4588 226.337C61.192 229.368 50.3784 230.255 39.0734 229.218L80.2013 249.234L96.7143 249.499C96.7143 249.499 101.74 249.499 102.618 244.924C103.496 240.349 104.474 226.429 104.474 226.429C104.474 226.429 101.21 223.468 98.7853 222.2Z" fill="#263238"/>
<g opacity="0.3">
<path opacity="0.3" d="M98.7081 234.202C99.1553 237.057 99.3164 239.954 99.1885 242.844C100.029 241.883 100.648 240.735 100.999 239.487C101.351 238.239 101.424 236.924 101.215 235.642C100.972 234.231 100.409 232.687 101.116 231.459C101.591 230.635 102.845 229.69 102.662 228.751C102.662 228.751 101.558 228.751 100.569 228.705L98.1061 228.625C98.8258 230.416 98.9805 232.399 98.5479 234.288" fill="black"/>
</g>
<path d="M79.3066 175.635L92.5833 174.143L95.0133 176.448L85.5363 182.261L81.3556 184.52L77.2245 183.212L75.9156 180.642L79.3066 175.635Z" fill="#FFBF9D"/>
<path d="M61.4075 192.505C61.4075 192.505 65.5716 184.168 66.6044 182.348C68.3606 179.248 71.6356 177.485 71.6356 177.485L79.3067 175.635C79.3067 175.635 78.5114 179.669 83.2831 179.922C89.3581 180.274 93.1301 174.201 93.1301 174.201C93.1301 174.201 100.056 174.944 101.967 175.785C103.877 176.626 109.295 178.983 110.085 186.49L111.941 198.774L97.3053 199.926L97.5042 216.237L91.2855 221.544C91.2855 221.544 73.4305 227.962 72.2873 228.383C71.735 228.579 71.8841 220.662 70.6305 213.881L68.2225 207.773C67.2466 205.333 66.6698 202.739 66.516 200.099C66.4221 198.371 66.4663 197.051 66.4663 197.051C66.4663 197.051 62.6887 195.686 61.4075 192.505Z" fill="#455A64"/>
<path d="M72.939 221.958L97.4766 214.273L97.3053 199.926L109.798 198.929C109.798 198.929 108.804 206.373 108.655 210.193C108.445 215.684 105.893 223.353 104.236 224.983C102.58 226.614 72.2983 228.383 72.2983 228.383L72.939 221.958Z" fill="#FFBF9D"/>
<path d="M59.027 226.476C59.1236 226.648 59.267 226.786 59.439 226.873C59.6111 226.961 59.8041 226.993 59.9935 226.965C60.0752 226.953 60.155 226.93 60.231 226.896C60.7833 226.666 60.6342 225.496 60.6342 225.496L63.2464 224.834C63.2464 224.834 66.8583 226.867 68.2169 228.29C69.5755 229.714 72.5799 228.233 72.5799 228.233L73.226 222.264L68.0181 218.064C68.0181 218.064 68.3384 218.311 67.9408 217.488C67.5431 216.664 66.0354 217.101 66.0354 217.101C65.7648 216.698 64.7541 216.623 64.7541 216.623L60.5182 217.482C60.0883 217.571 59.6828 217.759 59.3312 218.032C58.9796 218.305 58.6908 218.656 58.4858 219.06L56.8842 222.195C56.8842 222.195 56.0889 224.419 56.2822 224.903C56.3646 225.106 56.5162 225.271 56.708 225.364C56.8998 225.458 57.118 225.474 57.3205 225.41C57.3205 225.41 57.6353 226.804 57.9943 226.827C58.3581 226.777 58.71 226.658 59.0326 226.476H59.027Z" fill="#FFBF9D"/>
<path d="M67.7973 221.515C67.7973 221.561 67.2451 221.555 66.3172 221.67C65.1352 221.825 63.9792 222.149 62.8821 222.633C62.2806 222.898 61.7006 223.214 61.1479 223.577C60.6509 223.923 60.1318 224.217 59.9937 224.62C59.966 224.71 59.9595 224.804 59.9749 224.897C59.9903 224.989 60.0271 225.076 60.0821 225.15C60.1694 225.269 60.2887 225.357 60.4245 225.404C60.6564 225.485 60.8 225.404 60.8055 225.404C60.8111 225.404 60.6785 225.536 60.3969 225.485C60.2301 225.446 60.0794 225.353 59.9661 225.22C59.8857 225.129 59.8292 225.018 59.8021 224.898C59.775 224.778 59.7782 224.652 59.8114 224.534C59.9025 224.264 60.0725 224.03 60.2974 223.866C60.5184 223.687 60.7503 223.503 61.0099 223.33C62.5911 222.241 64.4119 221.591 66.3007 221.44C66.8004 221.388 67.3047 221.413 67.7973 221.515Z" fill="#FF9A6C"/>
<path d="M68.311 224.332C68.311 224.419 66.5658 224.482 64.445 224.787C62.3243 225.093 60.6233 225.502 60.5791 225.415C60.931 225.245 61.3021 225.121 61.6837 225.047C62.5787 224.812 63.4859 224.631 64.4008 224.505C65.3164 224.374 66.2383 224.297 67.1622 224.275C67.5459 224.242 67.932 224.262 68.311 224.332Z" fill="#FF9A6C"/>
<path d="M59.0381 226.36C58.9938 226.206 58.9642 226.048 58.9497 225.888C58.893 225.456 58.8598 225.021 58.8503 224.586C58.8456 224.279 58.8641 223.973 58.9056 223.67C58.9576 223.315 59.0758 222.974 59.2535 222.667C59.6215 221.959 60.1208 221.334 60.7225 220.829C61.3182 220.319 61.9801 219.9 62.6886 219.585C63.2752 219.356 63.8879 219.209 64.5111 219.147C65.0634 219.083 65.4611 219.06 65.7593 219.049C65.911 219.022 66.066 219.022 66.2177 219.049C65.6715 219.179 65.1182 219.273 64.5608 219.331C63.9597 219.425 63.3706 219.59 62.8046 219.821C62.1281 220.138 61.4949 220.546 60.9214 221.037C60.345 221.514 59.8598 222.101 59.491 222.765C59.1971 223.309 59.0502 223.927 59.0657 224.551C59.0215 225.675 59.0933 226.355 59.0381 226.36Z" fill="#FF9A6C"/>
<path d="M64.6162 217.787C64.6162 217.827 63.9811 217.897 62.9594 218.104C61.9377 218.311 60.4189 218.542 59.6457 220.028C58.8568 221.154 58.2194 222.387 57.7514 223.693C57.6039 224.258 57.5096 224.837 57.4698 225.421C57.4213 225.269 57.4007 225.109 57.409 224.949C57.4018 224.515 57.4538 224.082 57.5637 223.664C57.984 222.31 58.6105 221.036 59.4193 219.89C59.6403 219.541 59.9019 219.222 60.198 218.939C60.4834 218.687 60.8111 218.492 61.1645 218.363C61.7451 218.152 62.3445 218.001 62.9539 217.914C63.5005 217.798 64.0592 217.755 64.6162 217.787Z" fill="#FF9A6C"/>
<path d="M67.1898 227.432C67.0942 227.38 67.0035 227.318 66.9192 227.248L66.1625 226.706C65.2086 226.052 64.2203 225.453 63.2023 224.914H63.2686L60.6564 225.594L60.7392 225.473C60.764 225.697 60.764 225.923 60.7392 226.147C60.724 226.398 60.6375 226.639 60.4907 226.839C60.4001 226.938 60.2826 227.006 60.1538 227.034C60.0351 227.078 59.9092 227.095 59.7838 227.086C59.5237 227.065 59.2791 226.949 59.0934 226.758C59.0492 226.712 59.0106 226.66 58.9664 226.608V226.562C58.9277 226.562 59.2701 226.654 59.1266 226.614L59.0437 226.66C58.9388 226.712 58.8283 226.764 58.7123 226.81C58.5972 226.86 58.4792 226.902 58.3589 226.936C58.2956 226.954 58.2309 226.966 58.1656 226.971C58.0847 226.998 57.998 226.998 57.9171 226.971C57.7926 226.888 57.693 226.77 57.6299 226.631C57.5696 226.512 57.5162 226.388 57.4697 226.262C57.3776 226.011 57.302 225.753 57.2433 225.49L57.4035 225.594C57.2146 225.655 57.0129 225.657 56.8227 225.601C56.6326 225.545 56.4621 225.432 56.332 225.277C56.1995 225.129 56.1213 224.938 56.1111 224.736C56.109 224.553 56.1275 224.372 56.1664 224.194C56.3122 223.498 56.506 222.815 56.7463 222.149L57.5912 220.484L58.1435 219.423C58.3086 219.06 58.5084 218.714 58.74 218.392C58.9918 218.083 59.302 217.832 59.6512 217.655C59.9907 217.49 60.3518 217.379 60.7226 217.326L64.7156 216.531C64.9602 216.551 65.2025 216.596 65.4391 216.664C65.6894 216.721 65.9157 216.861 66.0852 217.061L65.9306 217.027C66.141 216.905 66.3768 216.838 66.6175 216.833C66.8582 216.828 67.0964 216.885 67.3113 216.998C67.6869 217.241 67.9595 217.624 68.0734 218.069L68.0348 218.012L71.6245 220.893L72.591 221.688C72.7091 221.774 72.8183 221.872 72.9169 221.982C72.7909 221.909 72.6708 221.826 72.5579 221.734L71.5583 220.985L67.9133 218.185V218.15C67.8092 217.763 67.571 217.431 67.245 217.217C67.0622 217.128 66.862 217.086 66.6605 217.093C66.4591 217.1 66.262 217.156 66.0852 217.257L65.9913 217.309L65.9306 217.222C65.7905 217.071 65.6093 216.969 65.4114 216.929C65.1908 216.866 64.9654 216.824 64.7377 216.802H64.7708L60.7502 217.574C60.4043 217.623 60.0673 217.726 59.7506 217.879C59.4343 218.042 59.154 218.271 58.9277 218.553C58.7102 218.858 58.5251 219.186 58.3755 219.533C58.1987 219.884 58.0165 220.236 57.8232 220.593C57.5305 221.169 57.2709 221.745 56.9782 222.258C56.7504 222.91 56.5658 223.578 56.4259 224.257C56.3934 224.414 56.3768 224.575 56.3762 224.736C56.3836 224.874 56.4385 225.005 56.5309 225.104C56.6261 225.203 56.7453 225.273 56.8756 225.306C57.006 225.34 57.1426 225.336 57.2709 225.294L57.4366 225.277L57.4697 225.41C57.5254 225.658 57.5955 225.902 57.6796 226.141C57.7412 226.357 57.851 226.555 57.9999 226.718C58.0365 226.724 58.0738 226.724 58.1104 226.718L58.2705 226.689C58.3809 226.658 58.4897 226.622 58.5964 226.579C58.7013 226.533 58.8118 226.487 58.9112 226.435L58.9885 226.395C58.8449 226.355 59.1873 226.452 59.1486 226.447V226.481C59.1818 226.522 59.2149 226.568 59.2481 226.602C59.3948 226.757 59.5917 226.85 59.8003 226.862C59.8978 226.871 59.9959 226.857 60.0875 226.821C60.1751 226.807 60.2563 226.765 60.3195 226.7C60.5206 226.345 60.5931 225.926 60.5238 225.519V225.421H60.6122L63.23 224.776H63.2631C64.2785 225.333 65.2581 225.959 66.1957 226.648C66.5215 226.896 66.748 227.092 66.9302 227.225C67.0251 227.282 67.1123 227.351 67.1898 227.432Z" fill="#FF9A6C"/>
<path d="M54.4377 231.137C54.4377 231.137 37.1239 225.456 31.6839 223.618C22.2953 220.455 16.1871 223.652 14.2541 227.15C11.7468 231.684 17.7611 240.528 20.0806 242.556C26.9454 248.583 38.7144 249.389 38.7144 249.389L81.0297 249.309L68.6753 231.834L54.4377 231.137Z" fill="#263238"/>
<path d="M57.0278 239.33C49.9765 240.183 42.8329 239.168 36.2568 236.38C35.1311 235.851 33.9724 235.402 32.7885 235.037C31.6224 234.725 30.4119 234.635 29.2152 234.772C28.7394 234.784 28.2706 234.896 27.837 235.101C27.4034 235.306 27.0138 235.599 26.6914 235.965C25.8464 237.117 26.2771 238.776 26.7466 240.148C27.2989 241.755 27.8511 243.409 28.9557 244.694C30.2093 246.203 32.0319 247.067 33.8599 247.667C37.4331 248.819 41.2051 249.176 44.9496 249.332L57.8065 248.6L57.0278 239.33Z" fill="#E0E0E0"/>
<path d="M32.1974 235.072C32.1974 235.072 32.2858 235.187 32.3907 235.429C32.5401 235.773 32.6548 236.132 32.7331 236.501C33.0107 237.727 32.962 239.009 32.5921 240.208C32.2222 241.407 31.5453 242.478 30.6345 243.305C30.3673 243.558 30.0747 243.78 29.7619 243.968C29.541 244.1 29.4085 244.158 29.3974 244.14C29.3864 244.123 29.8613 243.806 30.502 243.161C31.3421 242.321 31.9684 241.276 32.3242 240.12C32.68 238.964 32.7541 237.734 32.5398 236.541C32.3852 235.596 32.1533 235.072 32.1974 235.072Z" fill="#263238"/>
<path d="M98.6251 230.025C97.62 227.057 97.4543 222.684 91.2523 220.593C85.0502 218.502 80.3669 222.512 77.1858 223.912C74.0047 225.312 56.5804 235.268 56.5804 235.268C56.5804 235.268 53.2999 241.375 54.2333 244.066C55.1666 246.756 59.4081 249.424 59.4081 249.424H78.8868C83.9125 249.424 93.246 249.251 93.246 249.251C94.495 247.112 95.6146 244.893 96.5983 242.608L96.764 241.738C96.7806 241.035 99.6303 232.998 98.6251 230.025Z" fill="#263238"/>
<path d="M87.8118 245.443C87.7865 245.546 87.7372 245.641 87.6682 245.719C87.4776 245.937 87.2625 246.131 87.0276 246.295C86.1582 246.923 85.2336 247.463 84.2662 247.909C83.6249 248.242 82.9646 248.535 82.2891 248.784C81.4892 249.05 80.6687 249.243 79.8369 249.36C77.9344 249.563 76.0217 249.642 74.1099 249.597C70.0617 249.666 66.378 249.821 63.7271 249.793C62.3961 249.793 61.3192 249.723 60.5791 249.643C60.2938 249.618 60.0099 249.578 59.7286 249.522C59.6284 249.51 59.5301 249.484 59.4359 249.447C59.4359 249.418 59.8446 249.493 60.5902 249.533C61.3357 249.574 62.4016 249.608 63.7271 249.591C66.3835 249.591 70.0506 249.384 74.1099 249.314C76.0102 249.358 77.9114 249.287 79.8038 249.101C80.6231 249.002 81.4324 248.829 82.2228 248.583C83.9062 248.025 85.5165 247.251 87.0165 246.278C87.2556 246.11 87.4776 245.917 87.6793 245.702C87.8118 245.558 87.8118 245.443 87.8118 245.443Z" fill="#263238"/>
<path d="M59.4081 249.424C59.3209 249.381 59.236 249.333 59.1541 249.28C58.981 249.18 58.738 249.024 58.4251 248.813C57.5127 248.187 56.6568 247.475 55.868 246.687C55.2932 246.115 54.8036 245.457 54.4155 244.734C54.0167 243.833 53.9176 242.819 54.1339 241.853C54.6026 239.534 55.3953 237.3 56.4866 235.222V235.193H56.5197C59.7063 233.361 63.3679 231.275 67.3664 229.034C69.3656 227.916 71.4532 226.758 73.6126 225.577C74.7172 225.001 75.7941 224.424 76.9263 223.848C78.0584 223.272 79.1354 222.696 80.3062 222.068C81.8847 221.164 83.5789 220.501 85.3374 220.098C86.2004 219.914 87.08 219.829 87.9607 219.844C90.4982 219.952 92.9442 220.863 94.9746 222.454C95.5926 222.986 96.1387 223.602 96.5983 224.286C97.0222 224.96 97.3723 225.68 97.6421 226.435C97.9008 227.158 98.1238 227.895 98.3103 228.642C98.5382 229.345 98.7226 230.063 98.8626 230.791C98.9522 232.185 98.8405 233.585 98.5313 234.945C98.2827 236.241 97.979 237.451 97.6697 238.581C97.5096 239.157 97.3549 239.687 97.2113 240.211C97.0576 240.707 96.9304 241.21 96.8303 241.721C96.7695 242.055 96.7143 242.326 96.659 242.596C96.1416 244.379 95.3987 246.083 94.45 247.661C94.1124 248.225 93.714 248.747 93.2626 249.216C93.2833 249.178 93.3094 249.143 93.3399 249.113L93.5663 248.819C93.8606 248.434 94.1335 248.032 94.3837 247.615C95.3059 246.029 96.0314 244.327 96.5431 242.55C96.8579 242.274 96.7971 242.003 96.7032 241.675C96.7984 241.149 96.9238 240.629 97.0788 240.119L97.5261 238.483C97.8243 237.33 98.1226 236.178 98.3656 234.859C98.66 233.52 98.7642 232.144 98.6749 230.774C98.5289 230.059 98.3445 229.353 98.1226 228.659C97.9238 227.933 97.7249 227.201 97.4543 226.476C97.1865 225.741 96.842 225.04 96.4271 224.384C95.9777 223.723 95.4466 223.126 94.8476 222.61C93.5488 221.585 92.0618 220.849 90.4791 220.449C89.6646 220.23 88.8292 220.106 87.9883 220.08C87.1281 220.065 86.2688 220.148 85.4258 220.328C83.6889 220.728 82.0153 221.384 80.4553 222.275C79.3231 222.88 78.2186 223.549 77.0588 224.061C75.899 224.574 74.8497 225.185 73.7452 225.761C71.5858 226.913 69.4982 228.066 67.4989 229.189L56.6302 235.302L56.6743 235.256C55.5824 237.31 54.7824 239.519 54.2996 241.813C54.0821 242.747 54.1695 243.731 54.5481 244.607C54.9229 245.318 55.3955 245.969 55.9509 246.537C56.7252 247.332 57.5662 248.053 58.4637 248.692L59.1706 249.193L59.4081 249.424Z" fill="#263238"/>
<path d="M91.1255 241.888C91.1255 241.888 96.9299 242.608 96.4163 245.575C95.9027 248.542 94.0028 249.533 94.0028 249.533L78.2299 249.568C78.2299 249.568 87.6296 248.9 91.1255 241.888Z" fill="#E0E0E0"/>
<path d="M91.6777 240.447C91.6766 240.738 91.6164 241.024 91.5009 241.289C91.2908 241.954 90.9774 242.579 90.5731 243.138C90.0252 243.948 89.2551 244.567 88.364 244.913C89.098 244.341 89.7703 243.688 90.3688 242.965C90.8733 242.166 91.3113 241.324 91.6777 240.447Z" fill="#263238"/>
<path d="M89.6619 241.611C89.6674 242.354 89.4763 243.083 89.1096 243.72C88.8226 244.391 88.3896 244.983 87.8449 245.448C87.7842 245.391 88.353 244.63 88.8666 243.57C89.3803 242.51 89.5846 241.6 89.6619 241.611Z" fill="#263238"/>
<path d="M97.0624 248.704C97.0182 248.704 97.3937 247.932 97.8466 246.658C99.0458 243.332 99.4385 239.747 98.9898 236.224C98.8186 234.876 98.6198 234.058 98.6695 234.046C98.7499 234.231 98.811 234.424 98.8518 234.622C98.9921 235.143 99.1009 235.672 99.1776 236.207C99.7294 239.757 99.3319 243.398 98.0289 246.727C97.8344 247.229 97.6113 247.717 97.3606 248.191C97.2843 248.375 97.1839 248.548 97.0624 248.704Z" fill="#455A64"/>
<g opacity="0.3">
<path opacity="0.3" d="M93.7819 240.292C93.7377 239.894 93.5886 239.422 93.2296 239.341C92.7712 239.243 92.4509 239.791 92.2686 240.24C90.2694 245.068 83.6863 248.825 78.6716 249.309C81.1115 249.302 83.5471 249.096 85.9561 248.692C88.0089 248.367 89.9335 247.449 91.512 246.042C92.2865 245.328 92.8938 244.439 93.2873 243.442C93.6808 242.445 93.85 241.367 93.7819 240.292Z" fill="black"/>
</g>
<path d="M55.3544 233.724C54.3932 233.442 53.458 233.072 52.5599 232.617C51.6295 232.243 50.7315 231.786 49.8759 231.252C50.8387 231.528 51.7744 231.898 52.6704 232.358C53.6015 232.731 54.4996 233.188 55.3544 233.724Z" fill="#263238"/>
<g opacity="0.2">
<path opacity="0.2" d="M60.9767 231.183C53.4657 229.685 45.929 228.352 38.3665 227.184L32.7278 229.045C34.3073 232.11 37.4276 234.058 40.675 234.87C43.9224 235.683 47.3023 235.487 50.616 235.164C54.272 234.813 58.0275 234.282 61.2086 232.37C61.4571 232.22 61.7277 232.001 61.6946 231.713C61.6615 231.425 61.3025 231.246 60.9767 231.183Z" fill="black"/>
</g>
<path d="M23.9963 207.837L33.4623 229.679C33.6544 230.124 33.9645 230.502 34.356 230.768C34.7475 231.035 35.204 231.178 35.6714 231.183L63.2852 231.557L66.7645 229.604L61.3136 229.183L52.8085 207.952C52.6807 207.616 52.4604 207.328 52.1753 207.122C51.8902 206.917 51.5532 206.805 51.2069 206.8L24.7585 206.592C24.6163 206.589 24.4757 206.624 24.3502 206.694C24.2248 206.764 24.1186 206.866 24.0421 206.991C23.9655 207.116 23.9211 207.26 23.9131 207.408C23.9051 207.556 23.9337 207.704 23.9963 207.837Z" fill="#E0E0E0"/>
<path d="M23.9963 207.837C23.9502 207.758 23.9219 207.669 23.9134 207.578C23.8988 207.457 23.9082 207.334 23.9409 207.218C23.9736 207.101 24.029 206.993 24.1036 206.899C24.1781 206.806 24.2703 206.729 24.3744 206.674C24.4785 206.62 24.5923 206.588 24.7087 206.581H27.1332L38.2063 206.621L45.905 206.662H50.2072H51.3118C51.7208 206.697 52.1081 206.868 52.4163 207.151C52.7092 207.443 52.9259 207.808 53.0459 208.211C53.195 208.586 53.3441 208.96 53.4988 209.335C55.9122 215.373 58.5852 222.039 61.4074 229.097L61.2748 228.999L66.538 229.397H66.7258L67.278 229.437L66.8086 229.696L63.3293 231.649H63.2961H63.252L42.3207 231.35L37.6485 231.281C36.8863 231.281 36.1573 231.281 35.4007 231.229C35.0232 231.183 34.6598 231.052 34.3363 230.844C34.0128 230.636 33.7371 230.356 33.5285 230.025C32.2969 227.317 31.2697 224.839 30.2701 222.535L25.6476 211.795L24.4105 208.868L24.0957 208.102C24.0239 207.929 23.9963 207.837 23.9963 207.837C23.9963 207.837 24.046 207.923 24.1233 208.09C24.2006 208.257 24.3166 208.522 24.4657 208.839C24.7639 209.519 25.2002 210.493 25.7525 211.72L30.4689 222.477C31.4741 224.747 32.5399 227.294 33.7439 229.921C33.9287 230.226 34.1761 230.485 34.4684 230.678C34.7606 230.871 35.0904 230.995 35.4339 231.039C36.1408 231.073 36.9084 231.039 37.643 231.079L42.3152 231.131L63.2464 231.402H63.1691L66.6484 229.448L66.7147 229.748H66.527L61.2638 229.345H61.1699L61.1312 229.253C58.3201 222.195 55.6582 215.523 53.2558 209.479C53.1011 209.095 52.952 208.72 52.8084 208.355C52.7059 207.991 52.5158 207.66 52.2562 207.393C51.9905 207.151 51.6577 207.004 51.3063 206.973H50.2017L45.8995 206.927L38.2063 206.84L27.1332 206.708L25.4046 206.667H24.7142C24.5277 206.674 24.3495 206.749 24.2116 206.88C24.1176 206.968 24.0447 207.077 23.9986 207.199C23.9525 207.321 23.9347 207.453 23.9465 207.583C23.9631 207.75 24.0073 207.837 23.9963 207.837Z" fill="#263238"/>
<path d="M60.4798 231.517C60.4284 231.444 60.3857 231.365 60.3528 231.281L60.038 230.572C59.7618 229.915 59.3863 229.034 58.9334 227.956C58.0111 225.744 56.7575 222.673 55.4099 219.268C54.0623 215.863 52.875 212.763 52.0465 210.504C51.6379 209.352 51.3065 208.459 51.0966 207.82C50.9972 207.526 50.9199 207.284 50.8536 207.082C50.8323 207.003 50.8176 206.922 50.8094 206.84C50.8094 206.84 50.8592 206.921 50.9309 207.082L51.2181 207.802L52.2454 210.447L55.6805 219.176C57.0225 222.563 58.2375 225.629 59.1322 227.899L60.165 230.549L60.4301 231.275C60.4632 231.425 60.4908 231.511 60.4798 231.517Z" fill="#263238"/>
<path d="M43.3591 218.427C43.3591 218.706 43.2797 218.979 43.1311 219.211C42.9824 219.443 42.7711 219.624 42.5238 219.731C42.2766 219.838 42.0045 219.866 41.7421 219.811C41.4796 219.757 41.2385 219.622 41.0493 219.425C40.86 219.227 40.7312 218.976 40.679 218.702C40.6267 218.428 40.6535 218.144 40.756 217.886C40.8584 217.629 41.0318 217.408 41.2543 217.253C41.4768 217.098 41.7384 217.015 42.006 217.015C42.3649 217.015 42.709 217.164 42.9628 217.429C43.2165 217.693 43.3591 218.052 43.3591 218.427Z" fill="white"/>
<path d="M70.2271 183.298C70.2713 183.298 69.8736 184.099 69.3158 185.396C67.852 188.764 66.8946 192.347 66.4772 196.02C66.3115 197.426 66.2673 198.325 66.2176 198.325C66.1825 198.121 66.1732 197.914 66.19 197.708C66.19 197.311 66.19 196.729 66.2673 196.02C66.5794 192.302 67.5494 188.676 69.1281 185.326C69.4318 184.687 69.6803 184.174 69.8957 183.834C69.9841 183.642 70.0955 183.462 70.2271 183.298Z" fill="#263238"/>
<path d="M111.941 198.774C111.841 198.798 111.739 198.813 111.637 198.82L110.759 198.912L107.478 199.2L96.2616 200.082H96.118V199.932C96.0241 198.376 95.9247 196.734 95.8253 195.046C95.6651 192.108 95.5271 189.285 95.4829 186.755C95.337 184.466 95.8382 182.182 96.9243 180.187C97.663 178.845 98.753 177.749 100.067 177.03C100.421 176.844 100.79 176.694 101.171 176.58C101.302 176.531 101.437 176.496 101.574 176.477C101.574 176.517 101.022 176.638 100.111 177.139C98.8426 177.877 97.7979 178.971 97.0955 180.297C96.0555 182.266 95.5873 184.508 95.748 186.75C95.8032 189.296 95.9468 192.096 96.107 195.029C96.2064 196.717 96.3058 198.353 96.3941 199.909L96.2395 199.771L107.467 198.993L110.753 198.797L111.631 198.757C111.735 198.748 111.839 198.754 111.941 198.774Z" fill="#263238"/>
<path d="M84.4263 208.724C84.2541 208.687 84.0884 208.623 83.9348 208.534C83.7437 208.456 83.559 208.361 83.3825 208.252C83.1417 208.117 82.9093 207.967 82.6866 207.802C82.1001 207.387 81.5577 206.908 81.0685 206.373C80.478 205.711 79.9594 204.982 79.5221 204.201C79.1002 203.41 78.7649 202.571 78.5225 201.701C78.3323 200.988 78.2139 200.256 78.169 199.517C78.1414 199.206 78.169 198.941 78.169 198.67C78.1703 198.456 78.185 198.243 78.2132 198.031C78.2201 197.848 78.2536 197.667 78.3126 197.495C78.3678 197.495 78.2739 198.273 78.3899 199.5C78.462 200.218 78.5969 200.928 78.7931 201.62C79.0461 202.462 79.3811 203.275 79.7927 204.046C80.217 204.811 80.7167 205.527 81.2838 206.183C81.7505 206.715 82.2646 207.199 82.8192 207.629C83.7636 208.361 84.4484 208.667 84.4263 208.724Z" fill="#263238"/>
<defs>
<linearGradient id="paint0_linear_7_253" x1="65.6706" y1="124.312" x2="72.2443" y2="89.4162" gradientUnits="userSpaceOnUse">
<stop stop-color="#BFC3FC"/>
<stop offset="1" stop-color="#A2C3FC"/>
</linearGradient>
<linearGradient id="paint1_linear_7_253" x1="92.7435" y1="173.197" x2="151.541" y2="179.232" gradientUnits="userSpaceOnUse">
<stop stop-color="#BFC3FC"/>
<stop offset="1" stop-color="#A2C3FC"/>
</linearGradient>
<linearGradient id="paint2_linear_7_253" x1="137.268" y1="172.662" x2="185.122" y2="225.191" gradientUnits="userSpaceOnUse">
<stop stop-color="#BFC3FC"/>
<stop offset="1" stop-color="#A2C3FC"/>
</linearGradient>
<linearGradient id="paint3_linear_7_253" x1="137.268" y1="194.181" x2="185.122" y2="246.71" gradientUnits="userSpaceOnUse">
<stop stop-color="#BFC3FC"/>
<stop offset="1" stop-color="#A2C3FC"/>
</linearGradient>
<linearGradient id="paint4_linear_7_253" x1="71.9504" y1="217.25" x2="147.677" y2="225.023" gradientUnits="userSpaceOnUse">
<stop stop-color="#BFC3FC"/>
<stop offset="1" stop-color="#A2C3FC"/>
</linearGradient>
<linearGradient id="paint5_linear_7_253" x1="129.293" y1="216.589" x2="190.93" y2="284.243" gradientUnits="userSpaceOnUse">
<stop stop-color="#BFC3FC"/>
<stop offset="1" stop-color="#A2C3FC"/>
</linearGradient>
<linearGradient id="paint6_linear_7_253" x1="129.293" y1="244.273" x2="190.93" y2="311.927" gradientUnits="userSpaceOnUse">
<stop stop-color="#BFC3FC"/>
<stop offset="1" stop-color="#A2C3FC"/>
</linearGradient>
<linearGradient id="paint7_linear_7_253" x1="198.333" y1="180.81" x2="205.906" y2="181.058" gradientUnits="userSpaceOnUse">
<stop stop-color="#BFC3FC"/>
<stop offset="1" stop-color="#A2C3FC"/>
</linearGradient>
<linearGradient id="paint8_linear_7_253" x1="189.651" y1="79.9329" x2="235.133" y2="81.1323" gradientUnits="userSpaceOnUse">
<stop stop-color="#BFC3FC"/>
<stop offset="1" stop-color="#A2C3FC"/>
</linearGradient>
<linearGradient id="paint9_linear_7_253" x1="226.24" y1="78.3233" x2="233.495" y2="78.5621" gradientUnits="userSpaceOnUse">
<stop stop-color="#BFC3FC"/>
<stop offset="1" stop-color="#A2C3FC"/>
</linearGradient>
<linearGradient id="paint10_linear_7_253" x1="250.805" y1="138.526" x2="251.549" y2="138.527" gradientUnits="userSpaceOnUse">
<stop stop-color="#BFC3FC"/>
<stop offset="1" stop-color="#A2C3FC"/>
</linearGradient>
<linearGradient id="paint11_linear_7_253" x1="248.617" y1="171.973" x2="253.942" y2="172.21" gradientUnits="userSpaceOnUse">
<stop stop-color="#BFC3FC"/>
<stop offset="1" stop-color="#A2C3FC"/>
</linearGradient>
<linearGradient id="paint12_linear_7_253" x1="247.353" y1="176.231" x2="257.772" y2="176.524" gradientUnits="userSpaceOnUse">
<stop stop-color="#BFC3FC"/>
<stop offset="1" stop-color="#A2C3FC"/>
</linearGradient>
<linearGradient id="paint13_linear_7_253" x1="89.6552" y1="136.157" x2="95.2944" y2="136.447" gradientUnits="userSpaceOnUse">
<stop stop-color="#BFC3FC"/>
<stop offset="1" stop-color="#A2C3FC"/>
</linearGradient>
</defs>
</svg>
