<svg width="178" height="58" viewBox="0 0 178 58" fill="none" xmlns="http://www.w3.org/2000/svg">
<ellipse cx="1.40248" cy="1.3915" rx="1.40248" ry="1.3915" transform="matrix(0.966508 -0.256636 0.261018 0.965334 11.5972 42.0181)" fill="url(#paint0_linear_44_1167)"/>
<ellipse cx="1.40248" cy="1.3915" rx="1.40248" ry="1.3915" transform="matrix(0.966508 -0.256636 0.261018 0.965334 13.6594 24.7714)" fill="url(#paint1_linear_44_1167)"/>
<ellipse cx="1.40248" cy="1.3915" rx="1.40248" ry="1.3915" transform="matrix(0.966508 -0.256636 0.261018 0.965334 31.3687 16.6013)" fill="url(#paint2_linear_44_1167)"/>
<ellipse cx="1.40248" cy="1.3915" rx="1.40248" ry="1.3915" transform="matrix(0.966508 -0.256636 0.261018 0.965334 47.9238 32.3723)" fill="url(#paint3_linear_44_1167)"/>
<ellipse cx="1.40248" cy="1.3915" rx="1.40248" ry="1.3915" transform="matrix(0.966508 -0.256636 0.261018 0.965334 16.3157 13.3125)" fill="url(#paint4_linear_44_1167)"/>
<path d="M45.7085 24.4558C45.0108 24.5374 34.4251 25.7757 33.774 25.8519L25.8476 16.9008C25.1209 16.0797 23.7542 16.4417 23.5387 17.5139L21.1905 29.1932L10.1505 33.8974C9.68446 34.096 9.37269 34.5397 9.34601 35.0417C9.31953 35.5438 9.58293 36.0173 10.0255 36.2631L20.5086 42.0851L21.612 53.9437C21.7133 55.031 23.0333 55.5344 23.8437 54.7926L32.6709 46.7116C45.4239 49.5672 44.5825 49.4427 45.0313 49.3236C45.8247 49.1129 46.2441 48.2419 45.897 47.4951L40.8692 36.6787L47.0105 26.4425C47.5738 25.5035 46.8042 24.3276 45.7085 24.4558Z" fill="#FFCA54"/>
<path d="M12.8243 22.4241C12.006 22.4834 10.3945 21.8771 10.152 19.1588C10.0634 18.1663 9.83575 18.1435 8.64193 18.1891C7.4754 18.2337 5.7126 18.3009 4.96989 16.028C4.83969 15.6297 5.06011 15.2023 5.4619 15.0733C5.86467 14.9437 6.29515 15.1627 6.42514 15.5609C6.79463 16.6916 7.3864 16.7198 8.58289 16.6742C9.65763 16.6332 11.4562 16.5646 11.6758 19.0253C11.8421 20.8908 12.7041 20.9127 12.7127 20.9121C13.134 20.8816 13.5005 21.1954 13.5314 21.6129C13.5622 22.0309 13.2448 22.3939 12.8243 22.4241Z" fill="url(#paint5_linear_44_1167)"/>
<ellipse cx="0.9926" cy="0.98483" rx="0.9926" ry="0.98483" transform="matrix(0.966508 -0.256636 0.261018 0.965334 7.82397 24.7135)" fill="url(#paint6_linear_44_1167)"/>
<ellipse cx="0.9926" cy="0.98483" rx="0.9926" ry="0.98483" transform="matrix(0.966508 -0.256636 0.261018 0.965334 44.7751 35.6656)" fill="url(#paint7_linear_44_1167)"/>
<ellipse cx="0.992693" cy="0.984922" rx="0.992693" ry="0.984922" transform="matrix(0.966508 -0.256636 0.261018 0.965334 15.5142 49.7673)" fill="url(#paint8_linear_44_1167)"/>
<path d="M37.7633 16.4672C37.3944 16.2631 37.2625 15.8012 37.4685 15.4358L38.212 14.1168C38.418 13.7514 38.884 13.6205 39.2528 13.8247C39.6217 14.0289 39.7536 14.4907 39.5476 14.8562L38.8041 16.1752C38.5975 16.541 38.1314 16.6711 37.7633 16.4672Z" fill="url(#paint9_linear_44_1167)"/>
<path d="M17.6802 21.3685L16.1672 21.1839C15.7479 21.1328 15.4498 20.7546 15.5014 20.339C15.5529 19.9235 15.9346 19.6281 16.354 19.6792L17.8672 19.8637C18.2864 19.9148 18.5844 20.2931 18.5329 20.7087C18.4815 21.1236 18.1001 21.4197 17.6802 21.3685Z" fill="url(#paint10_linear_44_1167)"/>
<path d="M17.4371 47.2006L15.9239 47.0161C15.5048 46.965 15.2065 46.5866 15.2582 46.1711C15.3097 45.7555 15.6916 45.4605 16.1109 45.5113L17.624 45.6959C18.043 45.747 18.3414 46.1253 18.2898 46.5409C18.2379 46.9584 17.8537 47.2516 17.4371 47.2006Z" fill="url(#paint11_linear_44_1167)"/>
<path d="M49.272 41.4278L47.7589 41.2433C47.3397 41.1922 47.0415 40.8138 47.0932 40.3983C47.1447 39.9829 47.5265 39.6875 47.9458 39.7386L49.4589 39.923C49.8781 39.9741 50.1762 40.3525 50.1247 40.768C50.0735 41.18 49.6956 41.479 49.272 41.4278Z" fill="url(#paint12_linear_44_1167)"/>
<path d="M30.0016 4.93884C29.823 4.55949 29.3677 4.39589 28.9848 4.57252C28.602 4.74953 28.4364 5.20065 28.6152 5.57998C29.1223 6.65693 28.7087 7.0771 27.8017 7.85168C26.9869 8.54739 25.6234 9.71188 27.1551 11.6611C28.3199 13.1437 27.6937 13.7422 27.6937 13.7422C27.5236 13.933 26.935 14.3474 27.3923 14.9322C28.1824 15.9432 30.8282 13.8682 28.3619 10.7299C27.7443 9.94369 27.8952 9.77331 28.8004 9.00026C29.6848 8.2449 31.0211 7.10379 30.0016 4.93884Z" fill="url(#paint13_linear_44_1167)"/>
<path d="M44.1424 12.6186C43.7452 12.4763 43.3068 12.6799 43.163 13.0736C42.8302 13.9852 42.9723 14.927 43.0977 15.7578C43.3139 17.19 43.395 17.7264 41.9038 18.0224C40.2618 18.3488 39.1483 19.012 38.5935 19.9928C37.9099 21.2011 38.3006 22.5137 39.1932 22.2925C39.9354 22.1085 39.7745 21.315 39.7745 21.315C39.7745 21.315 39.5907 20.0298 42.2049 19.5089C46.3214 18.6896 44.0009 15.2348 44.6014 13.5893C44.7453 13.1956 44.5398 12.761 44.1424 12.6186Z" fill="url(#paint14_linear_44_1167)"/>
<path d="M24.0559 26.8544L26.0183 17.0934L25.8476 16.9007C25.1209 16.0796 23.7542 16.4416 23.5387 17.5138L21.1905 29.193L22.8468 28.4252C22.963 28.37 23.8415 27.9197 24.0559 26.8544Z" fill="#F99830"/>
<path d="M24.2533 52.7192L23.2708 42.1589C23.1547 40.9148 22.2171 40.3425 22.2141 40.3408L12.6666 35.0384C11.8961 34.6105 11.7489 33.5655 12.383 32.9461L10.1505 33.8973C9.68437 34.0958 9.3726 34.5395 9.34592 35.0416C9.31944 35.5437 9.58284 36.0172 10.0254 36.2629L20.5085 42.0849L21.612 53.9436C21.7133 55.0309 23.0333 55.5343 23.8437 54.7926L24.9634 53.7677C24.5656 53.5617 24.295 53.1689 24.2533 52.7192Z" fill="#F99830"/>
<ellipse cx="69.938" cy="33.5009" rx="1.40332" ry="1.39064" fill="url(#paint15_linear_44_1167)"/>
<ellipse cx="76.4346" cy="17.3707" rx="1.40332" ry="1.39064" fill="url(#paint16_linear_44_1167)"/>
<ellipse cx="95.6741" cy="14.0211" rx="1.40332" ry="1.39064" fill="url(#paint17_linear_44_1167)"/>
<ellipse cx="107.546" cy="33.5008" rx="1.40332" ry="1.39064" fill="url(#paint18_linear_44_1167)"/>
<ellipse cx="81.993" cy="6.98354" rx="1.40332" ry="1.39064" fill="url(#paint19_linear_44_1167)"/>
<path d="M106.07 23.8953C105.375 23.7953 94.8268 22.2763 94.1781 22.1829L88.8595 11.5039C88.3721 10.5244 86.9574 10.5235 86.4692 11.5039L81.1507 22.1829L69.2582 23.8953C68.7562 23.9676 68.3391 24.3162 68.1822 24.7943C68.0255 25.2725 68.1563 25.7974 68.5196 26.1483L77.1249 34.4606L75.0935 46.1982C74.9073 47.2744 76.0509 48.0992 77.0274 47.5906L87.6645 42.0489C99.2371 48.0781 98.4568 47.7421 98.9214 47.7421C99.7429 47.7421 100.375 47.0083 100.235 46.198L98.2038 34.4606L106.809 26.1483C107.599 25.3858 107.162 24.0526 106.07 23.8953Z" fill="#FFCA54"/>
<path d="M74.8378 13.4987C74.0318 13.3461 72.6336 12.3472 73.1093 9.65931C73.283 8.67786 73.069 8.59748 71.904 8.33526C70.7656 8.07915 69.0453 7.69197 68.9215 5.306C68.8998 4.88793 69.2243 4.53164 69.6461 4.51009C70.069 4.48817 70.4276 4.81014 70.4491 5.22812C70.5108 6.415 71.075 6.59407 72.2426 6.85684C73.2914 7.09288 75.0466 7.48793 74.6161 9.92116C74.2895 11.7658 75.1164 12.008 75.1249 12.0096C75.5397 12.0882 75.8118 12.4853 75.7327 12.8965C75.6531 13.3082 75.2518 13.5773 74.8378 13.4987Z" fill="url(#paint20_linear_44_1167)"/>
<ellipse cx="70.4029" cy="15.4118" rx="0.993198" ry="0.984226" fill="url(#paint21_linear_44_1167)"/>
<ellipse cx="103.235" cy="35.4681" rx="0.993198" ry="0.984226" fill="url(#paint22_linear_44_1167)"/>
<ellipse cx="71.2875" cy="41.5844" rx="0.993292" ry="0.984319" fill="url(#paint23_linear_44_1167)"/>
<path d="M100.483 14.141C100.18 13.8492 100.173 13.3693 100.467 13.0691L101.53 11.9857C101.824 11.6856 102.309 11.6788 102.611 11.9706C102.915 12.2624 102.921 12.7423 102.627 13.0425L101.564 14.1259C101.269 14.4263 100.785 14.4324 100.483 14.141Z" fill="url(#paint24_linear_44_1167)"/>
<path d="M79.8038 13.7245L78.3906 13.1582C77.999 13.0013 77.8098 12.5594 77.9682 12.1713C78.1265 11.7831 78.5722 11.5957 78.9641 11.7526L80.3775 12.319C80.7691 12.4758 80.9581 12.9177 80.7998 13.3059C80.6418 13.6935 80.1961 13.8816 79.8038 13.7245Z" fill="url(#paint25_linear_44_1167)"/>
<path d="M72.822 38.6139L71.4086 38.0475C71.0171 37.8907 70.8278 37.4487 70.9863 37.0606C71.1446 36.6724 71.5904 36.4854 71.9822 36.642L73.3956 37.2084C73.7869 37.3652 73.9763 37.8072 73.8179 38.1953C73.6588 38.5853 73.2111 38.77 72.822 38.6139Z" fill="url(#paint26_linear_44_1167)"/>
<path d="M105.08 41.2029L103.666 40.6365C103.275 40.4797 103.086 40.0377 103.244 39.6496C103.402 39.2616 103.848 39.0742 104.24 39.2311L105.653 39.7973C106.045 39.9542 106.234 40.3962 106.076 40.7843C105.919 41.1691 105.475 41.361 105.08 41.2029Z" fill="url(#paint27_linear_44_1167)"/>
<path d="M95.9964 1.01487C95.9229 0.602627 95.5259 0.327829 95.11 0.400251C94.694 0.473044 94.4162 0.866327 94.4898 1.27857C94.6984 2.4489 94.1891 2.74867 93.1107 3.26423C92.142 3.72725 90.5208 4.50235 91.4912 6.77797C92.229 8.50881 91.4679 8.92632 91.4679 8.92632C91.2538 9.06701 90.577 9.31628 90.866 9.99851C91.3651 11.1777 94.4627 9.852 92.9001 6.18805C92.5089 5.27023 92.6991 5.14435 93.7754 4.62981C94.8269 4.12701 96.4158 3.36754 95.9964 1.01487Z" fill="url(#paint28_linear_44_1167)"/>
<path d="M107.65 12.0597C107.303 11.8204 106.826 11.9045 106.585 12.248C106.025 13.0431 105.916 13.9893 105.82 14.824C105.655 16.2628 105.593 16.8017 104.076 16.7052C102.405 16.5993 101.156 16.9543 100.364 17.7594C99.3878 18.7512 99.4224 20.1193 100.342 20.1345C101.107 20.1472 101.159 19.3395 101.159 19.3395C101.159 19.3395 101.317 18.0509 103.978 18.2182C108.169 18.4827 106.83 14.5505 107.839 13.115C108.081 12.7717 107.996 12.2992 107.65 12.0597Z" fill="url(#paint29_linear_44_1167)"/>
<path d="M84.5295 20.6588L88.9743 11.7337L88.8598 11.5037C88.3724 10.5242 86.9577 10.5234 86.4695 11.5037L81.1509 22.1828L82.9513 21.8659C83.078 21.8424 84.0442 21.6327 84.5295 20.6588Z" fill="#F99830"/>
<path d="M77.9647 45.6928L79.7737 35.2403C79.9866 34.0089 79.2303 33.2156 79.2279 33.2132L71.3906 25.6427C70.7581 25.0318 70.8888 23.9846 71.6631 23.549L69.2582 23.8952C68.7562 23.9674 68.3391 24.316 68.1822 24.7941C68.0255 25.2723 68.1563 25.7972 68.5196 26.1481L77.1249 34.4604L75.0936 46.1981C74.9074 47.2743 76.051 48.0991 77.0275 47.5905L78.3767 46.8877C78.0463 46.5867 77.8875 46.1379 77.9647 45.6928Z" fill="#F99830"/>
<ellipse cx="1.40248" cy="1.3915" rx="1.40248" ry="1.3915" transform="matrix(0.966508 0.256636 -0.261018 0.965334 126.867 31.5201)" fill="url(#paint30_linear_44_1167)"/>
<ellipse cx="1.40248" cy="1.3915" rx="1.40248" ry="1.3915" transform="matrix(0.966508 0.256636 -0.261018 0.965334 137.355 17.6061)" fill="url(#paint31_linear_44_1167)"/>
<ellipse cx="1.40248" cy="1.3915" rx="1.40248" ry="1.3915" transform="matrix(0.966508 0.256636 -0.261018 0.965334 156.814 19.3051)" fill="url(#paint32_linear_44_1167)"/>
<ellipse cx="1.40248" cy="1.3915" rx="1.40248" ry="1.3915" transform="matrix(0.966508 0.256636 -0.261018 0.965334 163.194 41.166)" fill="url(#paint33_linear_44_1167)"/>
<ellipse cx="1.40248" cy="1.3915" rx="1.40248" ry="1.3915" transform="matrix(0.966508 0.256636 -0.261018 0.965334 145.437 8.99829)" fill="url(#paint34_linear_44_1167)"/>
<path d="M165.27 33.2124C164.624 32.9375 154.832 28.7648 154.23 28.5082L151.882 16.8289C151.667 15.7578 150.3 15.3941 149.573 16.2158L141.646 25.1669L129.712 23.7708C129.208 23.7118 128.714 23.9416 128.438 24.3631C128.161 24.7849 128.151 25.3254 128.41 25.7575L134.551 35.9937L129.523 46.8103C129.062 47.8022 129.952 48.8921 131.028 48.6513L142.75 46.0266C152.353 54.8186 151.687 54.2939 152.136 54.413C152.93 54.6237 153.732 54.0772 153.808 53.2585L154.912 41.4001L165.395 35.5781C166.357 35.044 166.283 33.6444 165.27 33.2124Z" fill="#FFCA54"/>
<path d="M137.816 15.1595C137.078 14.8054 135.988 13.4819 137.149 11.0076C137.574 10.1042 137.388 9.97166 136.331 9.41956C135.298 8.88019 133.738 8.06498 134.241 5.72857C134.33 5.31917 134.736 5.05826 135.149 5.14562C135.563 5.23291 135.826 5.63589 135.737 6.04516C135.487 7.20739 135.985 7.52507 137.044 8.07837C137.996 8.57538 139.588 9.40713 138.536 11.647C137.739 13.345 138.475 13.7911 138.482 13.7948C138.863 13.9771 139.022 14.4304 138.838 14.8074C138.654 15.1846 138.196 15.3417 137.816 15.1595Z" fill="url(#paint35_linear_44_1167)"/>
<ellipse cx="0.9926" cy="0.98483" rx="0.9926" ry="0.98483" transform="matrix(0.966508 0.256636 -0.261018 0.965334 132.331 14.6646)" fill="url(#paint36_linear_44_1167)"/>
<ellipse cx="0.9926" cy="0.98483" rx="0.9926" ry="0.98483" transform="matrix(0.966508 0.256636 -0.261018 0.965334 158.805 42.4581)" fill="url(#paint37_linear_44_1167)"/>
<ellipse cx="0.992693" cy="0.984922" rx="0.992693" ry="0.984922" transform="matrix(0.966508 0.256636 -0.261018 0.965334 126.349 40.172)" fill="url(#paint38_linear_44_1167)"/>
<path d="M162.42 22.3573C162.203 21.9977 162.322 21.5323 162.685 21.3179L163.994 20.544C164.357 20.3296 164.827 20.4472 165.043 20.8068C165.259 21.1664 165.141 21.6317 164.778 21.8461L163.468 22.62C163.105 22.8345 162.636 22.7162 162.42 22.3573Z" fill="url(#paint39_linear_44_1167)"/>
<path d="M142.554 16.6512L141.337 15.7417C141 15.4897 140.932 15.0144 141.187 14.6801C141.441 14.3458 141.921 14.279 142.258 14.5311L143.475 15.4407C143.813 15.6927 143.88 16.1679 143.626 16.5023C143.372 16.8362 142.892 16.9036 142.554 16.6512Z" fill="url(#paint40_linear_44_1167)"/>
<path d="M129.31 38.902L128.092 37.9924C127.755 37.7405 127.688 37.265 127.942 36.9308C128.197 36.5964 128.676 36.5301 129.014 36.7819L130.231 37.6915C130.568 37.9433 130.635 38.4188 130.381 38.7531C130.126 39.089 129.645 39.1526 129.31 38.902Z" fill="url(#paint41_linear_44_1167)"/>
<path d="M159.792 49.6761L158.575 48.7666C158.238 48.5146 158.17 48.0392 158.425 47.705C158.679 47.3708 159.159 47.3041 159.496 47.5561L160.713 48.4656C161.051 48.7175 161.118 49.1929 160.864 49.5272C160.611 49.8587 160.133 49.9303 159.792 49.6761Z" fill="url(#paint42_linear_44_1167)"/>
<path d="M161.515 8.52772C161.551 8.11068 161.24 7.74341 160.819 7.70669C160.398 7.6703 160.027 7.97894 159.99 8.39601C159.886 9.57996 159.316 9.7389 158.14 9.9603C157.083 10.1591 155.315 10.492 155.658 12.939C155.918 14.8 155.074 15.0081 155.074 15.0081C154.831 15.0891 154.112 15.1563 154.213 15.8894C154.387 17.1564 157.725 16.6704 157.173 12.7305C157.035 11.7436 157.251 11.6708 158.425 11.4498C159.572 11.2339 161.305 10.9078 161.515 8.52772Z" fill="url(#paint43_linear_44_1167)"/>
<path d="M169.886 22.1851C169.614 21.8651 169.131 21.8241 168.808 22.0938C168.06 22.7184 167.708 23.6045 167.397 24.3861C166.862 25.7335 166.661 26.2382 165.221 25.7558C163.634 25.2248 162.335 25.2474 161.36 25.8219C160.158 26.5296 159.834 27.86 160.719 28.1106C161.454 28.3191 161.715 27.5522 161.715 27.5522C161.715 27.5522 162.204 26.3481 164.731 27.1922C168.71 28.5224 168.443 24.3807 169.794 23.2531C170.117 22.9835 170.158 22.5054 169.886 22.1851Z" fill="url(#paint44_linear_44_1167)"/>
<path d="M145.308 24.5612L151.932 17.0803L151.882 16.8288C151.667 15.7577 150.3 15.394 149.573 16.2157L141.646 25.1668L143.468 25.3225C143.597 25.3323 144.585 25.3775 145.308 24.5612Z" fill="#F99830"/>
<path d="M132.428 47.0585L136.906 37.4262C137.433 36.2913 136.91 35.331 136.908 35.3281L131.315 26.0055C130.863 25.2531 131.263 24.2752 132.125 24.0529L129.712 23.7705C129.208 23.7115 128.714 23.9413 128.438 24.3629C128.161 24.7846 128.15 25.3251 128.41 25.7573L134.551 35.9935L129.523 46.8102C129.062 47.802 129.951 48.892 131.027 48.6511L132.514 48.3184C132.274 47.9429 132.238 47.4686 132.428 47.0585Z" fill="#F99830"/>
<defs>
<linearGradient id="paint0_linear_44_1167" x1="-3.41518e-09" y1="0.0670597" x2="2.92595" y2="0.204362" gradientUnits="userSpaceOnUse">
<stop stop-color="#BFC3FC"/>
<stop offset="1" stop-color="#A2C3FC"/>
</linearGradient>
<linearGradient id="paint1_linear_44_1167" x1="-3.41518e-09" y1="0.0670597" x2="2.92595" y2="0.204362" gradientUnits="userSpaceOnUse">
<stop stop-color="#BFC3FC"/>
<stop offset="1" stop-color="#A2C3FC"/>
</linearGradient>
<linearGradient id="paint2_linear_44_1167" x1="-3.41518e-09" y1="0.0670597" x2="2.92595" y2="0.204362" gradientUnits="userSpaceOnUse">
<stop stop-color="#BFC3FC"/>
<stop offset="1" stop-color="#A2C3FC"/>
</linearGradient>
<linearGradient id="paint3_linear_44_1167" x1="-3.41518e-09" y1="0.0670597" x2="2.92595" y2="0.204362" gradientUnits="userSpaceOnUse">
<stop stop-color="#BFC3FC"/>
<stop offset="1" stop-color="#A2C3FC"/>
</linearGradient>
<linearGradient id="paint4_linear_44_1167" x1="-3.41518e-09" y1="0.0670597" x2="2.92595" y2="0.204362" gradientUnits="userSpaceOnUse">
<stop stop-color="#BFC3FC"/>
<stop offset="1" stop-color="#A2C3FC"/>
</linearGradient>
<linearGradient id="paint5_linear_44_1167" x1="4.8174" y1="15.468" x2="11.76" y2="13.851" gradientUnits="userSpaceOnUse">
<stop stop-color="#BFC3FC"/>
<stop offset="1" stop-color="#A2C3FC"/>
</linearGradient>
<linearGradient id="paint6_linear_44_1167" x1="-2.41709e-09" y1="0.0474614" x2="2.07084" y2="0.144637" gradientUnits="userSpaceOnUse">
<stop stop-color="#BFC3FC"/>
<stop offset="1" stop-color="#A2C3FC"/>
</linearGradient>
<linearGradient id="paint7_linear_44_1167" x1="-2.41709e-09" y1="0.0474614" x2="2.07084" y2="0.144637" gradientUnits="userSpaceOnUse">
<stop stop-color="#BFC3FC"/>
<stop offset="1" stop-color="#A2C3FC"/>
</linearGradient>
<linearGradient id="paint8_linear_44_1167" x1="-2.41732e-09" y1="0.0474659" x2="2.07103" y2="0.14465" gradientUnits="userSpaceOnUse">
<stop stop-color="#BFC3FC"/>
<stop offset="1" stop-color="#A2C3FC"/>
</linearGradient>
<linearGradient id="paint9_linear_44_1167" x1="36.9329" y1="14.2835" x2="39.5753" y2="13.6989" gradientUnits="userSpaceOnUse">
<stop stop-color="#BFC3FC"/>
<stop offset="1" stop-color="#A2C3FC"/>
</linearGradient>
<linearGradient id="paint10_linear_44_1167" x1="15.3366" y1="19.9439" x2="18.3461" y2="19.3387" gradientUnits="userSpaceOnUse">
<stop stop-color="#BFC3FC"/>
<stop offset="1" stop-color="#A2C3FC"/>
</linearGradient>
<linearGradient id="paint11_linear_44_1167" x1="15.0934" y1="45.7761" x2="18.103" y2="45.171" gradientUnits="userSpaceOnUse">
<stop stop-color="#BFC3FC"/>
<stop offset="1" stop-color="#A2C3FC"/>
</linearGradient>
<linearGradient id="paint12_linear_44_1167" x1="46.9284" y1="40.0033" x2="49.9379" y2="39.3982" gradientUnits="userSpaceOnUse">
<stop stop-color="#BFC3FC"/>
<stop offset="1" stop-color="#A2C3FC"/>
</linearGradient>
<linearGradient id="paint13_linear_44_1167" x1="24.8773" y1="5.90138" x2="30.225" y2="4.59473" gradientUnits="userSpaceOnUse">
<stop stop-color="#BFC3FC"/>
<stop offset="1" stop-color="#A2C3FC"/>
</linearGradient>
<linearGradient id="paint14_linear_44_1167" x1="36.4239" y1="14.7319" x2="44.9206" y2="12.8595" gradientUnits="userSpaceOnUse">
<stop stop-color="#BFC3FC"/>
<stop offset="1" stop-color="#A2C3FC"/>
</linearGradient>
<linearGradient id="paint15_linear_44_1167" x1="68.5347" y1="32.1772" x2="71.4624" y2="32.3148" gradientUnits="userSpaceOnUse">
<stop stop-color="#BFC3FC"/>
<stop offset="1" stop-color="#A2C3FC"/>
</linearGradient>
<linearGradient id="paint16_linear_44_1167" x1="75.0313" y1="16.0471" x2="77.959" y2="16.1847" gradientUnits="userSpaceOnUse">
<stop stop-color="#BFC3FC"/>
<stop offset="1" stop-color="#A2C3FC"/>
</linearGradient>
<linearGradient id="paint17_linear_44_1167" x1="94.2708" y1="12.6975" x2="97.1985" y2="12.8351" gradientUnits="userSpaceOnUse">
<stop stop-color="#BFC3FC"/>
<stop offset="1" stop-color="#A2C3FC"/>
</linearGradient>
<linearGradient id="paint18_linear_44_1167" x1="106.143" y1="32.1771" x2="109.071" y2="32.3147" gradientUnits="userSpaceOnUse">
<stop stop-color="#BFC3FC"/>
<stop offset="1" stop-color="#A2C3FC"/>
</linearGradient>
<linearGradient id="paint19_linear_44_1167" x1="80.5897" y1="5.65991" x2="83.5174" y2="5.79747" gradientUnits="userSpaceOnUse">
<stop stop-color="#BFC3FC"/>
<stop offset="1" stop-color="#A2C3FC"/>
</linearGradient>
<linearGradient id="paint20_linear_44_1167" x1="68.9205" y1="4.72598" x2="76.0476" y2="4.97756" gradientUnits="userSpaceOnUse">
<stop stop-color="#BFC3FC"/>
<stop offset="1" stop-color="#A2C3FC"/>
</linearGradient>
<linearGradient id="paint21_linear_44_1167" x1="69.4097" y1="14.475" x2="71.4818" y2="14.5724" gradientUnits="userSpaceOnUse">
<stop stop-color="#BFC3FC"/>
<stop offset="1" stop-color="#A2C3FC"/>
</linearGradient>
<linearGradient id="paint22_linear_44_1167" x1="102.241" y1="34.5313" x2="104.314" y2="34.6287" gradientUnits="userSpaceOnUse">
<stop stop-color="#BFC3FC"/>
<stop offset="1" stop-color="#A2C3FC"/>
</linearGradient>
<linearGradient id="paint23_linear_44_1167" x1="70.2943" y1="40.6475" x2="72.3665" y2="40.7449" gradientUnits="userSpaceOnUse">
<stop stop-color="#BFC3FC"/>
<stop offset="1" stop-color="#A2C3FC"/>
</linearGradient>
<linearGradient id="paint24_linear_44_1167" x1="100.251" y1="11.8187" x2="102.955" y2="11.9443" gradientUnits="userSpaceOnUse">
<stop stop-color="#BFC3FC"/>
<stop offset="1" stop-color="#A2C3FC"/>
</linearGradient>
<linearGradient id="paint25_linear_44_1167" x1="77.9122" y1="11.7473" x2="80.9763" y2="11.9489" gradientUnits="userSpaceOnUse">
<stop stop-color="#BFC3FC"/>
<stop offset="1" stop-color="#A2C3FC"/>
</linearGradient>
<linearGradient id="paint26_linear_44_1167" x1="70.9302" y1="36.6369" x2="73.9944" y2="36.8385" gradientUnits="userSpaceOnUse">
<stop stop-color="#BFC3FC"/>
<stop offset="1" stop-color="#A2C3FC"/>
</linearGradient>
<linearGradient id="paint27_linear_44_1167" x1="103.188" y1="39.2258" x2="106.252" y2="39.4275" gradientUnits="userSpaceOnUse">
<stop stop-color="#BFC3FC"/>
<stop offset="1" stop-color="#A2C3FC"/>
</linearGradient>
<linearGradient id="paint28_linear_44_1167" x1="90.7953" y1="0.630318" x2="96.3015" y2="0.765037" gradientUnits="userSpaceOnUse">
<stop stop-color="#BFC3FC"/>
<stop offset="1" stop-color="#A2C3FC"/>
</linearGradient>
<linearGradient id="paint29_linear_44_1167" x1="99.6421" y1="12.1213" x2="108.336" y2="12.5322" gradientUnits="userSpaceOnUse">
<stop stop-color="#BFC3FC"/>
<stop offset="1" stop-color="#A2C3FC"/>
</linearGradient>
<linearGradient id="paint30_linear_44_1167" x1="-3.41518e-09" y1="0.0670597" x2="2.92595" y2="0.204362" gradientUnits="userSpaceOnUse">
<stop stop-color="#BFC3FC"/>
<stop offset="1" stop-color="#A2C3FC"/>
</linearGradient>
<linearGradient id="paint31_linear_44_1167" x1="-3.41518e-09" y1="0.0670597" x2="2.92595" y2="0.204362" gradientUnits="userSpaceOnUse">
<stop stop-color="#BFC3FC"/>
<stop offset="1" stop-color="#A2C3FC"/>
</linearGradient>
<linearGradient id="paint32_linear_44_1167" x1="-3.41518e-09" y1="0.0670597" x2="2.92595" y2="0.204362" gradientUnits="userSpaceOnUse">
<stop stop-color="#BFC3FC"/>
<stop offset="1" stop-color="#A2C3FC"/>
</linearGradient>
<linearGradient id="paint33_linear_44_1167" x1="-3.41518e-09" y1="0.0670597" x2="2.92595" y2="0.204362" gradientUnits="userSpaceOnUse">
<stop stop-color="#BFC3FC"/>
<stop offset="1" stop-color="#A2C3FC"/>
</linearGradient>
<linearGradient id="paint34_linear_44_1167" x1="-3.41518e-09" y1="0.0670597" x2="2.92595" y2="0.204362" gradientUnits="userSpaceOnUse">
<stop stop-color="#BFC3FC"/>
<stop offset="1" stop-color="#A2C3FC"/>
</linearGradient>
<linearGradient id="paint35_linear_44_1167" x1="134.392" y1="5.16805" x2="141.201" y2="7.26927" gradientUnits="userSpaceOnUse">
<stop stop-color="#BFC3FC"/>
<stop offset="1" stop-color="#A2C3FC"/>
</linearGradient>
<linearGradient id="paint36_linear_44_1167" x1="-2.41709e-09" y1="0.0474614" x2="2.07084" y2="0.144637" gradientUnits="userSpaceOnUse">
<stop stop-color="#BFC3FC"/>
<stop offset="1" stop-color="#A2C3FC"/>
</linearGradient>
<linearGradient id="paint37_linear_44_1167" x1="-2.41709e-09" y1="0.0474614" x2="2.07084" y2="0.144637" gradientUnits="userSpaceOnUse">
<stop stop-color="#BFC3FC"/>
<stop offset="1" stop-color="#A2C3FC"/>
</linearGradient>
<linearGradient id="paint38_linear_44_1167" x1="-2.41732e-09" y1="0.0474659" x2="2.07103" y2="0.14465" gradientUnits="userSpaceOnUse">
<stop stop-color="#BFC3FC"/>
<stop offset="1" stop-color="#A2C3FC"/>
</linearGradient>
<linearGradient id="paint39_linear_44_1167" x1="162.802" y1="20.0546" x2="165.378" y2="20.8809" gradientUnits="userSpaceOnUse">
<stop stop-color="#BFC3FC"/>
<stop offset="1" stop-color="#A2C3FC"/>
</linearGradient>
<linearGradient id="paint40_linear_44_1167" x1="141.243" y1="14.2562" x2="144.146" y2="15.2495" gradientUnits="userSpaceOnUse">
<stop stop-color="#BFC3FC"/>
<stop offset="1" stop-color="#A2C3FC"/>
</linearGradient>
<linearGradient id="paint41_linear_44_1167" x1="127.999" y1="36.5071" x2="130.902" y2="37.5003" gradientUnits="userSpaceOnUse">
<stop stop-color="#BFC3FC"/>
<stop offset="1" stop-color="#A2C3FC"/>
</linearGradient>
<linearGradient id="paint42_linear_44_1167" x1="158.481" y1="47.2813" x2="161.384" y2="48.2745" gradientUnits="userSpaceOnUse">
<stop stop-color="#BFC3FC"/>
<stop offset="1" stop-color="#A2C3FC"/>
</linearGradient>
<linearGradient id="paint43_linear_44_1167" x1="156.591" y1="6.82228" x2="161.868" y2="8.38824" gradientUnits="userSpaceOnUse">
<stop stop-color="#BFC3FC"/>
<stop offset="1" stop-color="#A2C3FC"/>
</linearGradient>
<linearGradient id="paint44_linear_44_1167" x1="162.135" y1="20.1909" x2="170.414" y2="22.8541" gradientUnits="userSpaceOnUse">
<stop stop-color="#BFC3FC"/>
<stop offset="1" stop-color="#A2C3FC"/>
</linearGradient>
</defs>
</svg>
