<svg width="44" height="34" viewBox="0 0 44 34" fill="none" xmlns="http://www.w3.org/2000/svg">
<path opacity="0.1" d="M16.0167 33.7651C24.8625 33.7651 32.0335 33.5114 32.0335 33.1984C32.0335 32.8853 24.8625 32.6316 16.0167 32.6316C7.17093 32.6316 0 32.8853 0 33.1984C0 33.5114 7.17093 33.7651 16.0167 33.7651Z" fill="url(#paint0_linear_67_4484)"/>
<path opacity="0.1" d="M11.8059 1.02895C12.8263 0.12615 14.428 -0.0578462 15.8859 0.0140697C20.4652 0.239956 24.5989 2.43496 28.1745 4.91776C29.4689 5.81657 30.7433 6.78522 31.5836 8.02295C33.294 10.5426 32.7866 14.0331 30.4082 16.1088C29.599 16.8151 28.6181 17.3565 27.611 17.8364C25.8204 18.6897 23.8884 19.3747 21.8561 19.5697C20.4068 19.7088 18.9397 19.5957 17.4989 19.4017C13.4735 18.8597 9.52221 17.6611 6.21047 15.6105C4.75796 14.7111 3.38889 13.593 2.79019 12.138C2.19149 10.683 2.57465 8.83927 4.05781 7.97806C4.67124 7.62187 5.40466 7.461 6.12271 7.30994C7.17964 7.0876 8.25352 6.86842 9.20732 6.4164C10.1925 5.94953 11.359 5.04667 11.1639 4.01328C10.9546 2.90449 10.7867 1.9307 11.8059 1.02895Z" fill="url(#paint1_linear_67_4484)"/>
<path opacity="0.1" d="M39.7163 34C42.0821 34 43.9999 33.8315 43.9999 33.6237C43.9999 33.4159 42.0821 33.2474 39.7163 33.2474C37.3505 33.2474 35.4326 33.4159 35.4326 33.6237C35.4326 33.8315 37.3505 34 39.7163 34Z" fill="url(#paint2_linear_67_4484)"/>
<path d="M22.3412 12.805C22.2715 12.671 21.9028 11.838 21.9028 11.838L21.285 10.2486C21.285 10.2486 20.8466 9.57843 20.8466 9.45396C20.8466 9.3295 20.0495 8.83163 20.0495 8.83163C20.0495 8.83163 19.4018 8.64014 19.352 8.62099C19.3021 8.60184 18.5349 8.34984 18.5349 8.34984C18.5349 8.34984 18.2328 7.95538 18.1897 8.0584L18.1897 8.05866C18.1881 8.05606 18.1865 8.0538 18.185 8.05112C18.1232 7.93661 18.0841 7.81142 18.0698 7.68232C18.0681 7.67085 18.0667 7.65874 18.0653 7.64678C18.2643 7.51287 18.4274 7.33279 18.5405 7.12217C18.6535 6.91154 18.7132 6.67671 18.7143 6.43803C18.7141 6.37519 18.7099 6.31243 18.7015 6.25014C18.707 6.24674 18.7127 6.24375 18.7186 6.24118C18.731 6.23583 18.7279 6.23149 18.7188 6.22695C18.7219 6.22532 18.725 6.2236 18.7282 6.22227C18.7447 6.21516 18.7337 6.20977 18.7177 6.20337L18.7186 6.20289C18.7411 6.19319 18.7127 6.18676 18.6899 6.17651C18.6886 6.16988 18.6875 6.16324 18.6862 6.15664C18.6912 6.14403 18.6943 6.13073 18.6953 6.11719C18.6973 6.11819 18.6992 6.11927 18.7013 6.1202C18.7069 6.09552 18.7068 6.06992 18.7009 6.04531C18.6995 6.05031 18.6978 6.05522 18.6957 6.06002C18.6972 6.0377 18.6925 6.01541 18.6823 5.99548C18.6721 5.97554 18.6567 5.95869 18.6377 5.94667C18.6366 5.94568 18.6353 5.94462 18.6342 5.94362L18.6764 5.51409C19.2995 5.48485 19.4088 4.43233 19.2667 4.37386C19.1246 4.31538 19.2667 4.18869 19.2667 3.93531C19.2667 3.68192 18.7967 3.3993 18.7967 3.3993C18.7967 3.3993 18.5999 3.49676 18.2938 3.00948C17.9877 2.5222 16.8618 2.44424 16.7853 2.57093C16.7087 2.69762 16.2059 2.8633 15.55 3.04846C14.8941 3.23363 15.0144 4.00353 15.1237 4.1692C15.2137 4.30617 15.2665 4.46399 15.2767 4.62724C15.2767 4.7247 15.4844 5.13401 15.4844 5.13401C15.4189 5.27584 15.5856 6.05284 15.635 6.27367C15.6342 6.28046 15.6334 6.28722 15.6327 6.29404C15.6323 6.29471 15.6317 6.29527 15.6313 6.29595C15.629 6.29952 15.6268 6.30323 15.6249 6.30705C15.6144 6.32994 15.6108 6.35544 15.6149 6.3803C15.6113 6.40749 15.6151 6.43513 15.6259 6.46035C15.6297 6.6684 15.6782 6.87325 15.7681 7.06118C15.8581 7.24912 15.9875 7.4158 16.1476 7.55006C16.1484 7.56335 16.1491 7.57672 16.1499 7.5904C16.159 7.77079 16.1642 7.9841 16.1547 8.18823C16.1542 8.19867 16.1534 8.2089 16.1528 8.21929C16.1166 8.22655 16.0827 8.24215 16.0537 8.26483C16.0248 8.28751 16.0016 8.31663 15.9861 8.34984C15.9243 8.4678 15.5656 8.64972 15.5656 8.64972C15.5656 8.64972 14.9378 8.67844 14.878 8.79333C14.8183 8.90823 13.9115 9.2912 13.9115 9.2912C13.9115 9.2912 13.4332 9.56886 13.503 9.88481C13.5394 10.0499 13.4371 10.3064 13.3311 10.5138C13.1094 10.4303 12.8785 10.3731 12.6432 10.3435L13.1512 10.826C13.1406 10.8425 13.1343 10.8518 13.1343 10.8518L12.8453 11.8667C12.8453 11.8667 12.7457 12.221 12.646 12.3071C12.5464 12.3933 12.7357 13.1784 12.7357 13.1784C12.7357 13.1784 12.6261 13.7337 12.5364 13.8773C12.4468 14.0209 12.6759 14.3752 12.6759 14.3752L13.1343 15.4092L14.3499 15.7156C14.3499 15.7156 14.4309 15.7326 14.5618 15.7605C14.5577 15.7852 14.5535 15.8098 14.5492 15.8343C14.4906 16.1637 14.4137 16.4666 14.32 16.5486C14.0909 16.7496 14.1008 17.6496 14.1008 17.6496L14.1108 18.923C14.1108 18.923 14.1905 20.4932 14.1506 20.5507C14.1255 20.5869 14.176 20.6461 14.3092 20.6992C14.3054 20.7228 14.3016 20.7468 14.2981 20.7713C14.2606 21.0317 14.2439 21.3289 14.33 21.4602C14.3674 21.5313 14.3878 21.6099 14.3898 21.69C14.3898 21.8145 14.5791 22.073 14.5791 22.073C14.5791 22.073 14.4296 23.1358 14.6787 23.4996C14.9279 23.8634 15.1371 24.524 15.0175 24.6772C15.0175 24.6772 14.8083 25.1272 14.9079 25.3283C15.0076 25.5294 14.9079 25.6442 14.7784 25.6921C14.6489 25.74 14.66 26.1325 14.66 26.1325L14.898 27.9995C14.898 27.9995 15.0275 28.3825 14.9179 28.5166C14.8083 28.6506 14.8083 29.3208 14.9777 29.5506C15.1471 29.7804 14.7385 30.2016 14.7385 30.2016C14.7385 30.2016 14.4894 30.5559 14.888 30.6708C14.888 30.6708 14.9677 30.6899 14.8182 30.8431C14.6688 30.9963 14.6389 31.1878 14.7385 31.2548C14.7592 31.2671 14.7808 31.2778 14.8032 31.2867C14.7995 31.3094 14.7955 31.3329 14.7907 31.3579C14.7525 31.5578 14.6803 31.8182 14.5492 31.9442C14.2951 32.2027 14.0758 32.4929 13.8968 32.8074C13.76 33.0648 13.7003 33.3057 13.8517 33.4186C14.2104 33.6867 14.6688 33.7729 14.9378 33.6676C15.2068 33.5623 15.5855 33.2367 15.5855 33.2367L15.6752 32.8633C15.6752 32.8633 15.6154 32.6335 15.9143 32.5474C16.2132 32.4612 16.4922 32.1548 16.4922 32.1548V31.6585C16.5646 31.6174 16.6345 31.5722 16.7015 31.5229C16.7015 31.5229 16.841 31.0346 16.7015 30.8719C16.562 30.7091 16.5122 30.6516 16.6915 30.5463C16.8709 30.441 16.8952 30.2112 16.7637 30.0102C16.6317 29.8091 16.4225 29.5123 16.6018 29.091C16.7812 28.6698 16.847 27.3772 16.847 27.3772C16.847 27.3772 16.7633 26.4964 16.847 26.2953C16.9307 26.0942 16.7513 25.6921 16.7513 25.6921C16.7513 25.6921 16.8111 25.1943 16.9207 24.9645C17.0303 24.7347 17.12 23.5187 17.12 23.5187C17.12 23.5187 17.3193 23.0017 17.3193 22.6666C17.3193 22.3315 17.0104 21.5273 17.4687 21.3166C17.4687 21.3166 17.668 21.489 17.5883 22.1783C17.5883 22.1783 17.8175 22.9826 17.8175 23.2315C17.8175 23.4804 17.9869 24.3804 17.9869 24.3804C17.9869 24.3804 18.0068 24.6677 18.0765 24.773C18.1463 24.8783 18.0765 25.1655 18.0765 25.1655C18.0765 25.1655 18.3356 25.4049 18.2659 25.5581C18.1961 25.7113 18.2778 26.0567 18.2778 26.0567L18.216 28.2006C18.216 28.2006 18.0367 29.1198 18.4552 29.6751C18.4552 29.6751 18.3057 30.4889 18.216 30.5463C18.1264 30.6038 18.5449 31.1017 18.5449 31.1017C18.5449 31.1017 18.4289 31.4242 18.6644 31.44V31.9729C18.7462 32.1164 18.8584 32.2405 18.9933 32.3367C19.2125 32.4899 19.1228 33.0165 19.1228 33.0165C19.1228 33.0165 19.4018 33.6867 20.1391 33.5431C20.8765 33.3995 20.9761 33.3325 20.9363 33.0931C20.9219 33.0058 20.8901 32.8499 20.8442 32.673C20.7649 32.3655 20.6433 31.9944 20.4979 31.8113C20.2687 31.5229 20.0794 30.9197 20.0794 30.9197C20.0794 30.9197 19.9897 30.7187 20.0794 30.6517C20.169 30.5846 20.1292 30.4602 20.1292 30.4602C20.1292 30.4602 20.2165 30.2112 20.1379 30.058C20.0594 29.9049 20.2886 29.5889 20.2886 29.5889L20.2189 28.1144L20.2886 25.9698C20.2886 25.9698 19.9797 25.6155 20.1093 25.4049C20.2388 25.1943 19.9598 24.8975 19.9598 24.8975C19.9598 24.8975 19.9299 24.8879 20.0096 24.6485C20.0573 24.5075 20.0502 24.3538 19.9897 24.2177C19.9897 24.2177 19.8203 23.6241 20.1192 23.1741C20.1192 23.1741 20.2488 22.5805 20.2886 22.2741C20.3161 22.0611 20.4883 21.2657 20.5907 20.8004C20.5965 20.7741 20.6021 20.7489 20.6074 20.7249C20.7549 20.7329 20.8665 20.7422 20.8665 20.7422C20.8665 20.7422 20.6374 19.1624 20.8665 18.8369C21.0957 18.5113 20.6872 16.022 20.6872 16.022C20.6872 16.022 20.5895 15.5869 20.5293 15.1431C20.5259 15.1178 20.5228 15.0925 20.5196 15.0672C20.7046 15.0526 20.8903 15.0485 21.0758 15.055C21.5541 15.0837 22.0224 14.9018 22.0324 14.7199C22.0423 14.538 22.3014 13.8199 22.3412 13.6571C22.3811 13.4944 22.411 12.939 22.3412 12.805Z" fill="url(#paint3_linear_67_4484)"/>
<path d="M16.5271 31.2751V32.1616C16.5271 32.1616 16.2582 32.4667 15.9702 32.5525C15.6822 32.6383 15.7398 32.8671 15.7398 32.8671L15.6534 33.2388C15.6534 33.2388 15.2885 33.5629 15.0293 33.6678C14.7701 33.7727 14.3284 33.6869 13.9828 33.4199C13.8368 33.3075 13.8944 33.0676 14.0262 32.8114C14.1978 32.4993 14.4091 32.2105 14.6548 31.9519C14.7812 31.8265 14.8507 31.5672 14.8876 31.3681C14.9148 31.2191 14.9237 31.1035 14.9237 31.1035L16.5271 31.2751Z" fill="#4C495A"/>
<path opacity="0.1" d="M16.5271 31.9366V32.1616C16.5271 32.1616 16.2582 32.4667 15.9702 32.5525C15.6822 32.6382 15.7398 32.867 15.7398 32.867L15.6534 33.2388C15.6534 33.2388 15.2885 33.5629 15.0293 33.6678C14.7701 33.7726 14.3284 33.6868 13.9828 33.4199C13.8368 33.3074 13.8944 33.0676 14.0262 32.8114C14.02 33.0806 14.1003 33.3829 14.4916 33.3723C14.914 33.359 15.321 33.212 15.6534 32.9528C15.6534 32.9528 15.6438 32.3237 16.0854 32.1807C16.2468 32.1278 16.3967 32.045 16.5271 31.9366Z" fill="black"/>
<path d="M20.0413 33.5439C19.3308 33.6868 19.062 33.0196 19.062 33.0196C19.062 33.0196 19.1484 32.4953 18.9372 32.3427C18.8066 32.246 18.6985 32.1225 18.6204 31.9805V31.1035L19.4845 30.4934L19.9522 30.9045L19.9837 30.9319C19.9837 30.9319 20.1662 31.5325 20.387 31.8196C20.5272 32.0019 20.6443 32.3713 20.7207 32.6775C20.7649 32.8537 20.7956 33.0089 20.8094 33.0958C20.8478 33.3341 20.7518 33.4009 20.0413 33.5439Z" fill="#4C495A"/>
<path opacity="0.1" d="M20.0413 33.5438C19.3308 33.6868 19.062 33.0196 19.062 33.0196C19.062 33.0196 19.1484 32.4953 18.9372 32.3427C18.8066 32.246 18.6985 32.1225 18.6204 31.9805V31.6407C18.7575 31.7845 19.0159 32.0629 19.0716 32.1807C19.1484 32.3427 19.158 32.9338 19.5133 33.0386C19.8685 33.1435 20.5598 33.2388 20.6174 32.9719C20.6414 32.8704 20.676 32.7718 20.7207 32.6775C20.7649 32.8537 20.7956 33.0089 20.8094 33.0958C20.8478 33.3341 20.7518 33.4009 20.0413 33.5438Z" fill="black"/>
<path opacity="0.1" d="M14.9235 31.1035L16.527 31.2751V31.7437C16.3461 31.8501 16.0868 31.963 15.9413 31.8471C15.7262 31.6762 15.0868 31.4593 14.8875 31.3681C14.9147 31.2191 14.9235 31.1035 14.9235 31.1035Z" fill="black"/>
<path opacity="0.1" d="M19.9837 31.0082C19.7629 30.9319 19.3693 31.2656 18.8508 31.4753C18.7787 31.509 18.7 31.5264 18.6204 31.5264V31.1035L19.4845 30.4934L19.9522 30.9045C19.9595 30.9399 19.97 30.9747 19.9837 31.0082Z" fill="black"/>
<path d="M20.5501 20.5128C20.5501 20.5128 20.5198 20.6531 20.4764 20.8567C20.3777 21.32 20.2117 22.1119 20.1852 22.324C20.1468 22.629 20.022 23.22 20.022 23.22C19.734 23.6681 19.8972 24.2591 19.8972 24.2591C19.9556 24.3951 19.9624 24.5475 19.9164 24.6881C19.8396 24.9264 19.8684 24.9359 19.8684 24.9359C19.8684 24.9359 20.1372 25.2314 20.0124 25.4411C19.8876 25.6508 20.1852 26.0036 20.1852 26.0036L20.118 28.1389L20.1852 29.6069C20.1852 29.6069 19.9644 29.9215 20.0401 30.074C20.1157 30.2265 20.0316 30.4744 20.0316 30.4744C20.0316 30.4744 20.07 30.5983 19.9836 30.665C19.8972 30.7317 19.9836 30.9319 19.9836 30.9319C19.7628 30.8557 19.3691 31.1893 18.8507 31.399C18.3322 31.6087 18.505 31.1131 18.505 31.1131C18.505 31.1131 18.1018 30.6174 18.1882 30.5602C18.2746 30.503 18.4186 29.6927 18.4186 29.6927C18.0154 29.1398 18.1882 28.2247 18.1882 28.2247L18.2477 26.0901C18.2477 26.0901 18.169 25.7462 18.2362 25.5937C18.3034 25.4411 18.0538 25.2028 18.0538 25.2028C18.0538 25.2028 18.121 24.9168 18.0538 24.812C17.9866 24.7071 17.9674 24.4211 17.9674 24.4211C17.9674 24.4211 17.8041 23.5251 17.8041 23.2772C17.8041 23.0294 17.5833 22.2286 17.5833 22.2286C17.6601 21.5423 17.4681 21.3707 17.4681 21.3707C17.0264 21.5804 17.3241 22.3812 17.3241 22.7148C17.3241 23.0484 17.1321 23.5632 17.1321 23.5632C17.1321 23.5632 17.0457 24.7738 16.94 25.0026C16.8344 25.2314 16.7768 25.7271 16.7768 25.7271C16.7768 25.7271 16.9496 26.1275 16.869 26.3277C16.7883 26.5279 16.869 27.4049 16.869 27.4049C16.869 27.4049 16.8056 28.6918 16.6328 29.1112C16.46 29.5306 16.6616 29.8261 16.7887 30.0263C16.9155 30.2265 16.892 30.4553 16.7192 30.5602C16.5464 30.665 16.5944 30.7222 16.7288 30.8843C16.8632 31.0463 16.7288 31.5325 16.7288 31.5325C16.7288 31.5325 16.1815 31.9615 15.9415 31.7708C15.7015 31.5802 14.9334 31.3323 14.8374 31.2656C14.7414 31.1988 14.7702 31.0082 14.9142 30.8557C15.0582 30.7031 14.9814 30.6841 14.9814 30.6841C14.5973 30.5697 14.8374 30.217 14.8374 30.217C14.8374 30.217 15.231 29.7975 15.0678 29.5688C14.9046 29.34 14.9046 28.6727 15.0102 28.5392C15.1158 28.4058 14.991 28.0245 14.991 28.0245L14.7617 26.1656C14.7617 26.1656 14.751 25.7748 14.8758 25.7271C15.0006 25.6794 15.0966 25.5651 15.0006 25.3649C14.9046 25.1647 15.1062 24.7166 15.1062 24.7166C15.2214 24.5641 15.0198 23.9064 14.7798 23.5441C14.5397 23.1819 14.6838 22.1238 14.6838 22.1238C14.6838 22.1238 14.5013 21.8664 14.5013 21.7425C14.4995 21.6629 14.4799 21.5847 14.4437 21.5137C14.3608 21.3829 14.3769 21.087 14.413 20.8277C14.4479 20.5768 14.5013 20.3602 14.5013 20.3602L20.5501 20.5128Z" fill="#5F5D7E"/>
<path d="M18.6683 9.71224L16.7769 10.1507C16.7769 10.1507 15.8455 9.36907 16.076 8.94963C16.1551 8.8055 16.19 8.55956 16.2019 8.29951C16.2111 8.09627 16.2062 7.88388 16.1973 7.70429C16.1839 7.44462 16.1624 7.25282 16.1624 7.25282C16.1624 7.25282 18.1018 6.1661 18.0346 7.25282C18.0209 7.43379 18.0252 7.61566 18.0473 7.7958C18.061 7.92398 18.0986 8.0485 18.1583 8.163C18.262 8.34641 18.3899 8.34908 18.3899 8.34908L18.6683 9.71224Z" fill="#FDC2CC"/>
<path opacity="0.1" d="M18.0473 7.7958C17.7739 7.99048 17.4422 8.08742 17.1062 8.0708C16.7702 8.05418 16.4498 7.92498 16.1973 7.70429C16.1839 7.44462 16.1624 7.25282 16.1624 7.25282C16.1624 7.25282 18.1018 6.1661 18.0346 7.25282C18.0209 7.43379 18.0252 7.61566 18.0473 7.7958Z" fill="black"/>
<path d="M17.1801 8.03453C18.002 8.03453 18.6683 7.373 18.6683 6.55697C18.6683 5.74093 18.002 5.07941 17.1801 5.07941C16.3582 5.07941 15.6919 5.74093 15.6919 6.55697C15.6919 7.373 16.3582 8.03453 17.1801 8.03453Z" fill="#FDC2CC"/>
<path opacity="0.1" d="M18.6683 9.71227L16.7769 10.1508C16.7769 10.1508 15.8455 9.3691 16.076 8.94966C16.1551 8.80552 16.19 8.55958 16.2019 8.29953C16.2437 8.52566 16.366 8.72934 16.5464 8.8734C16.9785 9.15938 16.9113 9.51209 16.9113 9.51209L17.689 9.48349C17.641 9.16891 17.929 8.99732 18.025 8.95919C18.121 8.92106 18.073 8.74947 18.073 8.74947L18.1583 8.16302C18.262 8.34643 18.3899 8.3491 18.3899 8.3491L18.6683 9.71227Z" fill="black"/>
<path opacity="0.1" d="M20.5502 20.5128C20.5502 20.5128 20.5198 20.6531 20.4764 20.8567C20.2675 20.8456 19.9914 20.8376 19.8685 20.8655C19.6573 20.9131 18.8124 20.9322 18.8124 20.9322L16.7193 21.0058V20.9417C16.4785 20.9436 16.2381 20.9596 15.9992 20.9894C15.644 21.037 15.0871 20.9703 14.7318 20.9131C14.6225 20.8976 14.5155 20.8689 14.4131 20.8277C14.448 20.5768 14.5014 20.3602 14.5014 20.3602L20.5502 20.5128Z" fill="black"/>
<path d="M20.3868 14.4595C20.3565 14.6376 20.3787 14.9327 20.4171 15.2241C20.4751 15.666 20.5692 16.0992 20.5692 16.0992C20.5692 16.0992 20.9629 18.5776 20.742 18.9017C20.5212 19.2259 20.742 20.7987 20.742 20.7987C20.742 20.7987 20.0796 20.7415 19.8683 20.7892C19.6571 20.8369 18.8122 20.8559 18.8122 20.8559L16.7191 20.9295V20.8655C16.4784 20.8674 16.2379 20.8833 15.999 20.9131C15.6438 20.9608 15.0869 20.8941 14.7317 20.8369C14.3764 20.7797 14.2324 20.6653 14.2708 20.6081C14.3092 20.5509 14.2324 18.9875 14.2324 18.9875L14.2228 17.7197C14.2228 17.7197 14.2132 16.8236 14.434 16.6234C14.5243 16.5418 14.5984 16.2402 14.6549 15.9123C14.7359 15.4376 14.7797 14.9076 14.7797 14.9076L13.3203 11.0278L13.2915 10.9515C13.2915 10.9515 13.714 10.3033 13.6467 9.98873C13.5795 9.67415 14.0404 9.39771 14.0404 9.39771C14.0404 9.39771 14.9141 9.0164 14.9717 8.90201C15.0293 8.78762 15.6342 8.75902 15.6342 8.75902C15.6342 8.75902 15.9798 8.5779 16.0394 8.46046C16.0539 8.42765 16.076 8.39874 16.104 8.37613C16.132 8.35352 16.165 8.33786 16.2003 8.33043C16.241 8.55934 16.3639 8.76582 16.5463 8.91154C16.9784 9.19752 16.9112 9.55023 16.9112 9.55023L17.6889 9.52163C17.6409 9.20705 17.9289 9.03547 18.0249 8.99734C18.1209 8.95921 18.0729 8.78762 18.0729 8.78762L18.1628 8.17028C18.2042 8.06771 18.4954 8.46046 18.4954 8.46046C18.4954 8.46046 19.2347 8.71136 19.2827 8.73042C19.3307 8.74949 19.9547 8.94014 19.9547 8.94014C19.9547 8.94014 20.7228 9.43584 20.7228 9.55976C20.7228 9.68369 21.1453 10.351 21.1453 10.351C21.1453 10.351 21.1403 10.3777 21.1311 10.4265C21.0335 10.9519 20.4571 14.0496 20.3868 14.4595Z" fill="url(#paint4_linear_67_4484)"/>
<path d="M17.3145 12.9152C17.3145 12.9152 15.6535 12.4767 15.4902 12.3718C15.327 12.267 14.3669 12.8771 15.5382 13.7064C15.5382 13.7064 16.9706 14.0019 17.3537 13.7064C17.7369 13.4109 17.3145 12.9152 17.3145 12.9152Z" fill="#FDC2CC"/>
<path opacity="0.1" d="M20.9052 10.3033L21.1068 10.3128L21.7021 11.8952C21.7021 11.8952 22.0573 12.7246 22.1245 12.858C22.1917 12.9915 22.1629 13.5444 22.1245 13.7064C22.0861 13.8685 21.8365 14.5834 21.8269 14.7646C21.8173 14.9457 21.366 15.1268 20.9052 15.0982C20.4443 15.0696 19.369 15.2126 19.369 15.2126C19.369 15.2126 18.2206 15.0934 17.516 15.4509C17.516 15.4509 17.0647 14.5262 17.1127 12.8008C17.1127 12.8008 17.9096 12.7532 18.1112 12.8294C18.3129 12.9057 19.2922 13.1249 19.417 13.0106C19.5418 12.8962 20.1083 13.2203 20.1083 13.2203C20.1371 13.1574 20.152 13.0892 20.152 13.0201C20.152 12.951 20.1371 12.8828 20.1083 12.8199C20.0123 12.5911 19.8491 11.8762 20.0603 11.6474C20.2715 11.4186 20.9052 10.3033 20.9052 10.3033Z" fill="black"/>
<path opacity="0.1" d="M20.4172 15.224C19.9406 15.2561 19.4076 15.327 19.4076 15.327C19.4076 15.327 18.2593 15.2076 17.5545 15.5653C17.5545 15.5653 17.1033 14.6406 17.1513 12.9152C17.1513 12.9152 17.9482 12.8676 18.1498 12.9438C18.3514 13.0201 19.3308 13.2393 19.4556 13.1249C19.5804 13.0105 20.1469 13.3347 20.1469 13.3347C20.1757 13.2718 20.1906 13.2035 20.1906 13.1345C20.1906 13.0654 20.1757 12.9971 20.1469 12.9343C20.0508 12.7055 19.8876 11.9905 20.0988 11.7618C20.3101 11.533 20.9438 10.4177 20.9438 10.4177L21.1312 10.4264C21.0336 10.9519 20.4572 14.0496 20.3869 14.4595C20.3565 14.6376 20.3788 14.9327 20.4172 15.224Z" fill="black"/>
<path d="M20.9438 10.3414L21.1454 10.351L21.7407 11.9334C21.7407 11.9334 22.0959 12.7627 22.1631 12.8962C22.2303 13.0296 22.2015 13.5825 22.1631 13.7446C22.1247 13.9066 21.8751 14.6216 21.8655 14.8027C21.8559 14.9838 21.4046 15.1649 20.9438 15.1363C20.4829 15.1078 19.4076 15.2507 19.4076 15.2507C19.4076 15.2507 18.2591 15.1316 17.5545 15.4891C17.5545 15.4891 17.1033 14.5644 17.1513 12.839C17.1513 12.839 17.9482 12.7913 18.1498 12.8676C18.3514 12.9438 19.3308 13.1631 19.4556 13.0487C19.5804 12.9343 20.1469 13.2584 20.1469 13.2584C20.1757 13.1956 20.1906 13.1273 20.1906 13.0582C20.1906 12.9892 20.1757 12.9209 20.1469 12.858C20.0508 12.6293 19.8876 11.9143 20.0988 11.6855C20.3101 11.4567 20.9438 10.3414 20.9438 10.3414Z" fill="url(#paint5_linear_67_4484)"/>
<path d="M18.9155 13.8429L19.155 13.9902L20.4901 11.8494L20.2505 11.7022L18.9155 13.8429Z" fill="#DFE6F5"/>
<path d="M21.1744 11.5595C21.4103 11.1812 21.3849 10.7413 21.1177 10.577C20.8504 10.4127 20.4425 10.5862 20.2065 10.9645C19.9706 11.3428 19.996 11.7827 20.2632 11.947C20.5305 12.1113 20.9384 11.9378 21.1744 11.5595Z" fill="#DFE6F5"/>
<path opacity="0.1" d="M21.0378 11.4755C21.2071 11.204 21.1889 10.8882 20.997 10.7703C20.8052 10.6523 20.5124 10.7769 20.343 11.0484C20.1737 11.32 20.1919 11.6358 20.3837 11.7537C20.5756 11.8716 20.8684 11.7471 21.0378 11.4755Z" fill="black"/>
<path d="M18.2328 14.937L18.4724 15.0843L19.3031 13.7523L19.0635 13.605L18.2328 14.937Z" fill="#53526B"/>
<path d="M16.8249 15.0315L17.4106 14.8694C17.4106 14.8694 20.3005 14.9457 19.3308 13.7636C19.3308 13.7636 18.8219 13.2775 17.7562 13.6683C16.6905 14.0592 16.3928 14.1068 16.3928 14.1068L16.8249 15.0315Z" fill="#FDC2CC"/>
<path opacity="0.1" d="M16.3928 10.0459C16.4564 10.0459 16.508 9.99471 16.508 9.93153C16.508 9.86835 16.4564 9.81714 16.3928 9.81714C16.3292 9.81714 16.2776 9.86835 16.2776 9.93153C16.2776 9.99471 16.3292 10.0459 16.3928 10.0459Z" fill="black"/>
<path opacity="0.1" d="M18.3706 9.97915C18.4342 9.97915 18.4858 9.92793 18.4858 9.86476C18.4858 9.80158 18.4342 9.75037 18.3706 9.75037C18.307 9.75037 18.2554 9.80158 18.2554 9.86476C18.2554 9.92793 18.307 9.97915 18.3706 9.97915Z" fill="black"/>
<path d="M16.3928 10.0078C16.4564 10.0078 16.508 9.95656 16.508 9.89338C16.508 9.83021 16.4564 9.77899 16.3928 9.77899C16.3292 9.77899 16.2776 9.83021 16.2776 9.89338C16.2776 9.95656 16.3292 10.0078 16.3928 10.0078Z" fill="white"/>
<path opacity="0.1" d="M16.5559 11.6283C16.6195 11.6283 16.6711 11.5771 16.6711 11.5139C16.6711 11.4508 16.6195 11.3995 16.5559 11.3995C16.4923 11.3995 16.4407 11.4508 16.4407 11.5139C16.4407 11.5771 16.4923 11.6283 16.5559 11.6283Z" fill="black"/>
<path opacity="0.1" d="M18.4282 11.5139C18.4918 11.5139 18.5434 11.4627 18.5434 11.3995C18.5434 11.3364 18.4918 11.2852 18.4282 11.2852C18.3646 11.2852 18.313 11.3364 18.313 11.3995C18.313 11.4627 18.3646 11.5139 18.4282 11.5139Z" fill="black"/>
<path d="M16.5559 11.5902C16.6195 11.5902 16.6711 11.539 16.6711 11.4758C16.6711 11.4126 16.6195 11.3614 16.5559 11.3614C16.4923 11.3614 16.4407 11.4126 16.4407 11.4758C16.4407 11.539 16.4923 11.5902 16.5559 11.5902Z" fill="white"/>
<path opacity="0.1" d="M18.3801 17.034C18.4437 17.034 18.4953 16.9827 18.4953 16.9196C18.4953 16.8564 18.4437 16.8052 18.3801 16.8052C18.3165 16.8052 18.2649 16.8564 18.2649 16.9196C18.2649 16.9827 18.3165 17.034 18.3801 17.034Z" fill="black"/>
<path opacity="0.1" d="M16.8637 17.034C16.9274 17.034 16.979 16.9827 16.979 16.9196C16.979 16.8564 16.9274 16.8052 16.8637 16.8052C16.8001 16.8052 16.7485 16.8564 16.7485 16.9196C16.7485 16.9827 16.8001 17.034 16.8637 17.034Z" fill="black"/>
<path d="M18.3801 16.9959C18.4437 16.9959 18.4953 16.9447 18.4953 16.8815C18.4953 16.8183 18.4437 16.7671 18.3801 16.7671C18.3165 16.7671 18.2649 16.8183 18.2649 16.8815C18.2649 16.9447 18.3165 16.9959 18.3801 16.9959Z" fill="white"/>
<path opacity="0.1" d="M16.9792 18.9494C17.0429 18.9494 17.0944 18.8981 17.0944 18.835C17.0944 18.7718 17.0429 18.7206 16.9792 18.7206C16.9156 18.7206 16.864 18.7718 16.864 18.835C16.864 18.8981 16.9156 18.9494 16.9792 18.9494Z" fill="black"/>
<path opacity="0.1" d="M18.4282 18.835C18.4918 18.835 18.5434 18.7838 18.5434 18.7206C18.5434 18.6574 18.4918 18.6062 18.4282 18.6062C18.3646 18.6062 18.313 18.6574 18.313 18.7206C18.313 18.7838 18.3646 18.835 18.4282 18.835Z" fill="black"/>
<path d="M16.9792 18.9113C17.0429 18.9113 17.0944 18.8601 17.0944 18.7969C17.0944 18.7337 17.0429 18.6825 16.9792 18.6825C16.9156 18.6825 16.864 18.7337 16.864 18.7969C16.864 18.8601 16.9156 18.9113 16.9792 18.9113Z" fill="white"/>
<path d="M16.8637 16.9959C16.9274 16.9959 16.979 16.9447 16.979 16.8815C16.979 16.8183 16.9274 16.7671 16.8637 16.7671C16.8001 16.7671 16.7485 16.8183 16.7485 16.8815C16.7485 16.9447 16.8001 16.9959 16.8637 16.9959Z" fill="white"/>
<path d="M18.4282 18.7968C18.4918 18.7968 18.5434 18.7456 18.5434 18.6824C18.5434 18.6193 18.4918 18.5681 18.4282 18.5681C18.3646 18.5681 18.313 18.6193 18.313 18.6824C18.313 18.7456 18.3646 18.7968 18.4282 18.7968Z" fill="white"/>
<path d="M18.3706 9.94106C18.4342 9.94106 18.4858 9.88985 18.4858 9.82667C18.4858 9.7635 18.4342 9.71228 18.3706 9.71228C18.307 9.71228 18.2554 9.7635 18.2554 9.82667C18.2554 9.88985 18.307 9.94106 18.3706 9.94106Z" fill="white"/>
<path d="M18.4282 11.4758C18.4918 11.4758 18.5434 11.4246 18.5434 11.3614C18.5434 11.2982 18.4918 11.247 18.4282 11.247C18.3646 11.247 18.313 11.2982 18.313 11.3614C18.313 11.4246 18.3646 11.4758 18.4282 11.4758Z" fill="white"/>
<path opacity="0.1" d="M18.6011 15.3746C18.6011 15.3746 18.6203 17.9866 18.6779 18.4537C18.6779 18.4537 18.6988 15.4978 18.6011 15.3746Z" fill="black"/>
<path opacity="0.1" d="M19.0905 16.5853C19.0509 16.5853 19.8778 19.6453 19.9162 19.8646C19.9546 20.0838 19.3209 16.5853 19.0905 16.5853Z" fill="black"/>
<path opacity="0.1" d="M19.7434 16.0896C19.7434 16.1182 20.2043 17.7483 20.4347 17.8341C20.6651 17.9199 19.7434 16.0896 19.7434 16.0896Z" fill="black"/>
<path opacity="0.1" d="M21.5583 12.9152C21.5583 12.9152 20.579 12.9586 20.5501 13.0989C20.5213 13.2393 21.5583 12.9152 21.5583 12.9152Z" fill="black"/>
<path opacity="0.1" d="M19.83 25.3458C19.83 25.3458 19.1291 25.6413 19.2347 25.6603C19.3403 25.6794 19.83 25.3458 19.83 25.3458Z" fill="black"/>
<path opacity="0.1" d="M18.3802 24.9073C18.3529 24.8463 18.8507 25.1551 18.8507 25.1933C18.8507 25.2314 18.4186 24.9931 18.3802 24.9073Z" fill="black"/>
<path opacity="0.1" d="M19.0332 25.9082C19.0332 25.9082 19.5805 25.8808 19.6189 26.0899C19.6573 26.2991 19.0332 25.9082 19.0332 25.9082Z" fill="black"/>
<path opacity="0.1" d="M15.0964 25.907C15.0964 25.907 15.6917 25.7914 15.7397 25.907C15.7877 26.0226 15.0964 25.907 15.0964 25.907Z" fill="black"/>
<path opacity="0.1" d="M15.3175 29.502C15.3175 29.502 15.3565 29.9882 15.2122 30.1026C15.0678 30.217 15.3175 29.502 15.3175 29.502Z" fill="black"/>
<path opacity="0.1" d="M15.2449 30.5316C15.4328 30.5506 16.4217 30.3791 16.4121 30.5316C16.4025 30.6841 15.2449 30.5316 15.2449 30.5316Z" fill="black"/>
<path opacity="0.1" d="M19.7821 29.9405C19.7821 29.9405 19.4448 29.8891 19.5271 30.115L19.7821 29.9405Z" fill="black"/>
<path opacity="0.1" d="M13.5124 10.9134H13.33L13.0516 11.9238C13.0516 11.9238 12.9556 12.2765 12.8596 12.3623C12.7635 12.4481 12.946 13.2298 12.946 13.2298C12.946 13.2298 12.8404 13.7827 12.7539 13.9257C12.6675 14.0687 12.8884 14.4214 12.8884 14.4214L13.33 15.4509L14.5014 15.756C14.5014 15.756 16.5656 16.204 16.6616 16.2707C16.7576 16.3375 16.8441 16.2421 16.9113 15.6225C16.9785 15.0029 17.1609 13.8018 17.3049 13.7446C17.3049 13.7446 16.1528 13.8685 16.0568 13.8494C15.9607 13.8304 15.4999 13.859 15.4999 13.859C15.4999 13.859 14.895 13.8208 14.799 13.878C14.703 13.9352 14.9238 13.6012 14.9238 13.6012C14.9642 13.4482 14.9642 13.2875 14.9238 13.1345C14.8566 12.8771 14.8182 9.96011 13.5124 10.9134Z" fill="black"/>
<path opacity="0.1" d="M17.2664 13.859C17.1224 13.9161 16.94 15.1173 16.8728 15.7369C16.8056 16.3565 16.7191 16.4518 16.6231 16.3851C16.5452 16.331 15.1691 16.0251 14.6549 15.9123C14.7359 15.4376 14.7797 14.9075 14.7797 14.9075L13.3203 11.0278H13.4739C14.7797 10.0745 14.8181 12.9915 14.8853 13.2489C14.9257 13.4018 14.9257 13.5626 14.8853 13.7156C14.8853 13.7156 14.6645 14.0496 14.7605 13.9924C14.8565 13.9352 15.4614 13.9733 15.4614 13.9733C15.4614 13.9733 15.9222 13.9447 16.0183 13.9638C16.1143 13.9829 17.2664 13.859 17.2664 13.859Z" fill="black"/>
<path d="M13.4741 10.9515H13.2917L13.0132 11.962C13.0132 11.962 12.9172 12.3147 12.8212 12.4005C12.7252 12.4863 12.9076 13.268 12.9076 13.268C12.9076 13.268 12.802 13.8208 12.7156 13.9638C12.6292 14.1068 12.85 14.4595 12.85 14.4595L13.2917 15.4891L14.463 15.7941C14.463 15.7941 16.5273 16.2421 16.6233 16.3089C16.7193 16.3756 16.8057 16.2803 16.8729 15.6607C16.9401 15.041 17.1226 13.8399 17.2666 13.7827C17.2666 13.7827 16.1144 13.9066 16.0184 13.8876C15.9224 13.8685 15.4616 13.8971 15.4616 13.8971C15.4616 13.8971 14.8567 13.859 14.7607 13.9162C14.6647 13.9734 14.8855 13.6393 14.8855 13.6393C14.9259 13.4863 14.9259 13.3256 14.8855 13.1726C14.8183 12.9152 14.7799 9.99826 13.4741 10.9515Z" fill="url(#paint6_linear_67_4484)"/>
<path opacity="0.1" d="M14.098 14.4023C14.098 14.4023 13.5699 15.3937 13.4739 15.2793C13.3779 15.165 14.098 14.4023 14.098 14.4023Z" fill="black"/>
<path opacity="0.1" d="M13.5509 13.8378C13.5509 13.8378 13.0612 14.2403 13.2916 14.3451C13.5221 14.45 13.5509 13.8378 13.5509 13.8378Z" fill="black"/>
<path opacity="0.1" d="M14.0115 13.3442C14.0499 13.3537 14.722 13.4862 14.7316 13.5439C14.7412 13.6016 14.0115 13.3442 14.0115 13.3442Z" fill="black"/>
<path opacity="0.1" d="M18.6725 6.36098C18.6516 6.36827 18.6338 6.3823 18.6219 6.40082C18.61 6.41935 18.6047 6.4413 18.6068 6.46317C18.5676 6.49749 18.5127 6.45707 18.4808 6.41322C18.4486 6.36975 18.4121 6.31599 18.3633 6.32209C18.3401 6.32942 18.3177 6.33874 18.2961 6.34992C18.2193 6.37432 18.1544 6.28472 18.1114 6.20617C18.0365 6.06852 17.9616 5.93099 17.8867 5.7936C17.7365 5.88015 17.5591 5.7894 17.4101 5.69979C17.2611 5.61019 17.0837 5.51906 16.9331 5.60561C16.7123 5.73221 16.7042 6.15431 16.4753 6.25841C16.4016 6.29196 16.316 6.28472 16.2476 6.33086C16.18 6.37661 16.1435 6.46469 16.1132 6.54896C16.1019 6.59693 16.0756 6.64009 16.0379 6.67212C16.014 6.68455 15.9873 6.69096 15.9603 6.69081C15.8925 6.70226 15.8227 6.69253 15.7606 6.66297C15.7281 6.64267 15.7035 6.61196 15.6909 6.57591C15.6784 6.53985 15.6786 6.50062 15.6915 6.46469C15.6933 6.46089 15.6954 6.45719 15.6976 6.45364C15.7222 6.42411 15.7443 6.39261 15.7637 6.35945C15.7867 6.29883 15.7537 6.22829 15.761 6.1627C15.7729 6.0506 15.8923 5.99149 15.9127 5.8813C15.9211 5.83821 15.9123 5.79207 15.9204 5.7486C15.9215 5.74291 15.923 5.7373 15.925 5.73183L15.8547 5.77987C15.9334 5.68874 15.973 5.56214 16.0306 5.45156C16.0946 5.33049 16.1827 5.22356 16.2895 5.13725C16.3963 5.05093 16.5196 4.98702 16.652 4.94938C16.9024 4.87694 17.167 4.89676 17.4197 4.95815C17.66 5.01759 17.8902 5.11176 18.1029 5.23765C18.1789 5.27811 18.2464 5.3326 18.3019 5.39818C18.3483 5.46618 18.3878 5.5386 18.4198 5.61438C18.4943 5.76767 18.6978 5.90951 18.5358 5.93086C18.401 5.94879 18.5238 6.04259 18.5945 6.10588C18.6105 6.11829 18.6242 6.13324 18.6352 6.15011C18.647 6.17423 18.6523 6.20091 18.6509 6.22765C18.6494 6.25439 18.6411 6.28032 18.6268 6.30302C18.5995 6.33734 18.7101 6.3442 18.6725 6.36098Z" fill="black"/>
<path d="M18.6725 6.32283C18.6516 6.33013 18.6338 6.34416 18.6219 6.36268C18.61 6.3812 18.6047 6.40315 18.6068 6.42502C18.5676 6.45934 18.5127 6.41892 18.4808 6.37507C18.4486 6.3316 18.4121 6.27784 18.3633 6.28394C18.3401 6.29128 18.3177 6.30059 18.2961 6.31178C18.2193 6.33618 18.1544 6.24657 18.1114 6.16802C18.0365 6.03037 17.9616 5.89285 17.8867 5.75545C17.7365 5.84201 17.5591 5.75126 17.4101 5.66165C17.2611 5.57204 17.0837 5.48091 16.9331 5.56747C16.7123 5.69406 16.7042 6.11617 16.4753 6.22026C16.4016 6.25382 16.316 6.24657 16.2476 6.29271C16.18 6.33847 16.1435 6.42655 16.1132 6.51082C16.1019 6.55879 16.0756 6.60194 16.0379 6.63398C16.014 6.6464 15.9873 6.65282 15.9603 6.65266C15.8925 6.66411 15.8227 6.65439 15.7606 6.62483C15.7281 6.60453 15.7035 6.57381 15.6909 6.53776C15.6784 6.50171 15.6786 6.46247 15.6915 6.42655C15.6933 6.42274 15.6954 6.41905 15.6976 6.41549C15.7222 6.38596 15.7443 6.35446 15.7637 6.32131C15.7867 6.26068 15.7537 6.19014 15.761 6.12455C15.7729 6.01245 15.8923 5.95335 15.9127 5.84315C15.9211 5.80006 15.9123 5.75393 15.9204 5.71046C15.9215 5.70476 15.923 5.69915 15.925 5.69368L15.8547 5.74172C15.9334 5.65059 15.973 5.524 16.0306 5.41342C16.0946 5.29235 16.1827 5.18542 16.2895 5.0991C16.3963 5.01279 16.5196 4.94888 16.652 4.91124C16.9024 4.83879 17.167 4.85862 17.4197 4.92001C17.66 4.97945 17.8902 5.07362 18.1029 5.1995C18.1789 5.23997 18.2464 5.29445 18.3019 5.36004C18.3483 5.42803 18.3878 5.50046 18.4198 5.57623C18.4943 5.72952 18.6978 5.87137 18.5358 5.89272C18.401 5.91064 18.5238 6.00444 18.5945 6.06774C18.6105 6.08015 18.6242 6.09509 18.6352 6.11197C18.647 6.13609 18.6523 6.16276 18.6509 6.1895C18.6494 6.21624 18.6411 6.24218 18.6268 6.26487C18.5995 6.29919 18.7101 6.30606 18.6725 6.32283Z" fill="#865A61"/>
<path opacity="0.1" d="M18.5944 6.06774L18.579 6.22827C18.579 6.22827 16.9676 4.20049 15.714 6.49023C15.714 6.49023 15.7079 6.46239 15.6975 6.41549C15.7221 6.38596 15.7442 6.35446 15.7636 6.32131C15.7866 6.26068 15.7536 6.19014 15.7609 6.12455C15.7728 6.01245 15.8922 5.95335 15.9126 5.84315C15.921 5.80006 15.9122 5.75393 15.9203 5.71046C15.9214 5.70476 15.9229 5.69915 15.9249 5.69368L15.8546 5.74172C15.9333 5.65059 15.9729 5.524 16.0305 5.41342C16.0945 5.29235 16.1825 5.18542 16.2893 5.0991C16.3961 5.01279 16.5195 4.94888 16.6519 4.91124C16.9023 4.83879 17.1669 4.85862 17.4196 4.92001C17.6599 4.97945 17.8901 5.07362 18.1028 5.1995C18.1788 5.23997 18.2463 5.29445 18.3017 5.36004C18.3482 5.42803 18.3877 5.50046 18.4196 5.57623C18.4942 5.72952 18.6977 5.87137 18.5356 5.89272C18.4008 5.91064 18.5237 6.00444 18.5944 6.06774Z" fill="black"/>
<g opacity="0.1">
<path opacity="0.1" d="M18.6343 6.30206C18.6264 6.31093 18.6206 6.3215 18.6174 6.33294C18.6142 6.34439 18.6138 6.35641 18.616 6.36806C18.5769 6.40238 18.5219 6.36196 18.4901 6.31811C18.4578 6.27464 18.4213 6.22088 18.3725 6.22698C18.3494 6.23431 18.3269 6.24363 18.3053 6.25481C18.2285 6.27922 18.1636 6.18961 18.1206 6.11106C18.0457 5.97341 17.9708 5.83589 17.8959 5.69849C17.7458 5.78504 17.5683 5.69429 17.4193 5.60469C17.2703 5.51508 17.0929 5.42395 16.9424 5.5105C16.7215 5.6371 16.7135 6.0592 16.4846 6.1633C16.4108 6.19685 16.3252 6.18961 16.2568 6.23575C16.1892 6.2815 16.1527 6.36958 16.1224 6.45385C16.1112 6.50182 16.0848 6.54498 16.0471 6.57701C16.0232 6.58944 15.9966 6.59586 15.9696 6.5957C15.9017 6.60715 15.8319 6.59742 15.7699 6.56786C15.7327 6.54337 15.706 6.506 15.695 6.46304C15.6874 6.4972 15.6905 6.53286 15.7038 6.56523C15.7172 6.5976 15.7403 6.62513 15.7699 6.64412C15.8319 6.67369 15.9017 6.68341 15.9696 6.67196C15.9966 6.67212 16.0232 6.6657 16.0471 6.65328C16.0848 6.62124 16.1112 6.57808 16.1224 6.53011C16.1527 6.44585 16.1892 6.35776 16.2568 6.31201C16.3252 6.26587 16.4108 6.27311 16.4846 6.23956C16.7135 6.13546 16.7215 5.71336 16.9424 5.58677C17.0929 5.50021 17.2703 5.59134 17.4193 5.68095C17.5683 5.77055 17.7458 5.86131 17.8959 5.77475C17.9708 5.91202 18.0457 6.04954 18.1206 6.18732C18.1636 6.26587 18.2285 6.35547 18.3053 6.33107C18.3269 6.31989 18.3494 6.31058 18.3725 6.30324C18.4213 6.29714 18.4578 6.3509 18.4901 6.39437C18.5219 6.43822 18.5769 6.47864 18.616 6.44432C18.6139 6.42245 18.6192 6.4005 18.6311 6.38198C18.643 6.36345 18.6608 6.34942 18.6817 6.34213C18.7116 6.32879 18.648 6.32167 18.6343 6.30206Z" fill="black"/>
<path opacity="0.1" d="M18.5087 5.92111C18.5203 5.91647 18.5325 5.91341 18.545 5.91202C18.6164 5.9026 18.6167 5.86973 18.5884 5.82281C18.575 5.83002 18.5602 5.83442 18.545 5.83576C18.4679 5.84601 18.4752 5.88111 18.5087 5.92111Z" fill="black"/>
<path opacity="0.1" d="M18.6562 6.24052C18.6616 6.21593 18.6615 6.19048 18.6558 6.16595C18.6523 6.18116 18.6456 6.19546 18.636 6.20793C18.6238 6.22307 18.6389 6.23286 18.6562 6.24052Z" fill="black"/>
<path opacity="0.1" d="M15.7722 6.13068C15.7714 6.13504 15.7705 6.13934 15.77 6.14387C15.7684 6.17821 15.771 6.21261 15.7776 6.24636C15.7822 6.20777 15.7804 6.16871 15.7722 6.13068Z" fill="black"/>
<path opacity="0.1" d="M15.9294 5.66547C15.911 5.69946 15.8891 5.73149 15.864 5.76104L15.9269 5.71867C15.9266 5.7009 15.9274 5.68313 15.9294 5.66547Z" fill="black"/>
</g>
<path d="M15.7142 6.45207C15.7142 6.45207 15.4824 5.42354 15.5562 5.25859C15.5562 5.25859 15.356 4.85106 15.356 4.75403C15.3463 4.59211 15.2956 4.43525 15.2086 4.29798C15.1032 4.13303 14.9874 3.36649 15.6194 3.18213C16.2514 2.99777 16.7359 2.83282 16.8096 2.70668C16.8834 2.58054 17.9683 2.65816 18.2632 3.14332C18.5582 3.62847 18.7478 3.53144 18.7478 3.53144C18.7478 3.53144 19.2007 3.81283 19.2007 4.06511C19.2007 4.31739 19.0638 4.44353 19.2007 4.50175C19.3376 4.55997 19.2323 5.6079 18.6319 5.63701L18.5792 6.19008C18.5792 6.19008 16.9676 4.16214 15.7142 6.45207Z" fill="url(#paint7_linear_67_4484)"/>
<path opacity="0.1" d="M15.7831 3.38257C15.7831 3.38257 15.6439 4.19284 15.8983 4.46452L15.7831 3.38257Z" fill="black"/>
<path opacity="0.1" d="M16.4359 3.19672C16.4359 3.19672 16.0807 4.06419 16.1671 4.23101L16.4359 3.19672Z" fill="black"/>
<path opacity="0.1" d="M16.7433 2.92023C16.7433 2.92023 16.5032 4.04984 16.6184 4.14041L16.7433 2.92023Z" fill="black"/>
<path opacity="0.1" d="M17.1561 3.22528C17.1561 3.22528 16.8585 3.94976 16.9785 4.04985L17.1561 3.22528Z" fill="black"/>
<path opacity="0.1" d="M17.7179 3.3111C17.7179 3.3111 17.3674 3.90212 17.4394 4.00698L17.7179 3.3111Z" fill="black"/>
<path opacity="0.1" d="M18.4377 3.88782C18.4377 3.88782 18.0632 3.98791 18.14 4.10707L18.4377 3.88782Z" fill="black"/>
<path opacity="0.1" d="M18.7931 4.50269C18.7931 4.50269 18.457 4.66474 18.5194 4.75053L18.7931 4.50269Z" fill="black"/>
<path opacity="0.1" d="M15.5562 5.25865C15.5562 5.25865 17.7025 4.39304 18.6319 5.63707C18.6319 5.63707 17.5038 4.68479 15.5562 5.25865Z" fill="black"/>
<path d="M14.7805 12.3711L15.0796 12.0707L15.9252 12.9005L15.6261 13.201L14.8484 12.4378L14.7805 12.3711Z" fill="#53526B"/>
<path d="M12.8184 10.4454C12.8184 10.4454 14.1273 10.556 15.3456 11.9175L14.8379 12.4275L12.8184 10.4454Z" fill="#DFE6F5"/>
<path d="M16.7446 12.8798C16.7446 12.8798 15.4865 12.4244 15.3629 12.3155C15.2392 12.2066 14.512 12.8402 15.3992 13.7014C15.3992 13.7014 16.4841 14.0083 16.7744 13.7014C17.0646 13.3945 16.7446 12.8798 16.7446 12.8798Z" fill="#FDC2CC"/>
<path d="M40.0332 21.5829H39.7773V27.2978H40.0332V21.5829Z" fill="#535461"/>
<path d="M41.6399 27.2804L41.6237 27.5378L41.6011 27.901L41.5918 28.0526L41.5692 28.4162L41.5594 28.5677L41.5368 28.931L41.2788 33.063C41.2677 33.2408 41.1888 33.4076 41.0581 33.5296C40.9274 33.6516 40.7547 33.7196 40.5753 33.7196H39.2352C39.0559 33.7195 38.8833 33.6516 38.7527 33.5296C38.622 33.4076 38.5432 33.2407 38.5322 33.063L38.2738 28.931L38.2512 28.5677L38.2418 28.4162L38.2188 28.0526L38.2094 27.901L38.1868 27.5378L38.1706 27.2804C38.1676 27.231 38.1747 27.1815 38.1916 27.135C38.2086 27.0884 38.2349 27.0458 38.2691 27.0098C38.3032 26.9737 38.3445 26.945 38.3902 26.9254C38.436 26.9057 38.4853 26.8956 38.5352 26.8956H41.2758C41.3257 26.8956 41.375 26.9058 41.4207 26.9254C41.4664 26.945 41.5076 26.9738 41.5417 27.0098C41.5758 27.0459 41.6021 27.0885 41.619 27.135C41.6359 27.1816 41.643 27.2311 41.6399 27.2804Z" fill="#65617D"/>
<path d="M41.6237 27.5378L41.6011 27.901H38.2094L38.1868 27.5378H41.6237Z" fill="#9D9CB5"/>
<path d="M41.5917 28.0526L41.5691 28.4162H38.2418L38.2188 28.0526H41.5917Z" fill="#9D9CB5"/>
<path d="M41.5594 28.5677L41.5368 28.9309H38.2738L38.2512 28.5677H41.5594Z" fill="#9D9CB5"/>
<path d="M37.7963 23.725C39.2853 24.7944 39.9052 26.4671 39.9052 26.4671C39.9052 26.4671 38.1111 26.4061 36.6221 25.3367C35.1331 24.2673 34.5132 22.5945 34.5132 22.5945C34.5132 22.5945 36.3073 22.6556 37.7963 23.725Z" fill="url(#paint8_linear_67_4484)"/>
<path d="M34.5132 22.5945C34.5132 22.5945 36.3754 23.6209 36.9728 24.4706C37.5702 25.3202 39.9052 26.4671 39.9052 26.4671" stroke="#535461" stroke-width="2" stroke-miterlimit="10"/>
<path d="M38.7574 21.5703C39.5679 22.1524 39.9053 23.0628 39.9053 23.0628C39.9053 23.0628 38.9288 23.0296 38.1183 22.4475C37.3079 21.8655 36.9705 20.955 36.9705 20.955C36.9705 20.955 37.947 20.9883 38.7574 21.5703Z" fill="url(#paint9_linear_67_4484)"/>
<path d="M36.9705 20.955C36.9705 20.955 37.9841 21.5136 38.3092 21.9761C38.6344 22.4386 39.9053 23.0628 39.9053 23.0628" stroke="#535461" stroke-width="2" stroke-miterlimit="10"/>
<path d="M41.0831 23.0165C40.1522 24.0323 39.9553 25.3596 39.9553 25.3596C39.9553 25.3596 41.2676 25.0399 42.1985 24.0241C43.1294 23.0082 43.3263 21.681 43.3263 21.681C43.3263 21.681 42.014 22.0007 41.0831 23.0165Z" fill="url(#paint10_linear_67_4484)"/>
<path d="M43.3263 21.681C43.3263 21.681 42.1137 22.7222 41.8056 23.4397C41.4974 24.1571 39.9553 25.3596 39.9553 25.3596" stroke="#535461" stroke-width="2" stroke-miterlimit="10"/>
<defs>
<linearGradient id="paint0_linear_67_4484" x1="-3.90025e-08" y1="32.6589" x2="12.2617" y2="48.7922" gradientUnits="userSpaceOnUse">
<stop stop-color="#BFC3FC"/>
<stop offset="1" stop-color="#A2C3FC"/>
</linearGradient>
<linearGradient id="paint1_linear_67_4484" x1="2.51965" y1="0.473045" x2="33.8011" y2="2.70416" gradientUnits="userSpaceOnUse">
<stop stop-color="#BFC3FC"/>
<stop offset="1" stop-color="#A2C3FC"/>
</linearGradient>
<linearGradient id="paint2_linear_67_4484" x1="35.4326" y1="33.2656" x2="42.4249" y2="36.9716" gradientUnits="userSpaceOnUse">
<stop stop-color="#BFC3FC"/>
<stop offset="1" stop-color="#A2C3FC"/>
</linearGradient>
<linearGradient id="paint3_linear_67_4484" x1="17.4494" y1="33.7112" x2="17.4494" y2="2.51709" gradientUnits="userSpaceOnUse">
<stop stop-color="#808080" stop-opacity="0.25"/>
<stop offset="0.53514" stop-color="#808080" stop-opacity="0.12"/>
<stop offset="1" stop-color="#808080" stop-opacity="0.1"/>
</linearGradient>
<linearGradient id="paint4_linear_67_4484" x1="13.2915" y1="8.46106" x2="21.4954" y2="8.69586" gradientUnits="userSpaceOnUse">
<stop stop-color="#BFC3FC"/>
<stop offset="1" stop-color="#A2C3FC"/>
</linearGradient>
<linearGradient id="paint5_linear_67_4484" x1="17.1477" y1="10.4655" x2="22.4221" y2="10.7067" gradientUnits="userSpaceOnUse">
<stop stop-color="#BFC3FC"/>
<stop offset="1" stop-color="#A2C3FC"/>
</linearGradient>
<linearGradient id="paint6_linear_67_4484" x1="12.6956" y1="10.8949" x2="17.4673" y2="11.0774" gradientUnits="userSpaceOnUse">
<stop stop-color="#BFC3FC"/>
<stop offset="1" stop-color="#A2C3FC"/>
</linearGradient>
<linearGradient id="paint7_linear_67_4484" x1="15.1255" y1="2.74462" x2="19.4306" y2="2.96244" gradientUnits="userSpaceOnUse">
<stop stop-color="#BFC3FC"/>
<stop offset="1" stop-color="#A2C3FC"/>
</linearGradient>
<linearGradient id="paint8_linear_67_4484" x1="34.5132" y1="22.6879" x2="40.1266" y2="23.0518" gradientUnits="userSpaceOnUse">
<stop stop-color="#BFC3FC"/>
<stop offset="1" stop-color="#A2C3FC"/>
</linearGradient>
<linearGradient id="paint9_linear_67_4484" x1="36.9705" y1="21.0058" x2="40.0258" y2="21.2039" gradientUnits="userSpaceOnUse">
<stop stop-color="#BFC3FC"/>
<stop offset="1" stop-color="#A2C3FC"/>
</linearGradient>
<linearGradient id="paint10_linear_67_4484" x1="39.9553" y1="21.7696" x2="43.473" y2="21.9197" gradientUnits="userSpaceOnUse">
<stop stop-color="#BFC3FC"/>
<stop offset="1" stop-color="#A2C3FC"/>
</linearGradient>
</defs>
</svg>
