<svg width="44" height="30" viewBox="0 0 44 30" fill="none" xmlns="http://www.w3.org/2000/svg">
<path d="M9.75011 3.00513H6.94415C6.67439 3.00537 6.41574 3.10916 6.22499 3.29373C6.03424 3.4783 5.92697 3.72855 5.92672 3.98957V6.93305C5.89085 6.93097 5.85498 6.92787 5.81963 6.92372C5.15487 6.85605 4.52287 6.61004 3.99489 6.21343C3.4669 5.81681 3.06392 5.28537 2.83139 4.67902C2.59886 4.07266 2.54602 3.41551 2.67883 2.78165C2.81164 2.1478 3.12482 1.56244 3.58305 1.09159C4.04129 0.620736 4.62636 0.283108 5.2723 0.116772C5.91824 -0.049564 6.59936 -0.0379935 7.23887 0.15018C7.87837 0.338353 8.45083 0.695646 8.8917 1.18177C9.33257 1.6679 9.62432 2.26353 9.73405 2.90151C9.73994 2.9357 9.7453 2.97042 9.75011 3.00513Z" fill="#F2F2F2"/>
<path d="M42.8754 2.90149H6.94411C6.64596 2.9018 6.36013 3.01654 6.14931 3.22052C5.93849 3.42451 5.81991 3.70108 5.81958 3.98955V22.3312C5.81991 22.6197 5.93849 22.8963 6.14931 23.1002C6.36013 23.3042 6.64596 23.419 6.94411 23.4193H42.8754C43.1735 23.419 43.4594 23.3042 43.6702 23.1002C43.881 22.8963 43.9996 22.6197 43.9999 22.3312V3.98955C43.9996 3.70108 43.881 3.42451 43.6702 3.22052C43.4594 3.01654 43.1735 2.9018 42.8754 2.90149ZM43.8928 22.3312C43.8926 22.5922 43.7853 22.8425 43.5945 23.0271C43.4038 23.2116 43.1451 23.3154 42.8754 23.3157H6.94411C6.67434 23.3154 6.4157 23.2116 6.22495 23.0271C6.03419 22.8425 5.92692 22.5922 5.92668 22.3312V3.98955C5.92692 3.72854 6.03419 3.47828 6.22495 3.29371C6.4157 3.10914 6.67434 3.00535 6.94411 3.00511H42.8754C43.1451 3.00535 43.4038 3.10914 43.5945 3.29371C43.7853 3.47828 43.8926 3.72854 43.8928 3.98955V22.3312Z" fill="#3F3D56"/>
<path d="M41.1086 5.87395H8.71151C8.69731 5.87395 8.68369 5.86849 8.67364 5.85878C8.6636 5.84906 8.65796 5.83588 8.65796 5.82214C8.65796 5.8084 8.6636 5.79522 8.67364 5.7855C8.68369 5.77578 8.69731 5.77032 8.71151 5.77032H41.1086C41.1228 5.77032 41.1364 5.77578 41.1464 5.7855C41.1565 5.79522 41.1621 5.8084 41.1621 5.82214C41.1621 5.83588 41.1565 5.84906 41.1464 5.85878C41.1364 5.86849 41.1228 5.87395 41.1086 5.87395Z" fill="#3F3D56"/>
<path d="M17.868 21.1914C17.8538 21.1914 17.8402 21.1859 17.8301 21.1762C17.8201 21.1665 17.8145 21.1533 17.8145 21.1395V4.09319C17.8145 4.07945 17.8201 4.06627 17.8301 4.05656C17.8402 4.04684 17.8538 4.04138 17.868 4.04138C17.8822 4.04138 17.8958 4.04684 17.9059 4.05656C17.9159 4.06627 17.9216 4.07945 17.9216 4.09319V21.1395C17.9216 21.1533 17.9159 21.1665 17.9059 21.1762C17.8958 21.1859 17.8822 21.1914 17.868 21.1914Z" fill="#3F3D56"/>
<path d="M25.9539 21.1914C25.9397 21.1914 25.9261 21.1859 25.9161 21.1762C25.906 21.1665 25.9004 21.1533 25.9004 21.1395V4.09319C25.9004 4.07945 25.906 4.06627 25.9161 4.05656C25.9261 4.04684 25.9397 4.04138 25.9539 4.04138C25.9681 4.04138 25.9818 4.04684 25.9918 4.05656C26.0018 4.06627 26.0075 4.07945 26.0075 4.09319V21.1395C26.0075 21.1533 26.0018 21.1665 25.9918 21.1762C25.9818 21.1859 25.9681 21.1914 25.9539 21.1914Z" fill="#3F3D56"/>
<path d="M34.0399 21.1914C34.0257 21.1914 34.0121 21.1859 34.002 21.1762C33.992 21.1665 33.9863 21.1533 33.9863 21.1395V4.09319C33.9863 4.07945 33.992 4.06627 34.002 4.05656C34.0121 4.04684 34.0257 4.04138 34.0399 4.04138C34.0541 4.04138 34.0677 4.04684 34.0777 4.05656C34.0878 4.06627 34.0934 4.07945 34.0934 4.09319V21.1395C34.0934 21.1533 34.0878 21.1665 34.0777 21.1762C34.0677 21.1859 34.0541 21.1914 34.0399 21.1914Z" fill="#3F3D56"/>
<path d="M12.6693 11.2219H10.7126C10.6488 11.2219 10.5875 11.1973 10.5423 11.1536C10.4972 11.1099 10.4718 11.0506 10.4717 10.9888V8.75464C10.4718 8.69283 10.4972 8.63356 10.5423 8.58985C10.5875 8.54614 10.6488 8.52155 10.7126 8.52148H12.6693C12.7332 8.52155 12.7945 8.54614 12.8396 8.58985C12.8848 8.63356 12.9102 8.69283 12.9103 8.75464V10.9888C12.9102 11.0506 12.8848 11.1099 12.8396 11.1536C12.7945 11.1973 12.7332 11.2219 12.6693 11.2219Z" fill="url(#paint0_linear_67_4581)"/>
<path d="M15.454 17.5949H13.4973C13.4334 17.5949 13.3722 17.5703 13.327 17.5266C13.2818 17.4828 13.2564 17.4236 13.2563 17.3618V15.1276C13.2564 15.0658 13.2818 15.0065 13.327 14.9628C13.3722 14.9191 13.4334 14.8945 13.4973 14.8945H15.454C15.5179 14.8945 15.5791 14.9191 15.6243 14.9628C15.6695 15.0065 15.6949 15.0658 15.695 15.1276V17.3618C15.6949 17.4236 15.6695 17.4828 15.6243 17.5266C15.5791 17.5703 15.5179 17.5949 15.454 17.5949Z" fill="url(#paint1_linear_67_4581)"/>
<path d="M21.7726 12.5691H19.8159C19.752 12.569 19.6908 12.5444 19.6456 12.5007C19.6004 12.457 19.575 12.3978 19.575 12.3359V10.1018C19.575 10.04 19.6004 9.98073 19.6456 9.93702C19.6908 9.89331 19.752 9.86872 19.8159 9.86865H21.7726C21.8365 9.86872 21.8977 9.89331 21.9429 9.93702C21.9881 9.98073 22.0135 10.04 22.0136 10.1018V12.336C22.0135 12.3978 21.9881 12.457 21.9429 12.5007C21.8977 12.5444 21.8365 12.569 21.7726 12.5691Z" fill="url(#paint2_linear_67_4581)"/>
<path d="M29.9657 10.1339H28.009C27.9451 10.1339 27.8839 10.1093 27.8387 10.0656C27.7935 10.0218 27.7681 9.96258 27.7681 9.90077V7.66663C27.7681 7.60481 27.7935 7.54555 27.8387 7.50184C27.8839 7.45813 27.9451 7.43354 28.009 7.43347H29.9657C30.0296 7.43354 30.0908 7.45813 30.136 7.50184C30.1812 7.54555 30.2066 7.60481 30.2067 7.66663V9.90077C30.2066 9.96258 30.1812 10.0218 30.136 10.0656C30.0908 10.1093 30.0296 10.1339 29.9657 10.1339Z" fill="url(#paint3_linear_67_4581)"/>
<path d="M37.516 10.1339H35.5593C35.4954 10.1339 35.4342 10.1093 35.389 10.0656C35.3438 10.0218 35.3184 9.96258 35.3184 9.90077V7.66663C35.3184 7.60481 35.3438 7.54555 35.389 7.50184C35.4342 7.45813 35.4954 7.43354 35.5593 7.43347H37.516C37.5799 7.43354 37.6411 7.45813 37.6863 7.50184C37.7315 7.54555 37.7569 7.60481 37.757 7.66663V9.90077C37.7569 9.96258 37.7315 10.0218 37.6863 10.0656C37.6411 10.1093 37.5799 10.1339 37.516 10.1339Z" fill="url(#paint4_linear_67_4581)"/>
<path d="M40.9967 10.7556H39.04C38.9762 10.7556 38.9149 10.731 38.8697 10.6873C38.8246 10.6436 38.7991 10.5843 38.7991 10.5225V8.28833C38.7991 8.22652 38.8246 8.16725 38.8697 8.12354C38.9149 8.07983 38.9762 8.05525 39.04 8.05518H40.9967C41.0606 8.05525 41.1219 8.07983 41.167 8.12354C41.2122 8.16725 41.2376 8.22652 41.2377 8.28833V10.5225C41.2376 10.5843 41.2122 10.6436 41.167 10.6873C41.1219 10.731 41.0606 10.7556 40.9967 10.7556Z" fill="#E6E6E6"/>
<path d="M39.4437 14.7452H37.4871C37.4232 14.7451 37.3619 14.7205 37.3167 14.6768C37.2716 14.6331 37.2462 14.5739 37.2461 14.512V12.2779C37.2462 12.2161 37.2716 12.1568 37.3167 12.1131C37.3619 12.0694 37.4232 12.0448 37.4871 12.0447H39.4437C39.5076 12.0448 39.5689 12.0694 39.614 12.1131C39.6592 12.1568 39.6846 12.2161 39.6847 12.2779V14.512C39.6846 14.5739 39.6592 14.6331 39.614 14.6768C39.5689 14.7205 39.5076 14.7451 39.4437 14.7452Z" fill="#E6E6E6"/>
<path d="M32.8038 13.9162H30.8472C30.7833 13.9161 30.722 13.8916 30.6769 13.8478C30.6317 13.8041 30.6063 13.7449 30.6062 13.6831V11.4489C30.6063 11.3871 30.6317 11.3278 30.6769 11.2841C30.722 11.2404 30.7833 11.2158 30.8472 11.2158H32.8038C32.8677 11.2158 32.929 11.2404 32.9742 11.2841C33.0193 11.3278 33.0447 11.3871 33.0448 11.4489V13.6831C33.0447 13.7449 33.0193 13.8041 32.9742 13.8478C32.929 13.8916 32.8677 13.9161 32.8038 13.9162Z" fill="#FF6584"/>
<path d="M29.0018 14.7452H27.0452C26.9813 14.7451 26.92 14.7205 26.8749 14.6768C26.8297 14.6331 26.8043 14.5739 26.8042 14.512V12.2779C26.8043 12.2161 26.8297 12.1568 26.8749 12.1131C26.92 12.0694 26.9813 12.0448 27.0452 12.0447H29.0018C29.0657 12.0448 29.127 12.0694 29.1722 12.1131C29.2173 12.1568 29.2427 12.2161 29.2428 12.2779V14.512C29.2427 14.5739 29.2173 14.6331 29.1722 14.6768C29.127 14.7205 29.0657 14.7451 29.0018 14.7452Z" fill="#E6E6E6"/>
<path d="M20.809 18.2685H18.8523C18.7884 18.2684 18.7272 18.2438 18.682 18.2001C18.6368 18.1564 18.6114 18.0972 18.6113 18.0354V15.8012C18.6114 15.7394 18.6368 15.6801 18.682 15.6364C18.7272 15.5927 18.7884 15.5681 18.8523 15.5681H20.809C20.8729 15.5681 20.9341 15.5927 20.9793 15.6364C21.0245 15.6801 21.0499 15.7394 21.0499 15.8012V18.0354C21.0499 18.0972 21.0245 18.1564 20.9793 18.2001C20.9341 18.2439 20.8729 18.2684 20.809 18.2685Z" fill="#E6E6E6"/>
<path d="M10.9022 15.3151H8.94556C8.88167 15.3151 8.82042 15.2905 8.77525 15.2468C8.73007 15.2031 8.70466 15.1438 8.70459 15.082V12.8478C8.70466 12.786 8.73007 12.7268 8.77525 12.683C8.82042 12.6393 8.88167 12.6148 8.94556 12.6147H10.9022C10.9661 12.6148 11.0274 12.6393 11.0725 12.683C11.1177 12.7268 11.1431 12.786 11.1432 12.8478V15.082C11.1431 15.1438 11.1177 15.2031 11.0725 15.2468C11.0274 15.2905 10.9661 15.3151 10.9022 15.3151Z" fill="#FF6584"/>
<path d="M16.4176 11.2219H14.4609C14.3971 11.2219 14.3358 11.1973 14.2906 11.1536C14.2455 11.1099 14.22 11.0506 14.22 10.9888V8.75464C14.22 8.69283 14.2455 8.63356 14.2906 8.58985C14.3358 8.54614 14.3971 8.52155 14.4609 8.52148H16.4176C16.4815 8.52155 16.5428 8.54614 16.5879 8.58985C16.6331 8.63356 16.6585 8.69283 16.6586 8.75464V10.9888C16.6585 11.0506 16.6331 11.1099 16.5879 11.1536C16.5428 11.1973 16.4815 11.2219 16.4176 11.2219Z" fill="#E6E6E6"/>
<path d="M14.816 5.02583H11.7638C11.7069 5.02583 11.6525 5.00399 11.6123 4.96513C11.5721 4.92626 11.5496 4.87354 11.5496 4.81858C11.5496 4.76361 11.5721 4.7109 11.6123 4.67203C11.6525 4.63316 11.7069 4.61133 11.7638 4.61133H14.816C14.8728 4.61133 14.9273 4.63316 14.9675 4.67203C15.0077 4.7109 15.0302 4.76361 15.0302 4.81858C15.0302 4.87354 15.0077 4.92626 14.9675 4.96513C14.9273 5.00399 14.8728 5.02583 14.816 5.02583Z" fill="#CCCCCC"/>
<path d="M23.4374 5.02583H20.3851C20.3283 5.02583 20.2738 5.00399 20.2336 4.96513C20.1935 4.92626 20.1709 4.87354 20.1709 4.81858C20.1709 4.76361 20.1935 4.7109 20.2336 4.67203C20.2738 4.63316 20.3283 4.61133 20.3851 4.61133H23.4374C23.4942 4.61133 23.5487 4.63316 23.5888 4.67203C23.629 4.7109 23.6516 4.76361 23.6516 4.81858C23.6516 4.87354 23.629 4.92626 23.5888 4.96513C23.5487 5.00399 23.4942 5.02583 23.4374 5.02583Z" fill="#CCCCCC"/>
<path d="M31.5231 5.02583H28.4708C28.414 5.02583 28.3595 5.00399 28.3193 4.96513C28.2792 4.92626 28.2566 4.87354 28.2566 4.81858C28.2566 4.76361 28.2792 4.7109 28.3193 4.67203C28.3595 4.63316 28.414 4.61133 28.4708 4.61133H31.5231C31.5799 4.61133 31.6344 4.63316 31.6745 4.67203C31.7147 4.7109 31.7373 4.76361 31.7373 4.81858C31.7373 4.87354 31.7147 4.92626 31.6745 4.96513C31.6344 5.00399 31.5799 5.02583 31.5231 5.02583Z" fill="#CCCCCC"/>
<path d="M39.0736 5.02583H36.0213C35.9645 5.02583 35.91 5.00399 35.8699 4.96513C35.8297 4.92626 35.8071 4.87354 35.8071 4.81858C35.8071 4.76361 35.8297 4.7109 35.8699 4.67203C35.91 4.63316 35.9645 4.61133 36.0213 4.61133H39.0736C39.1304 4.61133 39.1849 4.63316 39.2251 4.67203C39.2652 4.7109 39.2878 4.76361 39.2878 4.81858C39.2878 4.87354 39.2652 4.92626 39.2251 4.96513C39.1849 5.00399 39.1304 5.02583 39.0736 5.02583Z" fill="#CCCCCC"/>
<path d="M7.97936 20.2013C7.90101 20.1939 7.8253 20.1699 7.75756 20.1311C7.68981 20.0923 7.63169 20.0396 7.58727 19.9767C7.54285 19.9139 7.51323 19.8423 7.50048 19.7671C7.48773 19.692 7.49217 19.615 7.51348 19.5417L6.14087 18.3054L6.8666 18.1273L8.21634 19.1865C8.34128 19.2293 8.44564 19.315 8.50966 19.4273C8.57368 19.5396 8.59291 19.6707 8.56369 19.7958C8.53448 19.9208 8.45886 20.0312 8.35117 20.106C8.24347 20.1807 8.11118 20.2146 7.97936 20.2013Z" fill="#FFB8B8"/>
<path d="M9.87462 29.339H10.5311L10.8434 26.8889H9.87451L9.87462 29.339Z" fill="#FFB8B8"/>
<path d="M11.7976 29.9288L9.73433 29.9289L9.73429 29.1576L11.0004 29.1575C11.2118 29.1575 11.4146 29.2388 11.5641 29.3834C11.7136 29.5281 11.7976 29.7243 11.7976 29.9288L11.7976 29.9288Z" fill="#2F2E41"/>
<path d="M5.37354 28.8804L6.00798 29.0438L6.96121 26.7539L6.0249 26.5128L5.37354 28.8804Z" fill="#FFB8B8"/>
<path d="M7.07471 29.929L5.08086 29.4155L5.28591 28.6701L6.50941 28.9852C6.71372 29.0379 6.88805 29.1669 6.99407 29.3438C7.10008 29.5208 7.12909 29.7313 7.07471 29.929Z" fill="#2F2E41"/>
<path d="M10.708 28.8752H9.70623C9.64295 28.8754 9.58188 28.8527 9.53505 28.8115C9.48821 28.7704 9.45899 28.7137 9.45315 28.6528L8.84502 22.5424C8.84057 22.4976 8.82015 22.4557 8.78727 22.4238C8.75439 22.3919 8.71108 22.3721 8.66477 22.3677C8.61845 22.3634 8.572 22.3747 8.53337 22.3998C8.49474 22.4249 8.46633 22.4622 8.45299 22.5054L6.6873 28.2151C6.66863 28.2758 6.62646 28.3271 6.56959 28.3585C6.51272 28.3898 6.44555 28.3987 6.38208 28.3833L5.45016 28.1578C5.41763 28.1499 5.38704 28.1359 5.36013 28.1166C5.33323 28.0972 5.31054 28.0729 5.29338 28.045C5.27622 28.0172 5.26493 27.9863 5.26016 27.9542C5.25539 27.9221 5.25722 27.8894 5.26556 27.858C5.28078 27.8004 6.78692 22.1053 6.80007 22.0467C7.14133 19.6132 7.5496 18.9611 7.76893 18.6108C7.78709 18.5818 7.80377 18.5552 7.81879 18.53C7.83759 18.4984 7.95333 18.1857 8.02675 17.9826C8.03629 17.9496 8.0528 17.9188 8.07524 17.8922C8.09769 17.8657 8.12558 17.8439 8.15715 17.8283C9.07876 17.3723 10.1571 17.688 10.4656 17.7956C10.5167 17.813 10.5607 17.846 10.5908 17.8896C11.5164 19.2405 11.0621 27.0859 10.9617 28.645C10.9575 28.7073 10.929 28.7658 10.8818 28.8086C10.8347 28.8513 10.7726 28.8751 10.708 28.8752Z" fill="#2F2E41"/>
<path d="M8.12283 13.398C8.8492 13.398 9.43805 12.8282 9.43805 12.1254C9.43805 11.4226 8.8492 10.8528 8.12283 10.8528C7.39646 10.8528 6.80762 11.4226 6.80762 12.1254C6.80762 12.8282 7.39646 13.398 8.12283 13.398Z" fill="#FFB8B8"/>
<path d="M7.98341 18.2297L7.97396 18.2208C7.95623 18.2042 6.20387 16.5431 6.43065 15.0072C6.52764 14.3502 7.077 13.9304 8.01932 13.7931C8.36551 13.7434 8.71863 13.8162 9.01376 13.9982C9.30889 14.1803 9.52621 14.4592 9.62578 14.7839L10.5575 17.8659L7.98341 18.2297Z" fill="#CCCCCC"/>
<path d="M7.08646 19.4111L5.83779 18.2106C5.75241 18.128 5.69042 18.0256 5.65779 17.9131C5.62516 17.8007 5.62297 17.682 5.65145 17.5685L6.25594 15.1893C6.27405 15.118 6.30709 15.0511 6.35301 14.9927C6.39893 14.9342 6.45676 14.8855 6.52292 14.8496C6.58908 14.8136 6.66216 14.7912 6.73763 14.7837C6.81311 14.7762 6.88938 14.7837 6.96171 14.8059C7.09959 14.8489 7.21475 14.9421 7.28281 15.0659C7.35087 15.1896 7.36648 15.3341 7.32633 15.4688L6.68993 17.5618L7.71905 18.6311L7.08646 19.4111Z" fill="#CCCCCC"/>
<path d="M13.784 15.3139C13.751 15.383 13.7027 15.4443 13.6426 15.4935C13.5824 15.5426 13.5119 15.5784 13.4359 15.5983C13.3599 15.6182 13.2803 15.6217 13.2028 15.6086C13.1252 15.5956 13.0516 15.5662 12.987 15.5226L11.3201 16.3586L11.3937 15.6484L12.8715 14.7635C12.9544 14.6635 13.0723 14.5963 13.203 14.5747C13.3336 14.5532 13.4679 14.5787 13.5804 14.6465C13.6929 14.7144 13.7757 14.8198 13.8133 14.9428C13.8508 15.0658 13.8404 15.1978 13.784 15.3139H13.784Z" fill="#FFB8B8"/>
<path d="M12.8047 15.8424L11.1797 16.5219C11.0715 16.5668 10.9532 16.5839 10.8362 16.5718C10.7192 16.5596 10.6074 16.5186 10.5115 16.4525L8.44515 15.02C8.38348 14.9772 8.33153 14.9227 8.29252 14.8597C8.25351 14.7967 8.22828 14.7267 8.21837 14.6539C8.20846 14.5811 8.2141 14.5071 8.23493 14.4365C8.25576 14.366 8.29134 14.3003 8.33947 14.2435C8.43195 14.1356 8.56422 14.0668 8.70824 14.0516C8.85226 14.0365 8.99673 14.0761 9.11103 14.1623L10.8829 15.5116L12.2912 14.9844L12.8047 15.8424Z" fill="#CCCCCC"/>
<path d="M8.34073 12.5332C8.50298 12.3365 8.80611 12.3259 9.02899 12.1962C9.32092 12.0262 9.44162 11.6464 9.34754 11.3296C9.25346 11.0127 8.97602 10.7658 8.65792 10.6477C8.33982 10.5296 7.98591 10.5281 7.65035 10.5852C7.15073 10.6702 6.65883 10.8958 6.35412 11.2883C6.0494 11.6807 5.97185 12.2554 6.24801 12.6671C6.37494 12.8564 6.57087 13.0126 6.62154 13.2328C6.68806 13.5219 6.47849 13.8007 6.25397 14.002C5.99818 14.2313 5.70472 14.4234 5.48062 14.6819C5.25652 14.9404 5.10708 15.2936 5.20934 15.6162C5.29502 15.8865 5.54434 16.0856 5.81773 16.1853C6.09113 16.285 6.38889 16.2994 6.68101 16.305C6.96467 16.3103 7.26596 16.3037 7.50491 16.1557C7.76072 15.9973 7.89731 15.6967 7.9074 15.403C7.91749 15.1093 7.81605 14.8215 7.6801 14.5587C7.59907 14.4021 7.50485 14.2503 7.45101 14.0831C7.39717 13.9158 7.38784 13.7261 7.47407 13.5721C7.56471 13.4102 7.74808 13.3125 7.93481 13.277C7.94451 13.2752 7.95477 13.2735 7.96551 13.2721C8.01864 13.2654 8.06981 13.2484 8.11595 13.222C8.16208 13.1957 8.20221 13.1605 8.23391 13.1188C8.26561 13.077 8.28823 13.0294 8.30039 12.9789C8.31255 12.9284 8.31399 12.8761 8.30465 12.8251C8.28338 12.7103 8.28521 12.6005 8.34073 12.5332Z" fill="#2F2E41"/>
<path d="M25.8765 29.3933H25.22L24.9077 26.9432L25.8766 26.9432L25.8765 29.3933Z" fill="#A0616A"/>
<path d="M24.751 29.2118H26.0171V29.9831H23.9539C23.9539 29.8818 23.9745 29.7815 24.0145 29.6879C24.0546 29.5944 24.1133 29.5093 24.1873 29.4377C24.2614 29.3661 24.3492 29.3093 24.446 29.2705C24.5427 29.2317 24.6463 29.2118 24.751 29.2118Z" fill="#2F2E41"/>
<path d="M30.6399 28.6738L30.0428 28.9377L28.7065 26.8347L29.5879 26.4451L30.6399 28.6738Z" fill="#A0616A"/>
<path d="M29.5383 28.9611L30.69 28.4521L31.0212 29.1537L29.1444 29.9832C29.1009 29.891 29.0766 29.7915 29.0729 29.6903C29.0691 29.589 29.086 29.4881 29.1226 29.3932C29.1592 29.2983 29.2147 29.2113 29.2861 29.1371C29.3574 29.063 29.4431 29.0032 29.5383 28.9611Z" fill="#2F2E41"/>
<path d="M28.7281 21.1321C28.791 21.0863 28.8428 21.0277 28.8798 20.9605C28.9167 20.8932 28.938 20.819 28.9421 20.7429C28.9462 20.6668 28.933 20.5908 28.9034 20.5202C28.8739 20.4496 28.8287 20.3862 28.771 20.3343L29.5428 18.64L28.5624 18.8008L27.9798 20.385C27.8962 20.4845 27.8532 20.6102 27.8589 20.7383C27.8647 20.8665 27.9188 20.9881 28.011 21.0802C28.1033 21.1723 28.2272 21.2284 28.3594 21.238C28.4915 21.2476 28.6228 21.2099 28.7281 21.1321Z" fill="#A0616A"/>
<path d="M25.8347 28.7472H25.2075C25.1467 28.747 25.0882 28.7247 25.0436 28.6846C24.9991 28.6445 24.9718 28.5897 24.9672 28.531L24.6251 19.6939C24.6226 19.66 24.6277 19.626 24.6402 19.5943C24.6526 19.5625 24.6721 19.5338 24.6972 19.5101C24.7223 19.4864 24.7525 19.4683 24.7856 19.457C24.8187 19.4458 24.854 19.4417 24.8889 19.445L28.516 19.8177C28.5748 19.8232 28.6294 19.8495 28.6695 19.8914C28.7096 19.9334 28.7324 19.9882 28.7335 20.0453L28.8096 23.9434C28.81 23.9646 28.8142 23.9855 28.8221 24.0053L30.3099 27.7385C30.3214 27.7674 30.3269 27.7981 30.326 27.829C30.3251 27.8599 30.3178 27.8903 30.3047 27.9185C30.2915 27.9467 30.2727 27.972 30.2493 27.9931C30.2259 28.0141 30.1984 28.0305 30.1684 28.0411L29.5329 28.2677C29.4777 28.2874 29.4169 28.2868 29.3621 28.2662C29.3073 28.2455 29.2622 28.2062 29.2353 28.1556L27.4075 24.7168C27.3976 24.6981 27.3903 24.6782 27.3859 24.6576L27.0736 23.202C27.0646 23.1598 27.0403 23.1221 27.0051 23.0957C26.9699 23.0692 26.9262 23.0558 26.8817 23.0577C26.8371 23.0597 26.7948 23.0769 26.7622 23.1063C26.7297 23.1357 26.709 23.1754 26.7039 23.2182L26.0741 28.5406C26.0674 28.5975 26.0392 28.65 25.9951 28.6881C25.9509 28.7262 25.8938 28.7473 25.8347 28.7472Z" fill="#2F2E41"/>
<path d="M26.147 12.7842C26.8734 12.7842 27.4622 12.2144 27.4622 11.5116C27.4622 10.8088 26.8734 10.239 26.147 10.239C25.4206 10.239 24.8318 10.8088 24.8318 11.5116C24.8318 12.2144 25.4206 12.7842 26.147 12.7842Z" fill="#A0616A"/>
<path d="M27.0489 20.5019C26.157 20.4924 25.2864 20.2372 24.5389 19.7663L24.5261 19.7577L24.5274 19.7427L25.0305 14.0736C25.0479 13.8813 25.1366 13.7015 25.2803 13.5676C25.424 13.4337 25.613 13.3546 25.8123 13.345C26.4643 13.316 27.3401 13.3526 27.8089 13.6905C28.5174 14.201 28.8589 14.9699 28.7458 15.7999C28.5112 17.521 28.7769 19.8428 28.808 20.1018L28.8102 20.1205L28.7926 20.1283C28.2464 20.3742 27.6513 20.5017 27.0489 20.5019Z" fill="url(#paint5_linear_67_4581)"/>
<path d="M28.8019 20.1115C28.7649 20.1114 28.7282 20.1039 28.6943 20.0895C28.6604 20.075 28.6299 20.0539 28.6048 20.0274L28.3172 19.7238C28.2861 19.6907 28.2643 19.6506 28.2539 19.607C28.2435 19.5635 28.2448 19.5182 28.2578 19.4753L28.9138 17.327L27.9156 15.2988C27.869 15.2039 27.8576 15.0963 27.8833 14.9942C27.9059 14.9046 27.9562 14.8237 28.0273 14.7622C28.0984 14.7007 28.1871 14.6616 28.2817 14.6499C28.3763 14.6382 28.4724 14.6545 28.5572 14.6967C28.642 14.7389 28.7116 14.805 28.7569 14.8862L30.1114 17.0127C30.1664 17.099 30.1987 17.197 30.2054 17.2982C30.2121 17.3993 30.1931 17.5006 30.1499 17.5929L29.0463 19.959C29.0281 19.9981 29.0001 20.0322 28.9649 20.0582C28.9297 20.0843 28.8884 20.1014 28.8446 20.1082C28.8305 20.1104 28.8162 20.1115 28.8019 20.1115Z" fill="url(#paint6_linear_67_4581)"/>
<path d="M19.5316 16.0076C19.5948 16.0531 19.6675 16.0846 19.7446 16.0999C19.8217 16.1153 19.9014 16.114 19.978 16.0964C20.0545 16.0787 20.1262 16.045 20.1878 15.9976C20.2495 15.9503 20.2996 15.8904 20.3348 15.8223L22.2325 16.0604L21.7964 15.1957L20.0612 15.1022C19.9389 15.0526 19.8021 15.0482 19.6767 15.0897C19.5513 15.1312 19.446 15.2157 19.3807 15.3273C19.3155 15.4389 19.2948 15.5698 19.3226 15.6952C19.3504 15.8206 19.4248 15.9318 19.5316 16.0076V16.0076Z" fill="#A0616A"/>
<path d="M23.7143 16.4799C23.6813 16.4799 23.6483 16.4777 23.6155 16.4733L20.6301 16.0727C20.5814 16.0662 20.535 16.048 20.4953 16.0199C20.4555 15.9918 20.4237 15.9545 20.4025 15.9115C20.3957 15.8976 20.39 15.8832 20.3855 15.8685H20.3855C20.3739 15.8302 20.3707 15.7901 20.376 15.7506C20.3813 15.7111 20.395 15.673 20.4163 15.6389L20.6633 15.2426C20.6899 15.2002 20.7273 15.1652 20.7719 15.1408C20.8165 15.1164 20.8668 15.1036 20.918 15.1034H20.9184L23.5207 15.1063L25.4642 13.4215C25.5546 13.3433 25.6701 13.2976 25.7912 13.292C25.8976 13.2872 26.0029 13.3138 26.0934 13.3681C26.1838 13.4224 26.2551 13.502 26.2979 13.5964C26.3406 13.6908 26.3528 13.7954 26.3329 13.8966C26.3129 13.9978 26.2617 14.0908 26.186 14.1632L24.2467 16.2502C24.1796 16.3225 24.0975 16.3803 24.0058 16.4199C23.9141 16.4594 23.8148 16.4799 23.7143 16.4799Z" fill="url(#paint7_linear_67_4581)"/>
<path d="M26.2966 12.6437C26.4168 12.3746 26.5185 12.0161 26.288 11.8259C26.1542 11.7155 25.9616 11.7152 25.7864 11.7015C25.2929 11.6628 24.7848 11.4431 24.5435 11.0247C24.3023 10.6062 24.437 9.98403 24.8922 9.79525C25.199 9.668 25.5507 9.75468 25.8718 9.8428L26.836 10.1073C27.1225 10.186 27.4233 10.2726 27.6295 10.4805C27.9585 10.8119 27.9339 11.3723 27.6726 11.756C27.4114 12.1397 27.0179 12.54 26.5675 12.6857L26.2966 12.6437Z" fill="#2F2E41"/>
<path d="M39.5987 30H0.0639447C0.0555561 30 0.0472454 29.9984 0.0394883 29.9953C0.0317313 29.9922 0.024681 29.9877 0.0187408 29.982C0.0128005 29.9762 0.0080873 29.9694 0.00487149 29.9619C0.00165569 29.9544 0 29.9464 0 29.9383C0 29.9302 0.00165569 29.9221 0.00487149 29.9146C0.0080873 29.9071 0.0128005 29.9003 0.0187408 29.8946C0.024681 29.8889 0.0317313 29.8843 0.0394883 29.8812C0.0472454 29.8781 0.0555561 29.8766 0.0639447 29.8766H39.5987C39.6071 29.8766 39.6154 29.8781 39.6232 29.8812C39.6309 29.8843 39.638 29.8889 39.6439 29.8946C39.6499 29.9003 39.6546 29.9071 39.6578 29.9146C39.661 29.9221 39.6627 29.9302 39.6627 29.9383C39.6627 29.9464 39.661 29.9544 39.6578 29.9619C39.6546 29.9694 39.6499 29.9762 39.6439 29.982C39.638 29.9877 39.6309 29.9922 39.6232 29.9953C39.6154 29.9984 39.6071 30 39.5987 30Z" fill="#3F3D56"/>
<defs>
<linearGradient id="paint0_linear_67_4581" x1="10.4717" y1="8.58656" x2="13.0166" y2="8.69355" gradientUnits="userSpaceOnUse">
<stop stop-color="#BFC3FC"/>
<stop offset="1" stop-color="#A2C3FC"/>
</linearGradient>
<linearGradient id="paint1_linear_67_4581" x1="13.2563" y1="14.9595" x2="15.8013" y2="15.0665" gradientUnits="userSpaceOnUse">
<stop stop-color="#BFC3FC"/>
<stop offset="1" stop-color="#A2C3FC"/>
</linearGradient>
<linearGradient id="paint2_linear_67_4581" x1="19.575" y1="9.93372" x2="22.1199" y2="10.0407" gradientUnits="userSpaceOnUse">
<stop stop-color="#BFC3FC"/>
<stop offset="1" stop-color="#A2C3FC"/>
</linearGradient>
<linearGradient id="paint3_linear_67_4581" x1="27.7681" y1="7.49854" x2="30.313" y2="7.60554" gradientUnits="userSpaceOnUse">
<stop stop-color="#BFC3FC"/>
<stop offset="1" stop-color="#A2C3FC"/>
</linearGradient>
<linearGradient id="paint4_linear_67_4581" x1="35.3184" y1="7.49854" x2="37.8633" y2="7.60554" gradientUnits="userSpaceOnUse">
<stop stop-color="#BFC3FC"/>
<stop offset="1" stop-color="#A2C3FC"/>
</linearGradient>
<linearGradient id="paint5_linear_67_4581" x1="24.5261" y1="13.5097" x2="29.0014" y2="13.6343" gradientUnits="userSpaceOnUse">
<stop stop-color="#BFC3FC"/>
<stop offset="1" stop-color="#A2C3FC"/>
</linearGradient>
<linearGradient id="paint6_linear_67_4581" x1="27.8699" y1="14.7779" x2="30.3119" y2="14.8265" gradientUnits="userSpaceOnUse">
<stop stop-color="#BFC3FC"/>
<stop offset="1" stop-color="#A2C3FC"/>
</linearGradient>
<linearGradient id="paint7_linear_67_4581" x1="20.3735" y1="13.3683" x2="26.5664" y2="13.908" gradientUnits="userSpaceOnUse">
<stop stop-color="#BFC3FC"/>
<stop offset="1" stop-color="#A2C3FC"/>
</linearGradient>
</defs>
</svg>
