<svg width="45" height="27" viewBox="0 0 45 27" fill="none" xmlns="http://www.w3.org/2000/svg">
<path d="M37.0107 3.09192C31.84 -0.90185 24.6463 -1.06504 19.3981 2.82623C16.6238 4.88331 14.473 8.03045 14.8643 12.8223C15.0026 14.5173 15.3876 15.9077 15.9492 17.046C18.2238 21.6605 27.5663 21.4828 28.0851 21.4822C28.4213 21.4818 28.7574 21.4894 29.0936 21.5048C30.271 21.5589 31.4422 21.7073 32.5961 21.9485C34.2411 22.292 36.3354 22.4647 38.2066 21.8139C38.5245 21.7039 38.8334 21.5693 39.1306 21.4114C40.1589 20.8638 41.31 20.3405 41.983 19.0417C42.4887 18.067 42.8571 16.8447 43.0345 15.3224C43.6798 9.77833 40.455 5.75219 37.0107 3.09192Z" fill="#F2F2F2"/>
<path d="M29.1161 22.9618C37.2821 22.9618 43.902 22.3392 43.902 21.5711C43.902 20.803 37.2821 20.1803 29.1161 20.1803C20.9502 20.1803 14.3303 20.803 14.3303 21.5711C14.3303 22.3392 20.9502 22.9618 29.1161 22.9618Z" fill="#3F3D56"/>
<path opacity="0.1" d="M28.3938 22.224C35.9888 22.224 42.1457 21.9317 42.1457 21.5711C42.1457 21.2106 35.9888 20.9183 28.3938 20.9183C20.7988 20.9183 14.6418 21.2106 14.6418 21.5711C14.6418 21.9317 20.7988 22.224 28.3938 22.224Z" fill="black"/>
<path d="M36.0016 2.94489V4.50518H33.9744V21.5214H38.2051V5.15289V4.50518V2.94489H36.0016Z" fill="#575A89"/>
<path d="M24.8372 13.4255V10.7465H22.2518V13.4255H21.2822V21.5509H25.7773V13.4255H24.8372Z" fill="#575A89"/>
<path d="M25.2777 17.7826H21.7815V21.5803H25.2777V17.7826Z" fill="#3F3D56"/>
<path opacity="0.1" d="M22.3397 17.7826H21.7815V21.5803H22.3397V17.7826Z" fill="black"/>
<path d="M32.476 2.09113V3.00376H27.3051V2.09113H25.7773V21.5803H33.9744V2.09113H32.476Z" fill="#3F3D56"/>
<path opacity="0.1" d="M33.6219 2.09113H32.4761V3.00376H33.6219V2.09113Z" fill="black"/>
<path opacity="0.1" d="M26.9232 2.09113H25.7773V21.5803H26.9232V2.09113Z" fill="black"/>
<path d="M19.9307 7.65525V6.91925H19.1668V7.65525H17.7859V21.5803H21.2821V7.65525H19.9307Z" fill="#3F3D56"/>
<path opacity="0.1" d="M19.5781 6.91925H19.1667V7.65525H19.5781V6.91925Z" fill="black"/>
<path opacity="0.1" d="M18.1975 7.65527H17.7861V21.5803H18.1975V7.65527Z" fill="black"/>
<path opacity="0.1" d="M33.6219 9.59827H32.4761V21.5803H33.6219V9.59827Z" fill="black"/>
<path opacity="0.1" d="M21.282 7.65527H20.2244V10.2165H21.282V7.65527Z" fill="black"/>
<path d="M28.686 4.56409H27.0408V5.27064H28.686V4.56409Z" fill="#FF6584"/>
<path d="M32.1821 11.8357H30.5369V12.5422H32.1821V11.8357Z" fill="#FF6584"/>
<path d="M28.686 16.9288H27.0408V17.6354H28.686V16.9288Z" fill="#FF6584"/>
<path d="M20.3714 10.8348H18.7261V11.5413H20.3714V10.8348Z" fill="#FF6584"/>
<path d="M24.3672 18.1947H22.7219V18.9013H24.3672V18.1947Z" fill="#FF6584"/>
<path opacity="0.1" d="M24.9548 14.0437H22.1343V15.2213H24.9548V14.0437Z" fill="black"/>
<path opacity="0.1" d="M37.2944 5.85944H34.4739V7.03703H37.2944V5.85944Z" fill="black"/>
<path opacity="0.1" d="M37.2944 8.36182H34.4739V9.53941H37.2944V8.36182Z" fill="black"/>
<path opacity="0.1" d="M37.2944 10.8642H34.4739V12.0418H37.2944V10.8642Z" fill="black"/>
<path opacity="0.1" d="M37.2944 13.3666H34.4739V14.5442H37.2944V13.3666Z" fill="black"/>
<path opacity="0.1" d="M37.2944 15.869H34.4739V17.0466H37.2944V15.869Z" fill="black"/>
<path opacity="0.1" d="M37.2944 18.3713H34.4739V19.5489H37.2944V18.3713Z" fill="black"/>
<path d="M39.1747 11.188V7.97906H37.1181V11.188H36.3835V21.5803H39.8798V11.188H39.1747Z" fill="#3F3D56"/>
<path opacity="0.1" d="M37.7645 7.97913H37.1182V11.1881H37.7645V7.97913Z" fill="black"/>
<path opacity="0.1" d="M37.0299 11.188H36.3835V21.5803H37.0299V11.188Z" fill="black"/>
<path opacity="0.1" d="M39.8797 16.3989H38.1462V17.4293H39.8797V16.3989Z" fill="black"/>
<path d="M39.8504 14.868H38.2051V15.5746H39.8504V14.868Z" fill="#FF6584"/>
<path d="M45 15.5813C45 18.2041 43.4439 19.1199 41.5244 19.1199C39.6049 19.1199 38.0488 18.2041 38.0488 15.5813C38.0488 12.9585 41.5244 9.62183 41.5244 9.62183C41.5244 9.62183 45 12.9585 45 15.5813Z" fill="url(#paint0_linear_67_4634)"/>
<path d="M41.3979 18.7187L41.4334 16.5237L42.9148 13.808L41.439 16.1793L41.455 15.1923L42.476 13.2276L41.4592 14.9312L41.4881 13.156L42.5813 11.5918L41.4925 12.8769L41.5105 9.62183L41.3975 13.9309L41.4068 13.7531L40.2953 12.0483L41.389 14.0944L41.2854 16.0769L41.2823 16.0243L40.001 14.2302L41.2785 16.2102L41.2655 16.4581L41.2632 16.4618L41.2643 16.4822L41.0015 21.5121H41.3526L41.3947 18.914L42.6691 16.9389L41.3979 18.7187Z" fill="#3F3D56"/>
<path d="M19.5278 15.6097C19.5278 18.2325 17.9717 19.1483 16.0522 19.1483C14.1327 19.1483 12.5767 18.2325 12.5767 15.6097C12.5767 12.9869 16.0522 9.65021 16.0522 9.65021C16.0522 9.65021 19.5278 12.9869 19.5278 15.6097Z" fill="url(#paint1_linear_67_4634)"/>
<path d="M15.9257 18.7471L15.9613 16.552L17.4427 13.8364L15.9669 16.2077L15.9829 15.2207L17.0038 13.256L15.9871 14.9595V14.9595L16.0159 13.1844L17.1092 11.6202L16.0204 12.9052L16.0384 9.65021L15.9254 13.9592L15.9347 13.7815L14.8231 12.0766L15.9168 14.1227L15.8133 16.1053L15.8102 16.0527L14.5288 14.2585L15.8063 16.2386L15.7934 16.4865L15.7911 16.4902L15.7921 16.5106L15.5293 21.5404H15.8804L15.9225 18.9424L17.1969 16.9673L15.9257 18.7471Z" fill="#3F3D56"/>
<path d="M8.29474 27C12.8758 27 16.5895 26.4967 16.5895 25.8757C16.5895 25.2548 12.8758 24.7515 8.29474 24.7515C3.71368 24.7515 0 25.2548 0 25.8757C0 26.4967 3.71368 27 8.29474 27Z" fill="#3F3D56"/>
<path opacity="0.1" d="M8.29476 26.7556C11.8799 26.7556 14.7863 26.3617 14.7863 25.8757C14.7863 25.3898 11.8799 24.9958 8.29476 24.9958C4.70958 24.9958 1.80322 25.3898 1.80322 25.8757C1.80322 26.3617 4.70958 26.7556 8.29476 26.7556Z" fill="black"/>
<path d="M7.12193 9.86866C8.0951 9.86866 8.884 9.07814 8.884 8.103C8.884 7.12785 8.0951 6.33734 7.12193 6.33734C6.14877 6.33734 5.35986 7.12785 5.35986 8.103C5.35986 9.07814 6.14877 9.86866 7.12193 9.86866Z" fill="#2F2E41"/>
<path d="M7.60314 9.68345C8.14781 9.68345 8.58934 9.24101 8.58934 8.69524C8.58934 8.14947 8.14781 7.70703 7.60314 7.70703C7.05848 7.70703 6.61694 8.14947 6.61694 8.69524C6.61694 9.24101 7.05848 9.68345 7.60314 9.68345Z" fill="#FFB9B9"/>
<path d="M7.05152 9.21448C7.05152 9.21448 7.30225 9.81745 6.91779 9.98495C6.53334 10.1524 6.68378 11.1406 6.68378 11.1406L8.18816 10.8224C8.18816 10.8224 8.18816 10.4037 7.88728 10.2194C7.58641 10.0352 8.28845 9.21448 8.28845 9.21448H7.05152Z" fill="#FFB9B9"/>
<path d="M6.56665 13.6698L6.61678 14.2225L8.87335 14.6077L8.65604 13.5861L6.56665 13.6698Z" fill="#FFB9B9"/>
<path d="M6.53321 18.1083L6.61679 20.4532C6.61679 20.4532 6.21562 21.408 6.53321 23.1666C6.8508 24.9253 6.61679 25.411 6.61679 25.411L7.75343 25.5618L7.68657 24.9086L7.41912 24.3391L7.53613 21.0897C7.53613 21.0897 8.0543 19.8838 8.07102 19.6493C8.08773 19.4148 8.03759 17.7064 8.03759 17.7064L6.53321 18.1083Z" fill="#FFB9B9"/>
<path opacity="0.1" d="M6.53321 18.1083L6.61679 20.4532C6.61679 20.4532 6.21562 21.408 6.53321 23.1666C6.8508 24.9253 6.61679 25.411 6.61679 25.411L7.75343 25.5618L7.68657 24.9086L7.41912 24.3391L7.53613 21.0897C7.53613 21.0897 8.0543 19.8838 8.07102 19.6493C8.08773 19.4148 8.03759 17.7064 8.03759 17.7064L6.53321 18.1083Z" fill="black"/>
<path d="M6.88441 24.6071C6.88441 24.6071 6.88441 24.3893 6.78412 24.3726C6.68383 24.3558 6.5501 24.3056 6.5501 24.3726C6.5501 24.4396 6.53339 24.9086 6.49996 24.9756C6.46653 25.0426 6.39967 25.2938 6.44981 25.3943C6.44981 25.3943 6.29938 25.7795 6.41638 25.813C6.53339 25.8465 7.202 25.8465 7.202 25.8465L7.23543 25.6623C7.23543 25.6623 8.72309 26.1313 9.04068 25.7125C9.04068 25.7125 9.19112 25.411 8.92367 25.344C8.92367 25.344 8.32192 25.3608 8.10462 25.1096C7.88732 24.8583 7.46944 24.2721 7.46944 24.2721C7.46944 24.2721 7.13514 24.3223 7.16857 24.5401V24.6071H6.88441Z" fill="#2F2E41"/>
<path d="M7.45264 18.1586C7.45264 18.1586 7.61979 19.3311 8.20482 20.1853C8.20482 20.1853 8.5057 20.8888 8.45555 21.1065C8.40541 21.3243 8.40541 22.5135 8.90686 23.5687L9.37489 25.1096L9.60891 25.6623L10.0101 25.8298L10.662 25.8801L10.2942 25.1096L10.1104 24.7076C10.1104 24.7076 9.77606 24.0209 9.77606 23.4179C9.77606 22.8149 9.55876 21.3913 9.55876 21.3913C9.55876 21.3913 9.55876 18.1754 9.20774 17.9744C8.85672 17.7734 7.45264 18.1586 7.45264 18.1586Z" fill="#FFB9B9"/>
<path d="M6.70051 14.055L6.53336 14.0215V14.7753C6.53336 14.7753 6.4665 15.3615 6.31606 15.4787C6.16562 15.596 5.58059 17.9074 5.78117 18.0414C5.98175 18.1754 8.67291 18.8788 9.32481 18.1586L8.87349 15.9645C8.87349 15.9645 8.90692 14.457 8.87349 14.457C8.84006 14.457 6.70051 14.055 6.70051 14.055Z" fill="#2F2E41"/>
<path d="M8.28846 10.6717C8.28846 10.6717 7.4527 10.1022 6.61694 10.8391C6.61694 10.8391 6.31606 12.0786 6.26592 12.3801C6.21577 12.6816 5.89818 13.921 6.13219 14.0383C6.36621 14.1555 6.36621 13.7535 6.96796 13.8373C7.56971 13.921 8.85678 13.8875 8.85678 13.787C8.85678 13.6865 8.55591 12.8826 8.67291 12.7486C8.78992 12.6146 8.9905 11.9781 8.78992 11.6599C8.58934 11.3416 8.28846 10.6717 8.28846 10.6717Z" fill="url(#paint2_linear_67_4634)"/>
<path d="M7.2019 14.0551L8.87343 14.8423C8.87343 14.8423 9.54204 15.6965 9.69248 15.2108C9.84292 14.725 9.19102 14.3733 9.19102 14.3733L8.0711 13.7368L7.2019 14.0216L7.2019 14.0551Z" fill="#FFB9B9"/>
<path opacity="0.1" d="M7.31898 10.8392C7.31898 10.8392 6.36621 13.787 7.2354 14.256C8.10459 14.725 8.23831 13.8373 8.23831 13.8373C8.23831 13.8373 7.65328 13.4688 7.83715 13.0166C8.02102 12.5644 8.18817 10.8392 8.18817 10.8392L7.31898 10.8392Z" fill="black"/>
<path d="M7.26868 10.7386C7.26868 10.7386 6.31591 13.6865 7.18511 14.1555C8.0543 14.6245 8.18802 13.7368 8.18802 13.7368C8.18802 13.7368 7.60299 13.3683 7.78686 12.9161C7.97073 12.4638 8.13788 10.7386 8.13788 10.7386L7.26868 10.7386Z" fill="url(#paint3_linear_67_4634)"/>
<path d="M9.56597 24.9514C9.56597 24.9514 9.54919 24.7234 9.44286 24.7136C9.33652 24.7038 9.19259 24.6615 9.19776 24.7317C9.20292 24.8018 9.22154 25.2943 9.19169 25.3671C9.16184 25.4399 9.11117 25.7082 9.17143 25.8095C9.17143 25.8095 9.04355 26.2247 9.16868 26.2507C9.29381 26.2767 9.9941 26.225 9.9941 26.225L10.0149 26.0295C10.0149 26.0295 11.6092 26.4056 11.9096 25.9424C11.9096 25.9424 12.0439 25.615 11.7586 25.5655C11.7586 25.5655 11.1297 25.6296 10.8827 25.3833C10.6358 25.137 10.1529 24.5553 10.1529 24.5553C10.1529 24.5553 9.80664 24.6338 9.85843 24.8593L9.86359 24.9294L9.56597 24.9514Z" fill="#2F2E41"/>
<path d="M7.60106 8.69154C8.25837 8.69154 8.79123 8.40724 8.79123 8.05653C8.79123 7.70582 8.25837 7.42151 7.60106 7.42151C6.94375 7.42151 6.41089 7.70582 6.41089 8.05653C6.41089 8.40724 6.94375 8.69154 7.60106 8.69154Z" fill="#2F2E41"/>
<path d="M6.61167 9.12523C6.70558 9.12523 6.7817 9.00735 6.7817 8.86193C6.7817 8.71652 6.70558 8.59863 6.61167 8.59863C6.51777 8.59863 6.44165 8.71652 6.44165 8.86193C6.44165 9.00735 6.51777 9.12523 6.61167 9.12523Z" fill="#FFB9B9"/>
<path d="M6.03999 7.17371C6.50096 7.17371 6.87465 6.79925 6.87465 6.33734C6.87465 5.87543 6.50096 5.50098 6.03999 5.50098C5.57901 5.50098 5.20532 5.87543 5.20532 6.33734C5.20532 6.79925 5.57901 7.17371 6.03999 7.17371Z" fill="#2F2E41"/>
<defs>
<linearGradient id="paint0_linear_67_4634" x1="38.0488" y1="9.8507" x2="45.3074" y2="10.098" gradientUnits="userSpaceOnUse">
<stop stop-color="#BFC3FC"/>
<stop offset="1" stop-color="#A2C3FC"/>
</linearGradient>
<linearGradient id="paint1_linear_67_4634" x1="12.5767" y1="9.87908" x2="19.8352" y2="10.1264" gradientUnits="userSpaceOnUse">
<stop stop-color="#BFC3FC"/>
<stop offset="1" stop-color="#A2C3FC"/>
</linearGradient>
<linearGradient id="paint2_linear_67_4634" x1="6.04712" y1="10.5484" x2="8.9998" y2="10.6565" gradientUnits="userSpaceOnUse">
<stop stop-color="#BFC3FC"/>
<stop offset="1" stop-color="#A2C3FC"/>
</linearGradient>
<linearGradient id="paint3_linear_67_4634" x1="6.81934" y1="10.8243" x2="8.24975" y2="10.8499" gradientUnits="userSpaceOnUse">
<stop stop-color="#BFC3FC"/>
<stop offset="1" stop-color="#A2C3FC"/>
</linearGradient>
</defs>
</svg>
