<svg width="39" height="33" viewBox="0 0 39 33" fill="none" xmlns="http://www.w3.org/2000/svg">
<path d="M30.4661 5.3208H27.8162V27.641C27.8162 27.9912 27.7464 28.338 27.6107 28.6615C27.4751 28.9851 27.2763 29.2791 27.0256 29.5267C26.775 29.7743 26.4774 29.9707 26.15 30.1048C25.8225 30.2388 25.4715 30.3077 25.117 30.3077H4.85767V30.3333C4.85767 30.6835 4.92748 31.0302 5.06313 31.3538C5.19877 31.6773 5.39759 31.9713 5.64823 32.2189C5.89887 32.4665 6.19642 32.663 6.52389 32.797C6.85137 32.931 7.20235 33 7.55681 33H30.4661C30.8205 33 31.1715 32.931 31.499 32.797C31.8265 32.663 32.124 32.4665 32.3747 32.2189C32.6253 31.9713 32.8241 31.6773 32.9598 31.3538C33.0954 31.0302 33.1652 30.6835 33.1652 30.3333V7.98751C33.1652 7.63732 33.0954 7.29055 32.9598 6.96701C32.8241 6.64346 32.6253 6.34949 32.3747 6.10186C32.124 5.85423 31.8265 5.65781 31.499 5.52379C31.1715 5.38978 30.8205 5.3208 30.4661 5.3208Z" fill="#F2F2F2"/>
<path d="M27.1872 3.03113H1.12034C0.501594 3.03113 0 3.5267 0 4.13801V29.6034C0 30.2147 0.501594 30.7103 1.12034 30.7103H27.1872C27.806 30.7103 28.3075 30.2147 28.3075 29.6034V4.13801C28.3075 3.5267 27.806 3.03113 27.1872 3.03113Z" fill="#F2F2F2"/>
<path d="M2.69924 3.57959C2.1306 3.57959 1.58525 3.80277 1.18316 4.20003C0.781068 4.59728 0.555176 5.13608 0.555176 5.69789V28.0437C0.555176 28.6055 0.781067 29.1443 1.18316 29.5415C1.58525 29.9388 2.1306 30.162 2.69924 30.162H17.3205C23.0819 30.162 27.7525 25.5475 27.7525 19.8553V5.69789C27.7525 5.13608 27.5266 4.59728 27.1245 4.20003C26.7224 3.80277 26.1771 3.57959 25.6085 3.57959H2.69924Z" fill="white"/>
<path d="M28.927 18.5758C28.8099 18.6079 28.6872 18.6144 28.5673 18.595C28.4473 18.5756 28.3331 18.5306 28.2325 18.4633C28.1319 18.396 28.0473 18.3079 27.9845 18.2051C27.9218 18.1023 27.8824 17.9872 27.869 17.8679L23.8657 16.6734L23.9279 15.4982L28.6722 16.9512C28.8772 16.944 29.0777 17.0113 29.2358 17.1404C29.3939 17.2695 29.4986 17.4514 29.53 17.6517C29.5614 17.8519 29.5174 18.0566 29.4062 18.2269C29.2951 18.3973 29.1246 18.5214 28.927 18.5758V18.5758Z" fill="#FFB6B6"/>
<path d="M15.4486 12.5134C15.0433 12.1792 15.6368 10.5227 15.4768 10.0426C15.4672 10.0135 15.4581 9.98439 15.4495 9.95515C15.4314 9.89319 15.4354 9.82695 15.461 9.7676L16.9656 9.06836C17.3577 9.22662 17.7189 9.45099 18.0332 9.73147L20.3576 12.3544L22.6668 14.4149L23.6801 14.8612L27.0377 16.3408L27.0029 16.4399L27.0026 16.4402L26.6336 17.4992L26.6336 17.4998L27.3719 18.0083L24.9548 17.6485L23.3562 16.9971L21.8169 16.3699C19.5443 15.0186 15.805 14.3181 15.4486 12.5134Z" fill="url(#paint0_linear_67_4695)"/>
<path d="M26.1616 24.6687C26.1172 24.6886 26.0677 24.6946 26.0198 24.6859C25.9719 24.6771 25.9279 24.654 25.8937 24.6196C25.8595 24.5853 25.8368 24.5414 25.8287 24.4939C25.8206 24.4465 25.8275 24.3977 25.8484 24.3542C25.8451 24.3301 25.8427 24.3128 25.8394 24.2888C25.8355 24.2848 25.8316 24.2809 25.8277 24.2769C25.4304 23.8788 24.7432 24.1547 24.7362 24.7137C24.73 25.2099 24.6753 25.7261 24.8017 26.1981C24.8576 26.4067 24.9498 26.6041 25.0741 26.7816C24.2871 26.0429 23.6701 25.1457 23.2649 24.1508C23.1635 23.901 23.0763 23.6458 23.0037 23.3864C22.9444 23.1737 22.8946 22.9589 22.8545 22.7419C22.638 21.5643 22.7073 20.3527 23.0568 19.2066C23.3221 18.8891 23.4826 18.4988 23.5165 18.0884C23.5292 17.9407 23.5202 17.792 23.4897 17.6468C23.4534 17.6669 23.1135 17.1325 23.128 17.0857C23.0422 17.0268 22.9305 17.0249 22.8405 16.9698C22.3929 16.6962 22.0209 16.9222 22.0265 17.5327C21.671 17.9313 21.8162 18.3014 22.2333 18.5475C22.4987 18.7041 22.6463 18.9997 22.8968 19.1806C22.8892 19.2067 22.8807 19.2324 22.873 19.2585C22.7339 19.7368 22.6426 20.2273 22.6003 20.7232C22.4739 20.2418 22.1626 19.7249 21.869 19.4285C21.5347 19.0906 21.0777 18.8756 20.6551 18.6364C20.1474 18.3492 19.5308 18.8064 19.6877 19.3632C19.6893 19.3686 19.6908 19.374 19.6923 19.3794C19.7434 19.3861 19.7942 19.3946 19.8447 19.4049C19.9083 19.4181 19.9663 19.45 20.0112 19.4964C20.0561 19.5428 20.0858 19.6015 20.0963 19.6648C20.1069 19.7282 20.0978 19.7932 20.0704 19.8513C20.0429 19.9095 19.9983 19.9581 19.9423 19.9908L19.9366 19.9941C20.0116 20.1366 20.0975 20.2733 20.1936 20.403C20.3915 21.9207 21.3717 22.114 22.4904 21.6971C22.52 21.6998 22.5489 21.7028 22.5782 21.7049C22.6067 22.3782 22.7238 23.045 22.9265 23.6885C23.0472 24.0676 23.1988 24.4365 23.3798 24.7915L23.3726 24.7793C23.1264 24.4023 22.756 24.1209 22.3241 23.9824C21.6849 23.7825 20.9472 23.9078 20.3012 23.7995C19.9902 23.7474 19.7494 24.0693 19.909 24.3381C19.9115 24.3423 19.9141 24.3466 19.9166 24.3509C20.0066 24.3514 20.0964 24.3574 20.1856 24.369C20.2367 24.3757 20.2875 24.3842 20.338 24.3945C20.4016 24.4077 20.4596 24.4396 20.5045 24.486C20.5494 24.5324 20.5791 24.5911 20.5897 24.6545C20.6002 24.7178 20.5911 24.7828 20.5637 24.841C20.5362 24.8991 20.4916 24.9477 20.4356 24.9804L20.4299 24.9838C20.4258 24.9861 20.4223 24.9882 20.4181 24.9906C20.6767 25.25 20.9785 25.4635 21.3104 25.6217C22.0225 26.7331 23.0353 26.4643 23.9275 25.7053L23.9281 25.705C24.2392 26.1472 24.5959 26.5562 24.9925 26.9255L26.7447 26.2317C26.7431 26.21 26.7407 26.1879 26.7386 26.1664C26.5805 26.2407 26.4138 26.2956 26.2422 26.3299C26.3083 26.1208 26.3738 25.9105 26.4399 25.7014C26.4416 25.6973 26.4431 25.6931 26.4443 25.6889C26.4775 25.5821 26.5116 25.4757 26.5448 25.3689L26.5448 25.3688C26.448 25.1202 26.3193 24.8849 26.1617 24.6687L26.1616 24.6687Z" fill="#F2F2F2"/>
<path d="M16.5307 26.1921L16.5106 26.1673C16.4528 25.7998 16.5307 26.1921 16.5307 26.1921Z" fill="#2F2E41"/>
<path d="M17.5572 30.1567H11.9438C11.5077 29.0855 11.205 28.3195 11.205 28.3195C11.205 28.3195 11.1315 29.0698 11.0266 30.1567H5.95179C5.9043 27.2032 5.83781 24.1707 5.81592 23.2076L15.5567 23.422L16.5255 24.6359C16.5288 24.6562 16.5322 24.6786 16.5363 24.7038C16.5755 24.9505 17.1029 27.5981 17.5572 30.1567Z" fill="#2F2E41"/>
<path d="M17.4719 9.38438L17.471 9.38267C17.44 9.32588 17.3902 9.28138 17.3299 9.25665C16.7136 8.7842 16.0388 8.56884 15.2815 8.71613C15.1575 8.34529 15.0419 8.34529 15.0419 8.34529L13.3993 7.80932L13.163 6.38351L9.11593 6.24817L8.74812 8.02744C8.74812 8.02744 6.486 8.42807 6.486 8.71779C6.486 9.0075 6.86302 9.0075 6.486 9.0075C6.10898 9.0075 6.00802 8.6764 5.68169 9.0075C5.65373 9.03532 5.62422 9.06157 5.5933 9.08614C5.58953 9.08945 5.58534 9.09235 5.58157 9.09566C5.21277 9.38226 4.92294 9.75598 4.73881 10.1824C4.55469 10.6088 4.48219 11.0741 4.528 11.5355L5.22382 18.374L5.96655 25.6711L16.131 26.0891L16.8118 19.8797L17.5042 9.5483C17.5104 9.4917 17.4991 9.43457 17.4719 9.38438Z" fill="url(#paint1_linear_67_4695)"/>
<path d="M0.786305 27.7229C0.844338 27.8672 0.902902 27.9728 0.961988 28.0251L20.6752 28.0665C20.7342 28.0142 20.7928 27.9085 20.8508 27.7643C21.5403 26.0506 20.2396 24.1922 18.3731 24.1887L3.26509 24.1604C1.40104 24.1569 0.097752 26.0115 0.786305 27.7229Z" fill="white"/>
<path d="M20.691 28.1079L20.6749 28.1079L0.945769 28.0664L0.933884 28.0559C0.872439 28.0016 0.811381 27.8976 0.747215 27.7382C0.58402 27.3395 0.523826 26.907 0.572062 26.4795C0.620298 26.0521 0.775446 25.6433 1.02352 25.2899C1.2712 24.9292 1.60451 24.6339 1.99433 24.4298C2.38415 24.2257 2.81863 24.119 3.25981 24.119H3.265L18.373 24.1474C18.8158 24.1482 19.2516 24.2561 19.6424 24.4617C20.0333 24.6672 20.3672 24.9642 20.6151 25.3267C20.8629 25.6811 21.0177 26.0908 21.0656 26.5189C21.1135 26.9471 21.053 27.3802 20.8896 27.7796C20.8254 27.939 20.7644 28.0429 20.7029 28.0973L20.691 28.1079ZM2.27892 27.9798L18.9941 27.9298C20.1739 27.9263 21.0418 26.801 20.6922 25.6877C20.6592 25.5763 20.6099 25.4703 20.5458 25.3731C20.3055 25.0218 19.9819 24.734 19.6031 24.5348C19.2243 24.3355 18.8019 24.231 18.3728 24.2301L3.26484 24.2018H3.25981C3.06797 24.2081 2.87879 24.2481 2.7011 24.3198C1.72522 24.6846 1.07265 25.6017 1.01839 26.6312C1.0177 26.6443 1.01701 26.6574 1.01633 26.6706C1.00781 26.8339 1.03193 26.9972 1.08731 27.1513C1.14269 27.3054 1.22825 27.4472 1.33911 27.5686C1.44996 27.6901 1.58393 27.7887 1.73338 27.859C1.88283 27.9293 2.04483 27.9698 2.21012 27.9782C2.23303 27.9794 2.25597 27.9799 2.27892 27.9798L2.27892 27.9798Z" fill="#E6E6E6"/>
<path d="M24.5089 13.0975C24.293 12.2017 24.329 11.3193 24.6987 10.4548C24.7026 10.4013 24.7278 10.3515 24.7688 10.3164C24.8098 10.2812 24.8633 10.2636 24.9174 10.2673L26.9376 10.409C26.9917 10.4128 27.0421 10.4377 27.0776 10.4782C27.1132 10.5187 27.1311 10.5715 27.1273 10.625L26.9375 13.2678C26.9336 13.3213 26.9084 13.3711 26.8674 13.4062C26.8264 13.4413 26.7729 13.459 26.7188 13.4552L24.6986 13.3136C24.6445 13.3098 24.5941 13.2848 24.5585 13.2443C24.523 13.2038 24.5051 13.151 24.5089 13.0975Z" fill="#F2F2F2"/>
<path d="M24.7213 12.3102C24.5485 11.8687 24.659 11.2616 24.8433 10.6112C24.847 10.5611 24.8706 10.5145 24.909 10.4816C24.9474 10.4487 24.9974 10.4321 25.0481 10.4356L26.7843 10.5574C26.835 10.561 26.8822 10.5843 26.9155 10.6222C26.9488 10.6602 26.9655 10.7096 26.962 10.7597L26.7931 13.1114C26.7894 13.1615 26.7658 13.2081 26.7274 13.241C26.689 13.2739 26.639 13.2905 26.5883 13.287L25.5127 13.2116C25.2869 13.1955 25.0768 13.0915 24.9284 12.9226C24.78 12.7536 24.7055 12.5334 24.7213 12.3102Z" fill="white"/>
<path d="M25.9235 12.4255C25.8704 12.4165 25.8174 12.4075 25.7643 12.3985C25.7888 12.3415 25.8029 12.2807 25.806 12.2189C25.8311 11.8882 25.8337 11.5542 25.8471 11.2228C25.8467 11.2107 25.8428 11.1989 25.8358 11.1889C25.8289 11.1789 25.8191 11.1712 25.8078 11.1665C25.7964 11.1619 25.784 11.1606 25.7719 11.1628C25.7598 11.165 25.7487 11.1706 25.7397 11.1789C25.6065 11.2879 25.4733 11.3969 25.34 11.5059C25.2776 11.5569 25.367 11.6443 25.4289 11.5937C25.5245 11.5154 25.6202 11.4372 25.7158 11.359C25.707 11.5761 25.6983 11.7933 25.6895 12.0105C25.6853 12.1147 25.6981 12.2413 25.6549 12.3393C25.649 12.3525 25.6413 12.3648 25.632 12.376C25.5732 12.366 25.5145 12.3561 25.4558 12.3461C25.4135 12.3389 25.3598 12.3738 25.3784 12.4225C25.4189 12.5284 25.538 12.5618 25.6402 12.521C25.6492 12.517 25.658 12.5124 25.6663 12.5072L25.8901 12.5452C25.9692 12.5586 26.0032 12.439 25.9235 12.4255Z" fill="url(#paint2_linear_67_4695)"/>
<path d="M36.2384 21.996C36.0225 21.1001 36.0585 20.2177 36.4282 19.3532C36.4321 19.2997 36.4573 19.25 36.4983 19.2148C36.5393 19.1797 36.5928 19.162 36.6469 19.1658L38.6671 19.3074C38.7212 19.3113 38.7716 19.3362 38.8071 19.3767C38.8427 19.4172 38.8606 19.47 38.8568 19.5235L38.667 22.1662C38.6631 22.2197 38.6378 22.2695 38.5968 22.3046C38.5558 22.3398 38.5024 22.3574 38.4483 22.3537L36.4281 22.212C36.374 22.2082 36.3236 22.1833 36.288 22.1428C36.2525 22.1023 36.2346 22.0495 36.2384 21.996Z" fill="#F2F2F2"/>
<path d="M36.4508 21.2086C36.278 20.7672 36.3885 20.16 36.5728 19.5096C36.5765 19.4595 36.6001 19.4129 36.6385 19.38C36.6769 19.3471 36.7269 19.3306 36.7776 19.3341L38.5138 19.4558C38.5645 19.4594 38.6117 19.4827 38.645 19.5207C38.6783 19.5586 38.695 19.608 38.6915 19.6581L38.5226 22.0098C38.5189 22.0599 38.4953 22.1066 38.4569 22.1395C38.4185 22.1724 38.3685 22.1889 38.3178 22.1854L37.2422 22.11C37.0164 22.0939 36.8063 21.99 36.6579 21.821C36.5095 21.652 36.435 21.4318 36.4508 21.2086Z" fill="white"/>
<path d="M37.5844 20.7602C37.6075 20.7496 37.6294 20.7365 37.6496 20.7212C37.7035 20.6773 37.7433 20.619 37.7642 20.5532C37.7852 20.4874 37.7863 20.4171 37.7676 20.3507C37.6861 20.055 37.3279 20.0532 37.0807 20.0888C37.0009 20.1003 37.0348 20.2199 37.1141 20.2085C37.2807 20.1845 37.5423 20.1652 37.6319 20.3449C37.6523 20.3871 37.6596 20.4344 37.6528 20.4807C37.646 20.527 37.6254 20.5703 37.5936 20.605C37.5556 20.6426 37.5056 20.6661 37.4521 20.6714C37.4003 20.6492 37.344 20.6388 37.2875 20.6411C37.2292 20.6438 37.1968 20.7275 37.2558 20.7568C37.308 20.7825 37.3655 20.7959 37.4238 20.7959C37.4722 20.819 37.5125 20.8556 37.5399 20.9013C37.5672 20.9469 37.5803 20.9995 37.5775 21.0525C37.5719 21.0886 37.5592 21.1233 37.5401 21.1546C37.521 21.1858 37.4958 21.2131 37.466 21.2348C37.4362 21.2564 37.4024 21.2721 37.3665 21.2808C37.3306 21.2896 37.2932 21.2913 37.2567 21.2858L37.2551 21.2856C37.1761 21.2699 37.1423 21.3895 37.2217 21.4053C37.3282 21.4251 37.4383 21.4024 37.5278 21.342C37.6173 21.2816 37.6788 21.1887 37.6989 21.0835C37.7 21.0778 37.7009 21.0721 37.7018 21.0663C37.7068 21.0099 37.6988 20.953 37.6785 20.9C37.6582 20.847 37.626 20.7993 37.5844 20.7602Z" fill="url(#paint3_linear_67_4695)"/>
<path d="M33.9762 7.84132C33.7603 6.94544 33.7963 6.06306 34.166 5.19855C34.1699 5.14506 34.1951 5.09529 34.2361 5.06015C34.2771 5.02501 34.3306 5.00738 34.3847 5.01111L36.4048 5.15273C36.459 5.15659 36.5094 5.1815 36.5449 5.22201C36.5805 5.26252 36.5983 5.31531 36.5946 5.3688L36.4048 8.01157C36.4009 8.06506 36.3756 8.11483 36.3346 8.14997C36.2936 8.18511 36.2402 8.20274 36.1861 8.19901L34.1659 8.05739C34.1118 8.05353 34.0614 8.02862 34.0258 7.98811C33.9903 7.9476 33.9724 7.89481 33.9762 7.84132Z" fill="#F2F2F2"/>
<path d="M34.1886 7.05397C34.0158 6.6125 34.1263 6.00533 34.3106 5.35495C34.3143 5.30486 34.3379 5.25825 34.3763 5.22534C34.4147 5.19243 34.4647 5.17592 34.5154 5.17942L36.2516 5.30113C36.3023 5.30474 36.3495 5.32807 36.3828 5.366C36.4161 5.40394 36.4328 5.45338 36.4293 5.50348L36.2604 7.85519C36.2567 7.90528 36.2331 7.95189 36.1947 7.9848C36.1563 8.01771 36.1063 8.03423 36.0555 8.03073L34.98 7.95533C34.7542 7.93925 34.544 7.83531 34.3957 7.66633C34.2473 7.49735 34.1728 7.27713 34.1886 7.05397Z" fill="white"/>
<path d="M35.2563 5.87054C35.0782 5.80952 34.8802 5.94857 34.86 6.12886C34.8371 6.3332 35.0597 6.49452 35.2524 6.43898C35.3299 6.41664 35.2969 6.29679 35.219 6.31925C35.0777 6.35996 34.9271 6.20935 35.0083 6.0747C35.0267 6.0422 35.0548 6.01602 35.0886 5.99964C35.1225 5.98327 35.1607 5.97747 35.198 5.98303C35.2297 5.9917 35.2588 6.00757 35.2832 6.02938C35.3075 6.05119 35.3263 6.07834 35.3381 6.10863C35.4074 6.26286 35.3251 6.41943 35.2159 6.53153C35.1537 6.59546 35.0806 6.64515 35.0135 6.70342C34.9809 6.72776 34.9538 6.75858 34.934 6.7939C34.9141 6.82921 34.902 6.86824 34.8984 6.90846C34.9002 6.95369 34.9144 6.99758 34.9397 7.03538C34.9649 7.07319 35.0001 7.10347 35.0414 7.12294C35.1486 7.17738 35.2705 7.16007 35.3846 7.14196C35.4642 7.12929 35.4304 7.00963 35.3511 7.02223C35.2514 7.03807 35.1021 7.06209 35.0389 6.95939C34.9848 6.87144 35.0963 6.79422 35.157 6.74743C35.3097 6.62985 35.4641 6.47801 35.4871 6.27809C35.5058 6.11432 35.4216 5.92718 35.2563 5.87054Z" fill="url(#paint4_linear_67_4695)"/>
<path d="M4.59961 17.9678L5.59494 18.4106C5.12702 18.7856 4.41445 19.2901 3.71654 19.5235L2.60768 18.7765C2.19463 17.2029 2.44765 15.5813 2.94407 14.2102C3.2191 13.4482 3.58382 12.7209 4.03072 12.0431C3.98495 11.5817 4.05747 11.1164 4.24159 10.69C4.42571 10.2636 4.71552 9.8899 5.08429 9.60327C5.08848 9.59996 5.09225 9.59706 5.09602 9.59375C5.46332 9.90867 5.76336 10.2928 5.97858 10.7237C6.19379 11.1545 6.31986 11.6235 6.3494 12.1031L6.3716 12.4657L6.41601 13.18L6.5287 15.0044L5.19237 17.0572L4.59961 17.9678Z" fill="url(#paint5_linear_67_4695)"/>
<path d="M7.4632 25.7562C7.47483 25.7707 7.48962 25.7823 7.50645 25.7902C7.52328 25.7982 7.54172 25.8023 7.56038 25.8022H14.361C14.3796 25.8022 14.398 25.7981 14.4147 25.7901C14.4315 25.7822 14.4463 25.7707 14.458 25.7564C14.4698 25.7422 14.4781 25.7255 14.4825 25.7076C14.4868 25.6898 14.4871 25.6712 14.4833 25.6532L14.3778 25.1578C14.3734 25.1376 14.364 25.1188 14.3504 25.1031C14.3367 25.0874 14.3194 25.0753 14.2998 25.068C14.2857 25.0625 14.2706 25.0597 14.2554 25.0597H7.66553C7.65033 25.0597 7.63527 25.0625 7.62113 25.068C7.60159 25.0753 7.58422 25.0874 7.57061 25.1031C7.557 25.1188 7.54758 25.1376 7.54321 25.1578L7.43764 25.6532C7.43389 25.6712 7.43423 25.6897 7.43865 25.7076C7.44307 25.7254 7.45145 25.742 7.4632 25.7562Z" fill="#2F2E41"/>
<path d="M4.85938 14.6659V22.4162C4.85945 22.515 4.8992 22.6097 4.96989 22.6795C5.04058 22.7493 5.13643 22.7886 5.2364 22.7887H16.8612C16.9612 22.7886 17.057 22.7493 17.1277 22.6795C17.1984 22.6097 17.2381 22.515 17.2382 22.4162V14.6659C17.238 14.5672 17.1982 14.4727 17.1275 14.4029C17.0568 14.3332 16.9611 14.2939 16.8612 14.2938H5.2364C5.13652 14.2939 5.04076 14.3332 4.97009 14.4029C4.89942 14.4727 4.85961 14.5672 4.85938 14.6659Z" fill="#3F3D56"/>
<path d="M9.59448 21.2681V25.5128H12.6044V21.2681C12.6044 21.2376 12.5946 21.2078 12.5762 21.1832C12.5579 21.1587 12.5321 21.1405 12.5026 21.1315C12.4887 21.127 12.4741 21.1247 12.4594 21.1249H9.73984C9.70137 21.1248 9.66444 21.1398 9.63718 21.1667C9.60991 21.1935 9.59456 21.2299 9.59448 21.2679V21.2681ZM10.7691 22.7266C10.7699 22.6429 10.8041 22.5629 10.8643 22.5041C10.9245 22.4452 11.0057 22.4121 11.0904 22.4121C11.1751 22.4121 11.2564 22.4452 11.3166 22.5041C11.3767 22.5629 11.4109 22.6429 11.4117 22.7266V23.2191C11.4113 23.303 11.3772 23.3834 11.317 23.4425C11.2568 23.5017 11.1753 23.5349 11.0904 23.5349C11.0055 23.5349 10.924 23.5017 10.8638 23.4425C10.8036 23.3834 10.7695 23.303 10.7691 23.2191V22.7266Z" fill="#2F2E41"/>
<path d="M11.351 6.08926C12.7976 6.08926 13.9703 4.93064 13.9703 3.50142C13.9703 2.07219 12.7976 0.913574 11.351 0.913574C9.9044 0.913574 8.73169 2.07219 8.73169 3.50142C8.73169 4.93064 9.9044 6.08926 11.351 6.08926Z" fill="#FFB6B6"/>
<path d="M14.4872 3.0487C14.2048 3.13532 13.9326 3.18637 13.7489 2.95752C13.5653 2.72867 13.6133 2.46699 13.3401 2.35667C13.1195 2.26732 12.8648 2.30561 12.6424 2.38858C12.6027 2.40317 12.564 2.41958 12.5261 2.43599C12.5049 2.41775 12.4837 2.40044 12.4606 2.38402C12.287 2.26203 12.0726 2.21048 11.8617 2.23997C12.0159 2.31355 12.1428 2.43316 12.2244 2.58188C12.1487 2.61926 12.0674 2.64719 11.9946 2.68855C10.9943 3.25675 9.88184 3.48559 9.97262 2.5372C10.2753 3.32496 10.04 3.60578 9.5961 4.32516L9.57857 4.3671C9.62286 4.17837 9.31143 4.16942 9.0424 4.23398C8.84369 4.28167 8.97228 4.73932 9.22696 5.05457C8.65757 4.20754 7.80474 2.9143 8.54221 2.26549C8.65098 2.1698 8.71923 2.03479 8.73877 1.68926C8.75036 1.48439 9.1033 1.43305 9.28971 1.52423C9.31669 1.21618 9.42566 0.92067 9.60557 0.667668C9.78547 0.414666 10.0299 0.213179 10.3141 0.083649C10.8844 -0.167085 11.4644 0.218619 12.0841 0.293353C12.4279 0.334818 12.6887 0.471632 12.7024 0.905146C12.7116 1.19384 13.1518 1.2972 13.4398 1.34826C13.6225 1.38018 13.8283 1.36103 13.9741 1.475C14.143 1.6072 14.1448 1.8397 14.1439 2.06308C13.9787 2.05842 13.8158 2.10255 13.676 2.18981C13.8471 2.19406 14.0124 2.25149 14.1485 2.35393C14.1511 2.35553 14.1536 2.35736 14.1559 2.3594C14.2057 2.73505 14.1854 2.81438 14.4872 3.0487Z" fill="#2F2E41"/>
<path d="M16.3763 15.667C17.3998 15.3527 18.4955 15.6926 19.5246 15.4025C19.7613 15.3385 19.985 15.2347 20.186 15.0956C20.3574 14.9672 20.5184 14.8257 20.6674 14.6723C20.977 14.3698 21.3132 14.0522 21.7783 14.0557C22.3907 14.0603 22.861 14.5098 23.2693 14.9067C23.3269 14.9628 23.4159 14.875 23.3581 14.8189C22.983 14.4542 22.5777 14.0694 22.0437 13.9606C21.8042 13.9081 21.5542 13.9286 21.3267 14.0194C21.1294 14.108 20.9491 14.2298 20.7939 14.3794C20.6295 14.5283 20.4778 14.6906 20.3111 14.8372C20.1372 14.9936 19.9367 15.1186 19.719 15.2065C19.2472 15.3921 18.7297 15.4144 18.2279 15.409C17.598 15.4023 16.9531 15.3599 16.3429 15.5472C16.2659 15.5709 16.2988 15.6908 16.3763 15.667H16.3763Z" fill="#3F3D56"/>
<path d="M23.4941 14.0699L23.8089 14.6179L23.9612 14.883C23.9883 14.9301 24.0161 14.9769 24.0424 15.0244C24.0586 15.0536 24.094 15.1062 24.0602 15.1339C24.0305 15.1482 23.9972 15.1533 23.9645 15.1486C23.909 15.1487 23.8535 15.1475 23.798 15.147L23.4859 15.1438L22.8408 15.1374C22.8245 15.1379 22.809 15.1447 22.7977 15.1563C22.7864 15.1679 22.78 15.1834 22.78 15.1995C22.78 15.2156 22.7864 15.231 22.7977 15.2426C22.809 15.2542 22.8245 15.261 22.8408 15.2616C23.2153 15.2653 23.59 15.2731 23.9645 15.2728C24.0299 15.279 24.0952 15.2613 24.1483 15.2231C24.1743 15.1976 24.1915 15.1646 24.1975 15.1289C24.2035 15.0932 24.1979 15.0565 24.1816 15.0241C24.1447 14.9445 24.1022 14.8676 24.0545 14.7938L23.9175 14.5552L23.6027 14.0072C23.594 13.9936 23.5803 13.9839 23.5644 13.98C23.5486 13.9762 23.5318 13.9786 23.5177 13.9868C23.5037 13.9949 23.4933 14.0081 23.4889 14.0236C23.4845 14.0391 23.4864 14.0557 23.4941 14.0699V14.0699Z" fill="#3F3D56"/>
<path d="M27.6524 15.4126H24.7606C24.7448 15.4127 24.7291 15.4097 24.7145 15.4038C24.6998 15.3978 24.6865 15.3891 24.6752 15.3781C24.664 15.3671 24.6551 15.354 24.649 15.3395C24.6429 15.3251 24.6397 15.3096 24.6396 15.294C24.6396 15.2783 24.6427 15.2628 24.6487 15.2484C24.6547 15.2339 24.6636 15.2207 24.6747 15.2096C24.6859 15.1985 24.6992 15.1897 24.7138 15.1837C24.7284 15.1777 24.7441 15.1746 24.7599 15.1746C24.7602 15.1746 24.7604 15.1746 24.7606 15.1746H27.6524C27.6683 15.1745 27.6839 15.1775 27.6986 15.1834C27.7133 15.1894 27.7266 15.1981 27.7378 15.2091C27.7491 15.2201 27.758 15.2333 27.7641 15.2477C27.7702 15.2621 27.7734 15.2776 27.7734 15.2932C27.7735 15.3089 27.7704 15.3244 27.7644 15.3389C27.7583 15.3533 27.7495 15.3665 27.7383 15.3776C27.7272 15.3887 27.7139 15.3975 27.6993 15.4035C27.6847 15.4095 27.669 15.4126 27.6531 15.4126C27.6529 15.4127 27.6527 15.4127 27.6524 15.4126Z" fill="#E6E6E6"/>
<path d="M27.6523 17.33H24.7605C24.7447 17.3301 24.729 17.327 24.7144 17.3211C24.6997 17.3151 24.6864 17.3064 24.6752 17.2954C24.664 17.2844 24.6551 17.2713 24.649 17.2569C24.6429 17.2424 24.6397 17.227 24.6396 17.2113C24.6396 17.1957 24.6427 17.1802 24.6487 17.1657C24.6547 17.1513 24.6635 17.1381 24.6747 17.127C24.6858 17.116 24.6991 17.1071 24.7137 17.1011C24.7283 17.0951 24.744 17.092 24.7598 17.0919C24.76 17.0919 24.7603 17.0919 24.7605 17.0919H27.6523C27.6681 17.0919 27.6838 17.0949 27.6984 17.1008C27.7131 17.1068 27.7264 17.1155 27.7376 17.1265C27.7488 17.1376 27.7577 17.1506 27.7638 17.1651C27.7699 17.1795 27.7731 17.195 27.7731 17.2106C27.7732 17.2262 27.7701 17.2417 27.7641 17.2562C27.7581 17.2706 27.7493 17.2838 27.7381 17.2949C27.727 17.306 27.7137 17.3148 27.6991 17.3208C27.6845 17.3268 27.6688 17.33 27.653 17.33C27.6528 17.33 27.6525 17.33 27.6523 17.33Z" fill="#E6E6E6"/>
<path d="M30.4912 16.3713H24.7606C24.7448 16.3713 24.7291 16.3683 24.7145 16.3624C24.6998 16.3565 24.6865 16.3477 24.6752 16.3367C24.664 16.3257 24.6551 16.3126 24.649 16.2981C24.6429 16.2837 24.6397 16.2682 24.6396 16.2526C24.6396 16.2369 24.6427 16.2214 24.6487 16.207C24.6547 16.1925 24.6636 16.1793 24.6747 16.1683C24.6859 16.1572 24.6992 16.1484 24.7138 16.1423C24.7284 16.1363 24.7441 16.1332 24.7599 16.1332C24.7602 16.1332 24.7604 16.1332 24.7606 16.1332H30.4912C30.507 16.1331 30.5227 16.1361 30.5374 16.1421C30.552 16.148 30.5654 16.1567 30.5766 16.1677C30.5878 16.1788 30.5968 16.1919 30.6029 16.2063C30.609 16.2207 30.6121 16.2362 30.6122 16.2519C30.6122 16.2675 30.6092 16.283 30.6031 16.2975C30.5971 16.3119 30.5883 16.3251 30.5771 16.3362C30.5659 16.3473 30.5527 16.3561 30.538 16.3621C30.5234 16.3681 30.5078 16.3712 30.4919 16.3713C30.4917 16.3713 30.4914 16.3713 30.4912 16.3713Z" fill="#E6E6E6"/>
<path d="M26.6542 14.2883C27.2904 13.4362 28.377 13.0688 29.0322 12.2328C29.1845 12.0428 29.3026 11.8282 29.3811 11.5985C29.4422 11.3947 29.487 11.1865 29.5152 10.9757C29.5832 10.5508 29.6636 10.0982 30.0405 9.82879C30.5367 9.47408 31.1851 9.56101 31.7519 9.64188C31.7681 9.64377 31.7844 9.63937 31.7974 9.62961C31.8104 9.61985 31.819 9.60549 31.8215 9.58956C31.8239 9.57363 31.82 9.55739 31.8106 9.54425C31.8012 9.53111 31.7869 9.5221 31.7709 9.51913C31.25 9.44483 30.6928 9.37202 30.1973 9.59679C29.9729 9.69469 29.7837 9.85753 29.6549 10.0638C29.549 10.2507 29.4768 10.4543 29.4414 10.6656C29.3983 10.8819 29.3733 11.1014 29.327 11.317C29.2805 11.5449 29.194 11.7629 29.0713 11.9611C28.8024 12.3867 28.3989 12.7076 27.9914 12.9969C27.4798 13.3601 26.9348 13.7034 26.5555 14.2114C26.5077 14.2755 26.606 14.3529 26.6542 14.2883L26.6542 14.2883Z" fill="#3F3D56"/>
<path d="M31.4313 8.83631L32.0136 9.09367L32.2953 9.2182C32.3454 9.24033 32.3958 9.26175 32.4456 9.28461C32.4761 9.29866 32.5362 9.32038 32.5256 9.36242C32.5183 9.39105 32.4795 9.41409 32.4573 9.43026C32.4127 9.46281 32.3672 9.4943 32.3222 9.52631L32.0688 9.7064L31.5452 10.0786C31.5324 10.0886 31.524 10.1031 31.5218 10.119C31.5196 10.135 31.5238 10.1511 31.5335 10.1641C31.5431 10.1771 31.5575 10.1858 31.5736 10.1885C31.5897 10.1913 31.6062 10.1877 31.6196 10.1786C31.9236 9.96255 32.2302 9.74964 32.5318 9.5303C32.5881 9.49705 32.6302 9.44457 32.6501 9.38279C32.6557 9.34701 32.6498 9.3104 32.6332 9.27812C32.6166 9.24584 32.5901 9.21954 32.5575 9.20292C32.4801 9.16041 32.3997 9.12326 32.317 9.09175L32.0634 8.97967L31.4812 8.72231C31.466 8.71643 31.4491 8.7166 31.434 8.72279C31.4189 8.72898 31.4069 8.74071 31.4004 8.7555C31.394 8.77029 31.3936 8.78699 31.3993 8.80206C31.4051 8.81714 31.4165 8.82942 31.4313 8.83631L31.4313 8.83631Z" fill="#3F3D56"/>
<path d="M36.659 9.49419H33.7672C33.7514 9.49426 33.7357 9.49124 33.7211 9.48531C33.7064 9.47938 33.6931 9.47065 33.6818 9.45963C33.6706 9.4486 33.6617 9.4355 33.6556 9.42107C33.6495 9.40664 33.6463 9.39115 33.6462 9.37551C33.6462 9.35986 33.6493 9.34436 33.6553 9.32989C33.6613 9.31542 33.6702 9.30227 33.6813 9.29118C33.6925 9.28009 33.7058 9.27128 33.7204 9.26527C33.735 9.25925 33.7507 9.25613 33.7665 9.2561C33.7667 9.2561 33.767 9.2561 33.7672 9.2561H36.659C36.6748 9.25604 36.6905 9.25906 36.7052 9.26499C36.7198 9.27092 36.7332 9.27965 36.7444 9.29067C36.7556 9.30169 36.7646 9.31479 36.7707 9.32923C36.7768 9.34366 36.78 9.35914 36.78 9.37479C36.7801 9.39043 36.777 9.40593 36.771 9.4204C36.7649 9.43487 36.7561 9.44803 36.7449 9.45912C36.7338 9.47021 36.7205 9.47901 36.7059 9.48503C36.6912 9.49105 36.6756 9.49416 36.6597 9.49419C36.6595 9.49419 36.6593 9.49419 36.659 9.49419Z" fill="url(#paint6_linear_67_4695)"/>
<path d="M28.8744 18.0469C29.5107 18.899 30.5972 19.2665 31.2524 20.1024C31.4048 20.2925 31.5228 20.5071 31.6013 20.7368C31.6624 20.9406 31.7073 21.1488 31.7354 21.3595C31.8034 21.7844 31.8839 22.2371 32.2607 22.5064C32.7569 22.8612 33.4053 22.7742 33.9722 22.6934C33.9884 22.6915 34.0047 22.6959 34.0176 22.7056C34.0306 22.7154 34.0393 22.7297 34.0417 22.7457C34.0442 22.7616 34.0403 22.7778 34.0308 22.791C34.0214 22.8041 34.0072 22.8131 33.9911 22.8161C33.4702 22.8904 32.913 22.9632 32.4175 22.7384C32.1931 22.6405 32.004 22.4777 31.8751 22.2714C31.7692 22.0845 31.697 21.8809 31.6616 21.6696C31.6185 21.4533 31.5936 21.2339 31.5472 21.0182C31.5008 20.7904 31.4142 20.5724 31.2915 20.3741C31.0226 19.9485 30.6191 19.6276 30.2116 19.3383C29.7001 18.9751 29.1551 18.6319 28.7757 18.1238C28.7279 18.0597 28.8262 17.9823 28.8744 18.0469L28.8744 18.0469Z" fill="#3F3D56"/>
<path d="M33.6515 23.4989L34.2337 23.2415L34.5155 23.117C34.5656 23.0949 34.616 23.0734 34.6658 23.0506C34.6963 23.0365 34.7564 23.0148 34.7457 22.9728C34.7385 22.9441 34.6997 22.9211 34.6775 22.9049C34.6329 22.8724 34.5874 22.8409 34.5424 22.8089L34.289 22.6288L33.7654 22.2566C33.7526 22.2466 33.7442 22.2321 33.742 22.2162C33.7398 22.2002 33.744 22.184 33.7537 22.1711C33.7633 22.1581 33.7777 22.1493 33.7938 22.1466C33.8099 22.1439 33.8264 22.1475 33.8398 22.1566C34.1438 22.3726 34.4504 22.5855 34.752 22.8049C34.8083 22.8381 34.8504 22.8906 34.8703 22.9524C34.8759 22.9882 34.87 23.0248 34.8534 23.0571C34.8368 23.0893 34.8103 23.1156 34.7777 23.1323C34.7003 23.1748 34.6199 23.2119 34.5372 23.2434L34.2836 23.3555L33.7014 23.6129C33.6862 23.6188 33.6693 23.6186 33.6542 23.6124C33.6391 23.6062 33.6271 23.5945 33.6206 23.5797C33.6142 23.5649 33.6138 23.5482 33.6195 23.5331C33.6253 23.518 33.6367 23.5058 33.6515 23.4989H33.6515Z" fill="#3F3D56"/>
<path d="M38.8791 23.1935H35.9874C35.9554 23.1936 35.9248 23.1812 35.9021 23.159C35.8794 23.1368 35.8666 23.1066 35.8665 23.075C35.8663 23.0435 35.8789 23.0132 35.9013 22.9907C35.9238 22.9683 35.9544 22.9556 35.9863 22.9554C35.9866 22.9554 35.987 22.9554 35.9874 22.9554H38.8791C38.9111 22.9553 38.9417 22.9678 38.9644 22.99C38.9871 23.0122 38.9999 23.0424 39 23.074C39.0002 23.1055 38.9876 23.1358 38.9652 23.1582C38.9427 23.1807 38.9121 23.1934 38.8802 23.1935C38.8799 23.1935 38.8795 23.1935 38.8791 23.1935Z" fill="url(#paint7_linear_67_4695)"/>
<path d="M5.91348 18.5663C5.85873 18.6734 5.78106 18.7676 5.68586 18.8422C5.59066 18.9168 5.48019 18.9701 5.36209 18.9984C5.24399 19.0267 5.12108 19.0293 5.00187 19.006C4.88265 18.9827 4.76998 18.9342 4.67163 18.8636L1.65985 20.2797L1.45801 19.4457L4.52519 17.6599C4.65765 17.5052 4.84295 17.4038 5.04599 17.3751C5.24902 17.3463 5.45568 17.3921 5.62681 17.5039C5.79793 17.6156 5.92163 17.7854 5.97447 17.9812C6.0273 18.1771 6.0056 18.3852 5.91348 18.5663L5.91348 18.5663Z" fill="#FFB6B6"/>
<path d="M4.75324 14.265L2.63396 18.5433L3.52959 18.1422L4.15294 17.8629L4.46544 19.0358C4.46544 19.0358 4.2585 19.2345 3.93217 19.4956C3.46424 19.8706 2.75167 20.3751 2.05377 20.6085C1.50751 20.7915 0.970879 20.8084 0.567886 20.4674C-0.197048 19.8201 0.550711 17.2495 1.27333 15.2923C1.75718 13.9815 2.22929 12.9464 2.22929 12.9464C2.22929 11.564 4.94462 9.57632 5.44857 9.30441C5.73636 9.14962 5.81594 9.37506 5.81594 9.37506L4.23672 11.6592L4.70883 13.5507L4.84246 14.085L4.75324 14.265Z" fill="url(#paint8_linear_67_4695)"/>
<defs>
<linearGradient id="paint0_linear_67_4695" x1="15.3042" y1="9.28378" x2="27.8705" y2="10.0735" gradientUnits="userSpaceOnUse">
<stop stop-color="#BFC3FC"/>
<stop offset="1" stop-color="#A2C3FC"/>
</linearGradient>
<linearGradient id="paint1_linear_67_4695" x1="4.51465" y1="6.72626" x2="18.0835" y2="7.13991" gradientUnits="userSpaceOnUse">
<stop stop-color="#BFC3FC"/>
<stop offset="1" stop-color="#A2C3FC"/>
</linearGradient>
<linearGradient id="paint2_linear_67_4695" x1="25.3188" y1="11.1951" x2="25.9982" y2="11.21" gradientUnits="userSpaceOnUse">
<stop stop-color="#BFC3FC"/>
<stop offset="1" stop-color="#A2C3FC"/>
</linearGradient>
<linearGradient id="paint3_linear_67_4695" x1="37.0352" y1="20.1054" x2="37.8142" y2="20.1256" gradientUnits="userSpaceOnUse">
<stop stop-color="#BFC3FC"/>
<stop offset="1" stop-color="#A2C3FC"/>
</linearGradient>
<linearGradient id="paint4_linear_67_4695" x1="34.8584" y1="5.88737" x2="35.518" y2="5.90224" gradientUnits="userSpaceOnUse">
<stop stop-color="#BFC3FC"/>
<stop offset="1" stop-color="#A2C3FC"/>
</linearGradient>
<linearGradient id="paint5_linear_67_4695" x1="2.40063" y1="9.83302" x2="6.71464" y2="9.91652" gradientUnits="userSpaceOnUse">
<stop stop-color="#BFC3FC"/>
<stop offset="1" stop-color="#A2C3FC"/>
</linearGradient>
<linearGradient id="paint6_linear_67_4695" x1="33.6462" y1="9.26184" x2="36.028" y2="10.7214" gradientUnits="userSpaceOnUse">
<stop stop-color="#BFC3FC"/>
<stop offset="1" stop-color="#A2C3FC"/>
</linearGradient>
<linearGradient id="paint7_linear_67_4695" x1="35.8665" y1="22.9612" x2="38.2481" y2="24.4206" gradientUnits="userSpaceOnUse">
<stop stop-color="#BFC3FC"/>
<stop offset="1" stop-color="#A2C3FC"/>
</linearGradient>
<linearGradient id="paint8_linear_67_4695" x1="0.246338" y1="9.52692" x2="6.06604" y2="9.65829" gradientUnits="userSpaceOnUse">
<stop stop-color="#BFC3FC"/>
<stop offset="1" stop-color="#A2C3FC"/>
</linearGradient>
</defs>
</svg>
