<svg width="39" height="31" viewBox="0 0 39 31" fill="none" xmlns="http://www.w3.org/2000/svg">
<path d="M34.3515 23.1158H33.9075V24.3942H34.3515V23.1158Z" fill="#F2F2F2"/>
<path d="M36.6029 24.0991H31.6566C31.2888 24.0991 30.9907 23.8102 30.9907 23.4537C30.9907 23.0972 31.2888 22.8082 31.6566 22.8082H36.6029C36.9706 22.8082 37.2687 23.0972 37.2687 23.4537C37.2687 23.8102 36.9706 24.0991 36.6029 24.0991Z" fill="#F2F2F2"/>
<path d="M36.9832 24.0991C37.2809 24.0991 37.5222 23.8652 37.5222 23.5766V17.368C37.5222 17.0794 37.2809 16.8455 36.9832 16.8455C36.6855 16.8455 36.4442 17.0794 36.4442 17.368C34.8071 18.5825 35.4725 20.9996 36.4442 23.5766C36.4442 23.8652 36.6855 24.0992 36.9832 24.0992V24.0991Z" fill="#F2F2F2"/>
<path d="M36.3225 21.3703C36.2493 21.6881 36.1114 21.9392 35.9383 22.137C35.5857 22.5415 35.0861 22.725 34.692 22.8082C34.3381 22.8832 34.0693 22.8771 34.0693 22.8771L32.4051 23.0101L31.0899 23.1152L29.7684 23.2209C29.8437 23.5279 29.9154 23.8805 29.9837 24.2577C29.9914 24.3028 29.9999 24.3485 30.0083 24.3942H27.3245L27.2794 24.2577L27.0036 23.4289L26.4442 22.2441C26.3421 22.051 26.2908 21.8403 26.2908 21.6281C26.2908 21.4869 26.314 21.3464 26.3597 21.21C26.3604 21.2079 26.3604 21.2059 26.3611 21.2038C26.4688 20.8887 26.7348 20.6472 27.0641 20.551L27.4617 20.4344C28.589 20.1793 30.1688 19.7816 31.3735 19.4733C32.3797 19.2154 33.1235 19.019 33.1235 19.019L33.1256 19.0053L33.3339 17.6247L35.4105 17.448L36.0853 17.39C36.0853 17.39 36.0706 17.4582 36.0762 17.7031C36.0762 17.7181 36.0762 17.7338 36.0769 17.7495C36.0783 17.7972 36.0804 17.8518 36.0832 17.9125C36.0839 17.933 36.0853 17.9541 36.0867 17.976C36.0889 18.0183 36.0917 18.0633 36.0952 18.1117C36.0952 18.1151 36.0952 18.1185 36.0959 18.1219C36.0994 18.1827 36.1043 18.2488 36.1107 18.3198C36.1121 18.3491 36.1149 18.3791 36.1177 18.4098C36.1311 18.5646 36.148 18.742 36.1698 18.9439C36.1712 18.9644 36.1733 18.9848 36.1761 19.0053C36.1789 19.0374 36.1825 19.0694 36.186 19.1022C36.193 19.1595 36.1993 19.2181 36.2064 19.2795C36.2071 19.2857 36.2078 19.2911 36.2085 19.2973C36.2148 19.3511 36.2219 19.4064 36.2282 19.4637C36.2359 19.5258 36.2437 19.5892 36.2521 19.654C36.257 19.6977 36.2627 19.7427 36.269 19.7891C36.2718 19.8109 36.2746 19.8334 36.2774 19.8559C36.281 19.8798 36.2838 19.9044 36.2873 19.9289C36.2929 19.9726 36.2986 20.0176 36.3049 20.0633C36.3183 20.1649 36.333 20.27 36.3478 20.3791C36.402 20.7659 36.3865 21.094 36.3225 21.3703L36.3225 21.3703Z" fill="#2F2E41"/>
<path d="M36.3222 21.3703L35.7783 21.5981L32.8868 22.8082L32.4048 23.0101L31.2212 23.5053C31.255 23.6779 31.2909 23.8485 31.3296 24.0163C31.3479 24.0974 31.3662 24.1779 31.3859 24.2577C31.3971 24.3034 31.4077 24.3485 31.4197 24.3942H29.0243L29.006 24.2577L28.9364 23.7236C28.7977 23.6036 28.7161 23.3737 28.6669 23.1295C28.6176 22.886 28.6 22.6261 28.588 22.446C28.588 22.4439 28.588 22.4412 28.5873 22.4392C28.5676 22.1063 29.2382 21.8853 29.5063 21.6779L29.8357 21.5722C30.5161 21.1145 31.5273 20.4214 32.5061 19.7482C32.877 19.493 33.2436 19.2406 33.5849 19.0053C34.6461 18.2727 35.4722 17.7004 35.4722 17.7004L35.4103 17.448L36.0851 17.39C36.0851 17.39 36.0703 17.4582 36.0759 17.7031C36.0759 17.7181 36.0759 17.7338 36.0766 17.7495C36.078 17.7979 36.0802 17.8518 36.083 17.9125C36.0837 17.933 36.0851 17.9541 36.0865 17.976C36.0886 18.0183 36.0914 18.0633 36.0949 18.1117C36.0949 18.1151 36.0949 18.1185 36.0956 18.1219C36.0992 18.1827 36.1041 18.2488 36.1104 18.3198C36.1118 18.3491 36.1146 18.3791 36.1175 18.4098C36.1301 18.5646 36.147 18.7413 36.1695 18.9439C36.1709 18.9644 36.173 18.9848 36.1759 19.0053C36.1787 19.0374 36.1822 19.0694 36.1857 19.1022C36.1927 19.1595 36.1991 19.2188 36.2061 19.2795C36.2068 19.2857 36.2075 19.2911 36.2082 19.2973C36.2146 19.3511 36.2216 19.4064 36.2279 19.4637C36.2357 19.5258 36.2434 19.5892 36.2519 19.654C36.2575 19.6984 36.2631 19.7434 36.2687 19.7891C36.2716 19.8109 36.2744 19.8334 36.2772 19.8559C36.2807 19.8798 36.2835 19.9044 36.287 19.9289C36.2927 19.9726 36.2983 20.0176 36.3046 20.0633C36.318 20.1649 36.3328 20.27 36.3476 20.3791C36.4017 20.7659 36.3863 21.094 36.3222 21.3703V21.3703Z" fill="#2F2E41"/>
<path d="M36.7553 18.0908C36.8658 18.5485 36.8214 18.8623 36.7778 19.3097C36.7616 19.4748 36.8172 19.7122 36.6518 19.8234C36.5104 19.9168 31.4221 19.8725 31.3749 19.4905C31.3214 19.0587 31.4256 18.6058 31.643 18.2163C32.0364 17.511 32.2616 16.6474 32.377 16.0341C32.6211 14.7456 32.0709 14.0457 32.2763 12.7606C32.3115 12.5416 32.3186 12.3342 32.3101 12.1357C32.282 11.4461 32.0624 10.8608 32.1321 10.2667C32.1609 10.0225 32.2383 9.77693 32.3981 9.52181C32.4452 9.44609 32.4994 9.3697 32.562 9.29261C32.9251 8.84377 33.0201 8.50543 33.6506 8.50612C33.747 8.50612 33.8498 8.49997 33.9539 8.4952C34.1207 8.48633 34.291 8.48019 34.4416 8.50612C34.8033 8.56819 34.723 8.78852 34.9567 9.02999L35.0467 9.1173C35.2719 9.2892 35.4668 9.42358 35.6639 9.63095C36.0593 10.0471 36.5287 10.515 36.7616 11.0348C36.9192 11.3874 36.8235 11.9263 36.8193 12.3111C36.8144 12.8056 36.6568 13.221 36.5252 13.6924C36.4105 14.1017 36.3802 14.5314 36.3021 14.9495C36.2015 15.4905 36.11 16.0239 36.0636 16.5689C36.0277 16.9966 36.6497 16.2893 36.6511 16.7176C36.6525 17.1617 36.6511 17.661 36.7553 18.0908L36.7553 18.0908Z" fill="#3F3D56"/>
<path d="M27.9414 9.85214L29.5084 10.1241L29.473 11.0135L27.8269 10.6688C27.782 10.6932 27.7328 10.7118 27.6799 10.723C27.3924 10.7839 27.1084 10.6073 27.0456 10.3287C26.9828 10.05 27.1649 9.77468 27.4524 9.71377C27.6357 9.67493 27.8174 9.73294 27.9414 9.85214H27.9414Z" fill="#FFB6B6"/>
<path d="M34.2175 11.9399C34.1486 12.0763 34.0416 12.1943 33.9044 12.2803C33.7017 12.4072 33.4639 12.4419 33.2436 12.3956C33.2169 12.3901 33.1261 12.3655 32.9868 12.326C32.9629 12.3192 32.9375 12.3123 32.9108 12.3048C32.7525 12.2605 32.5463 12.2018 32.3106 12.1357C32.0769 12.0695 31.8123 11.9951 31.5386 11.9187L31.5372 11.9194C31.4542 11.8949 31.3683 11.871 31.2832 11.8471H31.2818C30.6449 11.6718 29.9785 11.4931 29.493 11.3785C29.4705 11.3724 29.3537 11.4808 29.3319 11.4754C29.2981 11.4672 29.2917 11.3423 29.2601 11.3348C29.1918 11.3185 29.1025 11.4215 29.0462 11.4078C28.8414 11.3594 28.7598 10.9372 28.7598 10.9372L28.7689 10.8662L28.8716 10.0135L28.8731 9.99854L29.4522 9.82187L29.645 10.0026L29.9124 9.89486L30.1615 10.0756L30.6703 10.1247L30.8898 10.1466L30.9046 10.1472L32.1325 10.2666L32.4942 10.3021C32.4654 10.1602 32.4428 10.0197 32.4267 9.88121C32.4224 9.84233 32.4182 9.80413 32.4154 9.76593L32.4147 9.76525C32.407 9.68339 32.402 9.6029 32.3985 9.52173C32.4457 9.44601 32.4998 9.36961 32.5625 9.29253C32.9256 8.84369 33.0206 8.50535 33.6511 8.50603C33.7475 8.50603 33.8502 8.49989 33.9544 8.49512L34.1169 9.89076L34.2956 11.4256L34.3013 11.4754C34.3196 11.6391 34.2893 11.7994 34.2175 11.9399L34.2175 11.9399Z" fill="#3F3D56"/>
<path d="M31.1744 9.40961C31.0942 9.35367 30.9914 9.34344 30.9007 9.38232L28.1661 10.5508C27.917 10.6572 27.6356 10.6763 27.3738 10.6047L27.3337 10.5938C27.4476 9.61308 27.157 8.55766 26.5864 7.45052C26.5125 7.44097 26.4386 7.46007 26.3788 7.50509C26.3084 7.5583 26.269 7.63879 26.2718 7.7261L26.3577 10.7998L26.3865 11.8203C25.7629 12.5445 25.5374 13.2145 26.44 13.7309C26.4428 13.8271 26.497 13.9131 26.5843 13.9594C26.6715 14.0065 26.775 14.0051 26.8608 13.956L26.9164 13.924L27.6672 14.9438C27.7172 14.9247 27.7693 14.9151 27.822 14.9151C27.8945 14.9151 27.967 14.9328 28.0317 14.969L29.3976 15.7309L30.3279 16.25C30.4109 16.2964 30.5115 16.2985 30.5967 16.2555C30.6818 16.2118 30.7367 16.1307 30.7451 16.0379L30.7712 15.7309L30.8577 14.7214L30.9999 13.0556L31.0674 12.2609L31.078 12.1422L31.2905 9.65177C31.2989 9.55559 31.2553 9.46486 31.1744 9.40961V9.40961V9.40961Z" fill="#F2F2F2"/>
<path d="M31.3853 9.75067C31.3051 9.69473 31.2024 9.6845 31.1116 9.72339C30.1224 10.4616 29.1658 11.0534 28.3771 10.8919C28.128 10.9983 27.8465 11.0174 27.5847 10.9458L27.5446 10.9349C27.6585 9.95414 27.3679 8.89873 26.7973 7.79159C26.7234 7.78203 26.6495 7.80113 26.5897 7.84615C26.5194 7.89936 26.48 7.97985 26.4828 8.06717L26.5686 11.1409L26.5975 12.1613C25.9738 12.8855 25.7483 13.5555 26.6509 14.072C26.6538 14.1682 26.7079 14.2541 26.7952 14.3005C26.8825 14.3476 26.9859 14.3462 27.0718 14.2971L27.1273 14.265L27.8782 15.2848C27.9281 15.2657 27.9802 15.2562 28.033 15.2562C28.1055 15.2562 28.1779 15.2739 28.2427 15.3101L29.6085 16.072L30.5388 16.5911C30.6218 16.6375 30.7225 16.6395 30.8076 16.5966C30.8928 16.5529 30.9476 16.4717 30.9561 16.379L30.9821 16.072L31.0687 15.0624L31.2108 13.3967L31.2784 12.602L31.2889 12.4833L31.5014 9.99283C31.5099 9.89665 31.4663 9.80593 31.3853 9.75067V9.75067V9.75067Z" fill="#E6E6E6"/>
<path d="M30.8787 11.1342L28.78 11.6289L28.81 11.7483L30.9086 11.2536L30.8787 11.1342Z" fill="white"/>
<path d="M30.8787 12.0562L28.78 12.5509L28.81 12.6703L30.9086 12.1756L30.8787 12.0562Z" fill="white"/>
<path d="M28.7656 13.2633L28.7629 13.3862L30.9223 13.4304L30.9249 13.3075L28.7656 13.2633Z" fill="white"/>
<path d="M28.7698 14.1468L28.7625 14.2695L30.9186 14.391L30.926 14.2683L28.7698 14.1468Z" fill="white"/>
<path d="M28.6612 15.0259L28.6411 15.1472L30.7736 15.479L30.7937 15.3577L28.6612 15.0259Z" fill="white"/>
<path d="M22.2078 16.0721H38.4695C38.6094 16.0721 38.7227 16.3834 38.7227 16.7674V18.31C38.7227 18.694 38.6094 19.0053 38.4695 19.0053H24.6003C24.4605 19.0053 24.3471 18.694 24.3471 18.31L21.9546 16.7674C21.9546 16.3834 22.068 16.0721 22.2078 16.0721H22.2078Z" fill="#F2F2F2"/>
<path d="M33.8872 6.22129C33.876 6.20219 33.864 6.18377 33.8513 6.16603C33.8394 6.14762 33.826 6.12988 33.8126 6.11283C33.8063 6.10396 33.8 6.09577 33.7929 6.08827C33.7296 6.00982 33.6592 5.94639 33.5875 5.90819C33.5825 5.90546 33.5776 5.90273 33.5727 5.90068C33.5614 5.89455 33.5502 5.88977 33.5382 5.88568C33.5164 5.87749 33.4946 5.87135 33.4721 5.86863C33.4615 5.86726 33.451 5.86658 33.4404 5.86658C33.4327 5.86658 33.4249 5.86726 33.4172 5.86794C33.413 5.86863 33.408 5.8693 33.4031 5.86999C33.3975 5.87067 33.3911 5.87204 33.3855 5.8734C33.3792 5.87476 33.3728 5.87681 33.3672 5.87886C33.3616 5.8809 33.3553 5.88295 33.3496 5.88568C33.3433 5.88841 33.337 5.89113 33.3313 5.89455C33.325 5.89796 33.3194 5.90137 33.3137 5.90478C33.3074 5.90887 33.3018 5.91296 33.2961 5.91705C33.5115 6.03507 33.7226 6.16058 33.928 6.29223C33.9154 6.26767 33.902 6.24448 33.8872 6.22129V6.22129V6.22129Z" fill="#3F3D56"/>
<path d="M33.8872 6.22129C33.876 6.20219 33.864 6.18377 33.8513 6.16603C33.8394 6.14762 33.826 6.12988 33.8126 6.11283C33.8063 6.10396 33.8 6.09577 33.7929 6.08827C33.7296 6.00982 33.6592 5.94639 33.5875 5.90819C33.5825 5.90546 33.5776 5.90273 33.5727 5.90068C33.5614 5.89455 33.5502 5.88977 33.5382 5.88568C33.5164 5.87749 33.4946 5.87135 33.4721 5.86863C33.4615 5.86726 33.451 5.86658 33.4404 5.86658C33.4327 5.86658 33.4249 5.86726 33.4172 5.86794C33.413 5.86863 33.408 5.8693 33.4031 5.86999C33.3975 5.87067 33.3911 5.87204 33.3855 5.8734C33.3792 5.87476 33.3728 5.87681 33.3672 5.87886C33.3616 5.8809 33.3553 5.88295 33.3496 5.88568C33.3433 5.88841 33.337 5.89113 33.3313 5.89455C33.325 5.89796 33.3194 5.90137 33.3137 5.90478C33.3074 5.90887 33.3018 5.91296 33.2961 5.91705C33.5115 6.03507 33.7226 6.16058 33.928 6.29223C33.9154 6.26767 33.902 6.24448 33.8872 6.22129V6.22129V6.22129Z" fill="#3F3D56"/>
<path d="M37.4034 4.40747H14.6174V4.5439H27.9044C29.2533 4.5439 30.5446 4.77992 31.738 5.21239H31.7387C31.9027 5.27174 32.0639 5.33449 32.2236 5.40134C32.5923 5.55414 32.9498 5.72672 33.296 5.91703C33.5113 6.03504 33.7224 6.16056 33.9279 6.29221C34.367 6.57256 34.7836 6.88294 35.1748 7.22059L35.1755 7.22127C35.1931 7.2356 35.21 7.24992 35.2269 7.26561C37.4569 9.20901 38.8593 12.0276 38.8593 15.1634V22.8462C38.8593 23.6088 38.2359 24.2296 37.5223 23.5113C37.5061 23.4949 37.49 23.4786 37.4738 23.4608H23.8357V24.394H37.4034C38.2837 24.394 39.0001 23.6996 39.0001 22.8462V5.95523C39.0001 5.10188 38.2837 4.40747 37.4034 4.40747H37.4034V4.40747Z" fill="#3F3D56"/>
<path d="M33.8872 6.22129C33.876 6.20219 33.864 6.18377 33.8513 6.16603C33.8394 6.14762 33.826 6.12988 33.8126 6.11283C33.8063 6.10396 33.8 6.09577 33.7929 6.08827C33.7296 6.00982 33.6592 5.94639 33.5875 5.90819C33.5825 5.90546 33.5776 5.90273 33.5727 5.90068C33.5614 5.89455 33.5502 5.88977 33.5382 5.88568C33.5164 5.87749 33.4946 5.87135 33.4721 5.86863C33.4615 5.86726 33.451 5.86658 33.4404 5.86658C33.4327 5.86658 33.4249 5.86726 33.4172 5.86794C33.413 5.86863 33.408 5.8693 33.4031 5.86999C33.3975 5.87067 33.3911 5.87204 33.3855 5.8734C33.3792 5.87476 33.3728 5.87681 33.3672 5.87886C33.3616 5.8809 33.3553 5.88295 33.3496 5.88568C33.3433 5.88841 33.337 5.89113 33.3313 5.89455C33.325 5.89796 33.3194 5.90137 33.3137 5.90478C33.3074 5.90887 33.3018 5.91296 33.2961 5.91705C33.5115 6.03507 33.7226 6.16058 33.928 6.29223C33.9154 6.26767 33.902 6.24448 33.8872 6.22129V6.22129V6.22129Z" fill="#3F3D56"/>
<path d="M33.8872 6.22129C33.876 6.20219 33.864 6.18377 33.8513 6.16603C33.8394 6.14762 33.826 6.12988 33.8126 6.11283C33.8063 6.10396 33.8 6.09577 33.7929 6.08827C33.7296 6.00982 33.6592 5.94639 33.5875 5.90819C33.5825 5.90546 33.5776 5.90273 33.5727 5.90068C33.5614 5.89455 33.5502 5.88977 33.5382 5.88568C33.5164 5.87749 33.4946 5.87135 33.4721 5.86863C33.4615 5.86726 33.451 5.86658 33.4404 5.86658C33.4327 5.86658 33.4249 5.86726 33.4172 5.86794C33.413 5.86863 33.408 5.8693 33.4031 5.86999C33.3975 5.87067 33.3911 5.87204 33.3855 5.8734C33.3792 5.87476 33.3728 5.87681 33.3672 5.87886C33.3616 5.8809 33.3553 5.88295 33.3496 5.88568C33.3433 5.88841 33.337 5.89113 33.3313 5.89455C33.325 5.89796 33.3194 5.90137 33.3137 5.90478C33.3074 5.90887 33.3018 5.91296 33.2961 5.91705C33.5115 6.03507 33.7226 6.16058 33.928 6.29223C33.9154 6.26767 33.902 6.24448 33.8872 6.22129V6.22129V6.22129Z" fill="#3F3D56"/>
<path d="M33.8872 6.22129C33.876 6.20219 33.864 6.18377 33.8513 6.16603C33.8394 6.14762 33.826 6.12988 33.8126 6.11283C33.8063 6.10396 33.8 6.09577 33.7929 6.08827C33.7296 6.00982 33.6592 5.94639 33.5875 5.90819C33.5825 5.90546 33.5776 5.90273 33.5727 5.90068C33.5614 5.89455 33.5502 5.88977 33.5382 5.88568C33.5164 5.87749 33.4946 5.87135 33.4721 5.86863C33.4615 5.86726 33.451 5.86658 33.4404 5.86658C33.4327 5.86658 33.4249 5.86726 33.4172 5.86794C33.413 5.86863 33.408 5.8693 33.4031 5.86999C33.3975 5.87067 33.3911 5.87204 33.3855 5.8734C33.3792 5.87476 33.3728 5.87681 33.3672 5.87886C33.3616 5.8809 33.3553 5.88295 33.3496 5.88568C33.3433 5.88841 33.337 5.89113 33.3313 5.89455C33.325 5.89796 33.3194 5.90137 33.3137 5.90478C33.3074 5.90887 33.3018 5.91296 33.2961 5.91705C33.5115 6.03507 33.7226 6.16058 33.928 6.29223C33.9154 6.26767 33.902 6.24448 33.8872 6.22129V6.22129V6.22129Z" fill="#3F3D56"/>
<path d="M33.374 8.17602C33.4151 8.18081 33.4561 8.18441 33.4969 8.18621C33.6238 8.19296 33.7492 8.18594 33.87 8.16609C34.237 8.10906 34.5705 7.94052 34.8278 7.69336C35.0999 7.43257 35.2861 7.08448 35.3364 6.68821C35.4543 5.75283 34.7672 4.90077 33.8023 4.78647C32.8512 4.67316 31.9842 5.318 31.8458 6.2319C31.8436 6.24605 31.8414 6.2596 31.8398 6.27369C31.722 7.20966 32.4084 8.06119 33.374 8.17602H33.374V8.17602Z" fill="#FFB6B6"/>
<path d="M31.449 6.16925C31.699 6.28908 32.1074 5.91237 32.2638 6.12911C32.2892 6.08227 32.3173 6.03697 32.345 5.99413C32.3701 5.9558 32.406 5.87398 32.4475 5.85997C32.395 5.98287 32.4066 6.14933 32.4611 6.29195C32.7077 6.38125 33.0304 6.18357 33.2586 5.94974C33.6169 5.5831 34.2021 6.52328 34.0637 7.00983C34.2398 6.80141 34.6219 6.91896 34.7513 7.15727C34.8807 7.39498 34.6621 7.58545 34.6153 7.8506L34.9683 7.80715C35.191 7.59689 35.1754 7.2426 35.3588 6.99891C35.6651 6.59109 35.7838 6.17498 35.5535 5.75409C35.3493 5.38193 35.3302 4.90029 34.9554 4.68573C35.1192 4.60813 34.5369 4.72936 34.6924 4.47647C34.8487 4.22412 34.016 4.19349 33.9617 4.32869C33.7238 4.05265 33.4838 3.87066 33.1911 4.09184C32.9037 4.30945 32.9334 4.53818 32.5958 4.51768C32.4374 4.50817 32.4548 4.79448 32.3606 4.9193C32.267 5.04346 31.9031 5.12317 31.8854 5.10988C31.7892 5.03698 31.4622 5.65761 31.4622 5.65761C31.4622 5.65761 31.197 6.04783 31.449 6.16925H31.449V6.16925Z" fill="#2F2E41"/>
<path d="M27.0316 0.238892H23.4083C23.0881 0.238892 22.8278 0.491965 22.8278 0.802335V4.31464C22.8278 4.34602 22.8306 4.3774 22.8355 4.40741C22.8439 4.45516 22.858 4.50086 22.8777 4.54384C22.9685 4.74029 23.1726 4.8774 23.4083 4.8774H27.0316C27.2673 4.8774 27.4714 4.74029 27.5621 4.54384C27.5825 4.50086 27.5966 4.45516 27.6044 4.40741C27.61 4.3774 27.6128 4.34602 27.6128 4.31464V0.802335C27.6128 0.491965 27.3517 0.238892 27.0316 0.238892L27.0316 0.238892ZM27.4854 4.54384C27.4003 4.70278 27.2293 4.81124 27.0316 4.81124H23.4083C23.2106 4.81124 23.0396 4.70277 22.9544 4.54384C22.9312 4.50154 22.9143 4.45584 22.9052 4.40741C22.8988 4.3774 22.896 4.34602 22.896 4.31464V0.802335C22.896 0.794833 22.896 0.788009 22.8974 0.781189V0.780506C22.9087 0.515839 23.1332 0.305061 23.4083 0.305061H25.2351C25.9071 0.305061 26.5122 0.584052 26.9345 1.0288C26.9366 1.03153 26.9387 1.03358 26.9408 1.03562L26.9443 1.03903C27.2314 1.34463 27.432 1.72935 27.5087 2.15433C27.5115 2.1707 27.515 2.18638 27.5171 2.20275C27.5178 2.20617 27.5178 2.20958 27.5185 2.2123C27.5354 2.32077 27.5438 2.43127 27.5438 2.54382V4.31464C27.5438 4.34602 27.541 4.3774 27.5347 4.40741C27.5256 4.45584 27.5087 4.50155 27.4854 4.54384V4.54384H27.4854Z" fill="#E6E6E6"/>
<path d="M27.5483 2.55851C27.5483 1.3119 26.3964 0.221441 25.1259 0.0283962C23.5178 -0.215956 22.0393 1.15788 22.252 2.56586C22.4384 3.79931 24.6225 5.58831 25.2198 4.48437C25.9034 3.22115 27.5483 3.80512 27.5483 2.55851Z" fill="url(#paint0_linear_67_4740)"/>
<path d="M25.7025 1.56982H24.533C24.5034 1.56982 24.4795 1.59302 24.4795 1.62167C24.4795 1.65032 24.5034 1.67351 24.533 1.67351H25.7025C25.732 1.67351 25.756 1.65032 25.756 1.62167C25.756 1.59302 25.732 1.56982 25.7025 1.56982Z" fill="white"/>
<path d="M25.7024 2.67554H24.5329C24.5033 2.67554 24.4794 2.69873 24.4794 2.7267C24.4794 2.75535 24.5033 2.77922 24.5329 2.77922H25.7024C25.7319 2.77922 25.7559 2.75535 25.7559 2.7267C25.7559 2.69873 25.7319 2.67554 25.7024 2.67554Z" fill="white"/>
<path d="M26.3301 2.12305H23.9052C23.8756 2.12305 23.8517 2.14624 23.8517 2.17489C23.8517 2.20354 23.8756 2.22673 23.9052 2.22673H26.3301C26.3596 2.22673 26.3835 2.20354 26.3835 2.17489C26.3835 2.14624 26.3596 2.12305 26.3301 2.12305Z" fill="white"/>
<path d="M30.7343 12.2224L32.1671 12.8949L31.8849 13.7419L30.3962 12.9786C30.3462 12.9903 30.2937 12.9953 30.2397 12.9922C29.9459 12.9755 29.7217 12.7311 29.739 12.4464C29.7562 12.1616 30.0083 11.9443 30.3021 11.961C30.4894 11.9716 30.6481 12.0751 30.7343 12.2224V12.2224Z" fill="#FFB6B6"/>
<path d="M36.8442 11.3885V11.3878C36.7091 11.1824 36.4902 11.0303 36.2249 10.9819L36.0251 10.9451C35.5325 11.8359 35.0772 12.7459 34.9921 13.8496L32.9035 13.0549L32.8093 13.0194L32.62 12.78L32.3322 12.8134L32.2815 12.7288V12.7282L32.197 12.5897L31.5905 12.6081L31.5848 12.6211L31.5841 12.6218L31.2886 13.3189L31.2879 13.3196L31.2478 13.4151L31.2196 13.4812C31.2196 13.4812 31.202 13.6695 31.245 13.8264V13.8278C31.2661 13.9062 31.3027 13.9765 31.3639 14.0099C31.4146 14.0372 31.5293 13.9615 31.5905 13.9949C31.6186 14.0106 31.5898 14.1334 31.62 14.1497C31.6397 14.1606 31.7819 14.087 31.8023 14.0979C31.9641 14.1859 32.1471 14.2896 32.342 14.4014C32.4412 14.4587 32.5433 14.5174 32.6474 14.5788C33.7325 15.2111 35.0223 16.0065 35.1293 16.0611C35.137 16.0652 35.1448 16.0686 35.1525 16.072C35.3467 16.1654 35.5761 16.1886 35.7978 16.1231C35.8442 16.1095 35.8886 16.0924 35.9301 16.072C36.0068 16.0358 36.0765 15.9888 36.137 15.9335C36.2763 15.8094 36.3713 15.6416 36.4044 15.4526L36.98 12.0269C37.0187 11.7964 36.9645 11.5713 36.8442 11.3885V11.3885Z" fill="#3F3D56"/>
<path d="M26.0342 14.5617C25.968 14.3012 25.7703 14.1081 25.5395 14.0495C25.4473 14.0249 25.3495 14.0222 25.2524 14.0454C25.1483 14.0699 25.0547 14.1211 24.9794 14.1941C24.7873 14.1068 24.5199 14.0938 24.2229 14.0938H23.7303C23.1477 14.0938 22.6748 14.5713 22.6748 15.117C22.5228 15.5972 22.7107 15.9267 23.0562 16.072C23.2441 16.1511 23.4784 16.1757 23.7303 16.1402H24.2229C24.3939 16.1716 24.5572 16.1443 24.7028 16.072C24.9597 15.9451 25.1616 15.6791 25.251 15.3523C25.315 15.3742 25.3819 15.3864 25.4501 15.3864C25.4952 15.3864 25.5409 15.381 25.5859 15.3708C25.752 15.3312 25.8899 15.2241 25.9744 15.0699C26.0574 14.9178 26.0785 14.7377 26.0342 14.5617ZM25.498 14.9376C25.4494 15.027 25.3784 15.0952 25.2925 15.1368C25.2897 15.1641 25.2855 15.1914 25.2812 15.218C25.3129 15.2302 25.2981 15.2296 25.2714 15.2234C25.225 15.2125 25.1426 15.1832 25.201 15.1695C25.2327 15.162 25.2637 15.1511 25.2925 15.1368C25.308 14.999 25.3052 14.8544 25.2784 14.7077C25.2784 14.499 25.2137 14.3612 25.1032 14.2698C25.156 14.2255 25.2172 14.1941 25.2855 14.1777C25.32 14.1695 25.3544 14.1654 25.3882 14.1654C25.4311 14.1654 25.4719 14.1682 25.5099 14.175C25.6739 14.2029 25.7893 14.2964 25.8414 14.5031C25.8773 14.6463 25.5648 14.8155 25.498 14.9376Z" fill="#F2F2F2"/>
<path d="M16.8884 15.8453C16.8884 15.2996 16.4155 14.8221 15.8329 14.8221H15.3403C15.0602 14.8221 14.8062 14.8337 14.6176 14.908C14.6056 14.9128 14.5951 14.9176 14.5838 14.9223C14.5078 14.8494 14.4149 14.7982 14.3108 14.7736C14.1229 14.7293 13.9315 14.7805 13.7823 14.8978C13.6627 14.9912 13.5698 15.127 13.529 15.29C13.4847 15.466 13.5058 15.6461 13.5888 15.7982C13.6317 15.8766 13.688 15.9421 13.7556 15.9933C13.8203 16.0431 13.8956 16.0792 13.9773 16.099C14.0223 16.1093 14.068 16.1147 14.1131 16.1147C14.1813 16.1147 14.2482 16.1024 14.3122 16.0806C14.3706 16.2955 14.4783 16.4838 14.6176 16.6236C14.8111 16.818 15.0659 16.9189 15.3403 16.8685H15.8329C16.5492 16.9687 17.1227 16.5861 16.8884 15.8453L16.8884 15.8453ZM14.2848 15.436C14.258 15.5826 14.2552 15.7273 14.2707 15.8651C14.2995 15.8794 14.3305 15.8903 14.3622 15.8978C14.4544 15.9196 14.1961 15.979 14.282 15.9462C14.2777 15.9196 14.2735 15.8923 14.2707 15.8651C14.2116 15.8364 14.1602 15.7955 14.118 15.7436C14.0983 15.7198 14.0807 15.6938 14.0652 15.6659C13.9984 15.5438 13.6859 15.3746 13.7218 15.2313C13.7577 15.0901 13.8232 15.0015 13.9132 14.951C13.9132 14.9503 13.9139 14.9503 13.9139 14.9503C13.9857 14.9101 14.073 14.8937 14.1743 14.8937C14.2088 14.8937 14.2432 14.8978 14.2777 14.906C14.346 14.9223 14.4072 14.9537 14.46 14.9981C14.3495 15.0895 14.2848 15.2273 14.2848 15.436H14.2848Z" fill="#F2F2F2"/>
<path d="M1.4766 22.0981H17.7383C17.8782 22.0981 17.9915 22.4094 17.9915 22.7934L15.8805 24.336C15.8805 24.72 15.7671 25.0313 15.6273 25.0313H1.4766C1.33675 25.0313 1.22339 24.72 1.22339 24.336V22.7934C1.22339 22.4094 1.33675 22.0981 1.4766 22.0981Z" fill="#F2F2F2"/>
<path d="M8.19883 15.1945L8.48534 17.042L7.41945 17.3479L7.18822 15.3842C7.14196 15.3438 7.1009 15.2963 7.06714 15.2418C6.88349 14.9459 6.9821 14.5617 7.28739 14.3836C7.59268 14.2056 7.98905 14.3012 8.1727 14.5972C8.28982 14.7859 8.2917 15.0103 8.19883 15.1945H8.19883Z" fill="#FFB6B6"/>
<path d="M8.78961 17.813C8.86561 18.6473 8.35403 18.2823 7.95152 19.0968C7.79883 19.4058 7.34565 19.3601 7.17747 19.6425C6.92133 20.0722 7.15707 22.002 6.70249 22.2394C6.2458 22.4781 6.03117 21.7878 5.67018 21.4324C5.31693 21.0845 4.90317 21.221 4.60129 20.8328C4.2973 20.4433 3.9532 20.0961 3.6492 19.7087C3.64287 19.7012 3.63724 19.693 3.63161 19.6855C3.49228 18.6227 3.03841 17.371 3.2284 16.8062C3.47962 16.7175 3.75053 16.6582 3.96234 16.6602C4.35218 16.665 4.18752 16.871 4.52248 17.0333C4.80395 17.1698 5.15157 17.8833 5.42319 18.0422C5.6167 18.1548 6.0945 19.049 6.34431 18.972C6.75315 18.8458 7.15566 17.0211 7.05996 16.6868C6.97903 16.4078 6.57512 16.0586 6.56386 15.7775C6.56316 15.7673 6.56316 15.7564 6.56386 15.7462C6.96989 15.8874 7.72424 15.5272 8.14011 15.6575C8.43707 15.7509 8.7875 16.1022 8.80791 16.4017C8.82902 16.7086 8.76146 17.5054 8.78961 17.813Z" fill="url(#paint1_linear_67_4740)"/>
<path d="M13.5756 14.6682C13.5018 14.5857 13.3913 14.5475 13.2801 14.5666L10.0157 15.1321C9.72086 15.1839 9.41335 15.1334 9.15229 14.9909L8.66815 14.7269L7.76181 14.2323L7.58589 14.1368L6.84842 13.7344L6.61691 13.6082C6.52825 13.5598 6.4234 13.555 6.33051 13.5959C6.23763 13.6362 6.17218 13.7153 6.15108 13.8115L5.92238 14.8476L5.90549 14.922L5.77672 15.5066L5.45443 16.9629L5.40376 17.1942L5.38124 17.2944L5.21658 18.0414L5.18562 18.1792L4.74863 20.158L4.71063 20.3293C4.68952 20.4254 4.71486 20.5223 4.781 20.5946C4.78804 20.6035 4.79648 20.6117 4.80563 20.6198C4.88937 20.6949 5.00407 20.7201 5.11244 20.6881L5.20392 20.6608L5.89282 20.4582L7.47119 19.9943L7.80895 19.8947L8.22413 19.7726C8.26776 19.7597 8.31209 19.7535 8.35642 19.7535C8.47253 19.7535 8.58652 19.7958 8.67237 19.8756L10.7131 21.757L10.8031 21.8402C10.8819 21.9132 10.9924 21.9411 11.098 21.9152C11.1887 21.8934 11.2626 21.8361 11.3034 21.757C11.3112 21.7433 11.3175 21.729 11.3224 21.714L11.8931 20.0496L11.9909 19.7644L12.309 18.8367L12.3343 18.7631C13.7301 19.6272 13.5038 16.8989 13.6369 14.9663C13.6727 14.8626 13.6495 14.7508 13.5756 14.6682L13.5756 14.6682Z" fill="#F2F2F2"/>
<path d="M13.1533 15.0093C13.0794 14.9268 12.9689 14.8886 12.8577 14.9077L9.59334 15.4731C9.2985 15.525 8.99099 15.4745 8.72992 15.3319L8.24579 15.068L7.33944 14.5734L7.16352 14.4779L6.42606 14.0755L6.19455 13.9493C6.10589 13.9008 6.00104 13.896 5.90815 13.937C5.81526 13.9772 5.74982 14.0564 5.72871 14.1525L5.50001 15.1887L5.48313 15.263L5.35435 15.8476L5.03206 17.304L4.9814 17.5352L4.95888 17.6355L4.79422 18.3824L4.76326 18.5202L4.32627 20.4991L4.28827 20.6703C4.26716 20.7665 4.2925 20.8634 4.35864 20.9357C4.36568 20.9445 4.37412 20.9527 4.38327 20.9609C4.46701 21.0359 4.58171 21.0612 4.69007 21.0291L4.78155 21.0018L5.47046 20.7992L7.04882 20.3354L7.38659 20.2358L7.80176 20.1137C7.84539 20.1007 7.88972 20.0946 7.93406 20.0946C8.05016 20.0946 8.16416 20.1369 8.25001 20.2167L10.2907 22.098L10.3808 22.1812C10.4596 22.2542 10.5701 22.2822 10.6756 22.2563C10.7664 22.2345 10.8403 22.1772 10.8811 22.098C10.8888 22.0844 10.8952 22.0701 10.9001 22.0551L11.4708 20.3906L11.5686 20.1055L11.8866 19.1778L11.912 19.1041C13.3077 19.9683 13.0815 17.24 13.2145 15.3074C13.2504 15.2037 13.2272 15.0918 13.1533 15.0093L13.1533 15.0093Z" fill="#E6E6E6"/>
<path d="M3.94019 20.987L4.00702 23.7297L8.01714 23.6227L7.20676 20.587L3.94019 20.987Z" fill="#FFB6B6"/>
<path d="M8.69195 30.4202C8.7405 30.1978 8.58428 30.3779 8.47873 30.2838L8.47029 30.2756C8.35559 30.1521 8.21133 30.0969 8.21344 29.9434C8.21555 29.7899 7.93971 29.927 7.7849 29.7769C7.75182 29.7449 7.65753 29.6828 7.52876 29.605C7.12836 29.3636 6.39864 28.9693 6.1798 28.8513C6.13898 28.8295 6.11576 28.8172 6.11576 28.8172C6.11576 28.8172 6.11506 28.8288 6.11295 28.8513C6.10099 28.9939 6.05173 29.5716 5.99192 30.2838C5.98839 30.3288 5.98488 30.3745 5.98066 30.4202H3.38829C3.3911 30.3738 3.39251 30.3281 3.39321 30.2838C3.39744 30.0709 3.37914 29.8724 3.32847 29.7067C3.237 29.4086 3.15537 29.1248 3.09133 28.8513C2.857 27.8547 2.85982 26.9911 3.51143 26.0505C3.63176 25.8772 3.65498 25.3253 3.65498 25.3253C3.65498 25.3253 3.87664 25.5382 3.93364 25.5914C3.91957 25.5771 3.89142 25.5498 3.84498 25.5047C3.5818 25.2496 3.59024 25.1725 3.72535 25.0313C3.74928 25.0068 3.77672 24.9802 3.80768 24.9502C4.01386 24.7503 3.80768 24.9502 3.70424 24.8328C3.6015 24.7148 3.85905 24.3997 3.85905 24.3997L3.76124 23.9249L3.70424 23.6493L4.00331 23.5989L4.8041 23.4631L7.81868 22.9529L7.87567 23.0941L8.38655 24.354C8.51251 24.4242 8.6441 24.7005 8.76232 25.0313C8.98327 25.6487 9.15638 26.4543 9.15638 26.4543L12.4876 30.2838L12.52 30.3213C12.5481 30.3533 12.5742 30.3868 12.5988 30.4202H8.69195H8.69195Z" fill="#2F2E41"/>
<path d="M4.29238 29.1924H3.7998V30.4202H4.29238V29.1924Z" fill="#E6E6E6"/>
<path d="M1.30161 28.8513H6.79034C7.19841 28.8513 7.52921 29.172 7.52921 29.5676C7.52921 29.9631 7.19841 30.2838 6.79034 30.2838H1.30161C0.893546 30.2838 0.562744 29.9631 0.562744 29.5676C0.562744 29.172 0.893546 28.8513 1.30161 28.8513Z" fill="#F2F2F2"/>
<path d="M0.879382 30.2838H0.87938C0.549042 30.2838 0.28125 30.0242 0.28125 29.704V22.8144C0.28125 22.4942 0.549042 22.2346 0.87938 22.2346H0.879382C1.20972 22.2346 1.47751 22.4942 1.47751 22.8144C3.29417 24.1621 2.5558 26.8443 1.47751 29.704C1.47751 30.0242 1.20972 30.2838 0.879382 30.2838V30.2838Z" fill="#F2F2F2"/>
<path d="M8.0925 22.7121C7.97653 23.5365 7.16435 22.8103 6.34737 22.6732C5.58739 22.5463 4.68386 23.8314 3.8704 23.9399C3.34476 24.0102 3.75922 23.5872 3.94077 21.7571C3.964 21.5217 3.66774 19.9617 3.63186 19.6854C3.49253 18.6227 3.03865 17.371 3.22865 16.8062C3.26102 16.7079 3.31309 16.6308 3.38979 16.579C3.75078 16.3341 3.91192 16.137 4.15469 15.785C4.36017 15.4862 4.50935 15.2557 4.89216 15.2318C5.25314 15.2093 5.66198 15.2857 6.0103 15.3593C6.391 15.4405 5.95894 15.4119 6.05182 15.6179C6.09686 15.7188 6.17426 16.0913 6.26293 16.2318C6.53206 16.1569 6.82157 16.2408 7.00426 16.4465C7.21681 16.6858 7.40828 16.9055 7.54012 17.2468C7.73855 17.7571 7.23823 18.665 7.45919 19.165C7.65833 19.6165 7.17138 20.579 7.38882 20.9385C7.66466 21.3962 8.30361 21.2114 8.09251 22.7121V22.7121H8.0925Z" fill="url(#paint2_linear_67_4740)"/>
<path d="M9.72165 16.0231L9.70386 16.1584L12.0813 16.4522L12.0991 16.3169L9.72165 16.0231Z" fill="white"/>
<path d="M9.59201 16.6936L9.57422 16.8289L11.9516 17.1226L11.9694 16.9873L9.59201 16.6936Z" fill="white"/>
<path d="M9.5217 17.2393L9.50391 17.3746L11.8813 17.6684L11.8991 17.5331L9.5217 17.2393Z" fill="white"/>
<path d="M6.06223 15.2979C6.87123 15.2979 7.52705 14.6622 7.52705 13.878C7.52705 13.0937 6.87123 12.458 6.06223 12.458C5.25323 12.458 4.59741 13.0937 4.59741 13.878C4.59741 14.6622 5.25323 15.2979 6.06223 15.2979Z" fill="#FFB6B6"/>
<path d="M13.0912 15.3011L11.5027 16.0002L11.788 16.9355L13.4404 16.1385C13.4948 16.1526 13.5522 16.1595 13.6115 16.1575C13.9338 16.1469 14.1863 15.8851 14.1753 15.5727C14.1644 15.2602 13.8943 15.0155 13.572 15.0261C13.3665 15.0328 13.1897 15.142 13.0912 15.3011L13.0912 15.3011Z" fill="#FFB6B6"/>
<path d="M11.7279 15.8176L11.1156 16.1113L10.0215 16.3194L8.53818 16.9097L8.31321 16.9989L7.27512 16.8078L6.55633 16.6746L6.31944 16.631L5.4572 16.4717L5.28574 16.4613C5.23881 16.4483 5.18814 16.4359 5.13254 16.4249C4.96693 16.391 4.76856 16.3654 4.56525 16.3555C4.50403 16.3525 4.44199 16.3509 4.38044 16.3514C3.85439 16.3527 3.34981 16.4731 3.33742 16.8369C3.32775 17.1344 3.38893 17.4187 3.50673 17.675C3.52467 17.714 3.54344 17.7516 3.56377 17.7891C3.81307 18.249 4.25074 18.6022 4.78316 18.7458C4.89926 18.7769 5.01951 18.7977 5.1433 18.8083L5.16898 18.8059L5.26522 18.7977L5.42321 18.7841L5.71313 18.7587L7.98934 18.5606L8.26141 18.537L8.5137 18.5148L8.51947 18.5122C8.84158 18.3782 9.73082 18.0085 10.6284 17.6258C11.4511 17.2747 11.7982 17.2314 12.043 17.1385C12.0916 17.1201 12.136 17.1002 12.1796 17.0752C12.2186 17.0521 12.9328 16.5798 12.9367 16.5703C12.9496 16.541 12.9353 16.4791 12.9029 16.3976C12.811 16.1627 12.5751 15.7724 12.456 15.5808L12.4017 15.4946L11.7279 15.8176H11.7279L11.7279 15.8176Z" fill="url(#paint3_linear_67_4740)"/>
<path d="M1.59666 10.4335C0.714848 10.4335 0 11.1264 0 11.9812V28.8722C0 29.1983 0.104848 29.5018 0.283586 29.7515C0.446838 29.9807 0.672721 30.1649 0.936603 30.2808H0.938716C1.13997 30.3702 1.36163 30.42 1.59666 30.42H13.6247V29.4868H1.66703C1.44326 30.2836 1.29478 30.2604 1.15615 30.2174C0.990083 30.1669 0.83668 30.0878 0.702979 29.9855C0.70157 29.9855 0.70157 29.9848 0.70157 29.9841C0.522836 29.8504 0.379286 29.6778 0.281473 29.478C0.1914 29.2945 0.140737 29.0891 0.140737 28.8722V17.7097C0.140737 13.7665 3.4383 10.5699 7.50604 10.5699H21.3652V10.4335H1.59666V10.4335Z" fill="#3F3D56"/>
<path d="M7.7328 13.117C7.7321 13.263 7.7314 13.5502 7.60121 13.6225L7.56744 13.6068C7.54492 13.5932 7.51677 13.572 7.48651 13.5481C7.39363 13.4745 7.27541 13.3728 7.19449 13.3592C7.19026 13.2364 7.19378 13.1136 7.20645 12.9915C7.20997 12.9622 7.21348 12.9329 7.2177 12.9035C7.20574 12.9233 7.19449 12.9431 7.18322 12.9636C7.11637 13.085 7.06149 13.2132 7.02138 13.3449C6.88768 13.3462 6.70894 13.3285 6.63647 13.437C6.53161 13.5945 6.6815 13.9301 6.42606 14.0754C6.37188 14.1061 6.2994 14.1286 6.20299 14.1389C6.30433 14.1546 6.4331 14.2023 6.49784 14.3278C6.63154 14.587 6.74554 14.8872 6.68502 15.1634C6.67587 15.2044 6.6632 15.2446 6.64631 15.2842C6.54358 15.5243 6.30573 15.6785 6.13122 15.8763C6.1277 15.8797 6.12489 15.8831 6.12207 15.8865C5.98767 16.042 5.94263 16.1696 5.9567 16.2903C5.98204 16.512 6.20511 16.7098 6.43521 17.0073C6.52036 17.1178 6.26633 17.6914 6.3388 17.8101C6.41269 17.9288 6.4521 18.0789 6.39369 18.2058C6.33106 18.3408 6.19033 18.4009 6.03411 18.424C5.58797 18.1273 5.20447 17.7494 5.03206 17.304C4.88288 16.9193 4.89063 16.4854 5.15099 16.0093C4.90118 16.4281 4.80689 16.9315 4.88851 17.409C4.89063 17.4261 4.89344 17.4425 4.89696 17.4588C4.90962 17.5229 4.93073 17.5809 4.95888 17.6355C5.08484 17.879 5.34661 18.04 5.53942 18.2644C5.4585 18.3436 5.3262 18.4643 5.19743 18.5755C5.08766 18.671 4.97929 18.7583 4.90822 18.8067C4.86036 18.7637 4.81041 18.658 4.76325 18.5202C4.74426 18.465 4.72526 18.4043 4.70767 18.3408C4.59719 17.9568 4.50712 17.4616 4.48389 17.3094C4.41986 17.4261 4.40157 17.7556 4.41071 18.0946C4.41212 18.1444 4.41423 18.1942 4.41634 18.2433C4.43675 18.6703 3.89139 18.8804 3.60429 18.5564C3.54518 18.4888 3.48466 18.4131 3.42274 18.3279C3.415 18.0018 3.46285 17.6744 3.5684 17.3654C3.57122 17.3565 3.57262 17.3524 3.57262 17.351C3.55855 17.3708 3.41078 17.7269 3.29467 18.0011C3.23486 18.1416 3.18349 18.2603 3.16168 18.3019C3.18349 18.1757 3.225 18.0202 3.26863 17.8681C3.36785 17.5264 3.47974 17.2051 3.41007 17.2937C3.339 17.3845 3.27497 17.4813 3.22008 17.5823C3.1103 17.7808 3.03361 17.997 2.9949 18.2194C2.99138 18.2392 2.98786 18.259 2.98576 18.2794C2.92172 18.2637 2.85979 18.2419 2.80069 18.2133C2.61421 18.1198 2.51358 17.924 2.50303 17.7201C2.48614 17.4008 2.6318 17.1116 2.93157 17.1566C3.04557 17.1737 3.09342 17.1082 3.09975 17.0011C3.11523 16.7794 2.9569 16.3783 2.86472 16.1628C2.82531 16.0707 2.7845 15.9752 2.74932 15.879C2.94424 15.6382 3.04768 15.3272 3.02516 15.0216C2.95831 15.2494 2.83939 15.4622 2.67965 15.6416C2.64517 15.4806 2.64236 15.3197 2.70358 15.1662C2.90835 14.6559 3.34534 14.8722 3.65426 14.4138C4.01525 13.8783 3.90899 13.5986 4.11869 12.9915C4.20876 12.7296 4.42197 12.5099 4.68656 12.4063C4.95114 12.3033 5.32832 11.6477 6.32825 12.3674C6.34444 12.3531 6.36062 12.3394 6.37751 12.3271C6.66109 12.1198 7.01012 12.2521 7.38378 12.2992C7.77925 12.349 7.64836 12.276 7.86158 12.6027C7.9418 12.7262 7.73421 12.9711 7.7328 13.117V13.117L7.7328 13.117Z" fill="#2F2E41"/>
<path d="M16.3001 8.35774C16.3001 8.35728 16.2999 8.35706 16.2994 8.35706C16.2213 8.27384 16.1171 8.21381 15.9996 8.18857H15.9989C15.9581 8.1797 15.9166 8.17493 15.873 8.17493H12.2497C11.9295 8.17493 11.6685 8.428 11.6685 8.73837V12.2507C11.6685 12.561 11.9295 12.8134 12.2497 12.8134H15.873C16.1931 12.8134 16.4535 12.561 16.4535 12.2507V8.73837C16.4535 8.59171 16.3958 8.45801 16.3001 8.35774ZM16.3852 12.2507C16.3852 12.5249 16.1558 12.7473 15.873 12.7473H12.2497C11.9668 12.7473 11.7374 12.5249 11.7374 12.2507V10.4799C11.7374 10.4642 11.7374 10.4492 11.7381 10.4335C11.7402 10.3339 11.7487 10.2357 11.7642 10.1388C11.7663 10.1224 11.7698 10.1067 11.7726 10.0904C11.8493 9.66539 12.0499 9.28067 12.337 8.97507L12.3405 8.97166C12.7627 8.52281 13.3707 8.2411 14.0462 8.2411H15.873C16.1558 8.2411 16.3852 8.46415 16.3852 8.73837V12.2507Z" fill="#E6E6E6"/>
<path d="M11.7328 10.4945C11.7328 9.24789 12.8847 8.15743 14.1552 7.96439C15.7633 7.72004 17.2418 8.54817 17.0291 9.95615C16.8427 11.1896 14.6587 13.5243 14.0613 12.4204C13.3777 11.1571 11.7328 11.7411 11.7328 10.4945H11.7328H11.7328Z" fill="url(#paint4_linear_67_4740)"/>
<path d="M14.7486 9.50586H13.5791C13.5496 9.50586 13.5256 9.52905 13.5256 9.5577C13.5256 9.58635 13.5496 9.60955 13.5791 9.60955H14.7486C14.7782 9.60955 14.8021 9.58635 14.8021 9.5577C14.8021 9.52905 14.7782 9.50586 14.7486 9.50586Z" fill="white"/>
<path d="M14.7486 10.6116H13.5791C13.5496 10.6116 13.5256 10.6348 13.5256 10.6627C13.5256 10.6914 13.5496 10.7153 13.5791 10.7153H14.7486C14.7782 10.7153 14.8021 10.6914 14.8021 10.6627C14.8021 10.6348 14.7782 10.6116 14.7486 10.6116Z" fill="white"/>
<path d="M15.3761 10.0591H12.9512C12.9216 10.0591 12.8977 10.0823 12.8977 10.1109C12.8977 10.1396 12.9216 10.1628 12.9512 10.1628H15.3761C15.4056 10.1628 15.4296 10.1396 15.4296 10.1109C15.4296 10.0823 15.4056 10.0591 15.3761 10.0591Z" fill="white"/>
<path d="M3.58019 2.94092C3.50257 2.94092 3.43945 3.0021 3.43945 3.07734V5.19196C3.43945 5.2672 3.50257 5.32839 3.58019 5.32839C3.65781 5.32839 3.72093 5.2672 3.72093 5.19196V3.07734C3.72093 3.0021 3.65781 2.94092 3.58019 2.94092Z" fill="#3F3D56"/>
<path d="M4.95929 4.97846C5.44366 4.97846 5.83631 4.60585 5.83631 4.14622C5.83631 3.68658 5.44366 3.31396 4.95929 3.31396C4.47493 3.31396 4.08228 3.68658 4.08228 4.14622C4.08228 4.60585 4.47493 4.97846 4.95929 4.97846Z" fill="url(#paint5_linear_67_4740)"/>
<path d="M11.99 3.86155H7.2693C7.10735 3.86155 6.97559 3.73382 6.97559 3.57683C6.97559 3.41984 7.10735 3.29211 7.2693 3.29211H11.99C12.1519 3.29211 12.2837 3.41984 12.2837 3.57683C12.2837 3.73382 12.1519 3.86155 11.99 3.86155Z" fill="#F2F2F2"/>
<path d="M15.674 4.82517H7.2693C7.10735 4.82517 6.97559 4.69744 6.97559 4.54045C6.97559 4.38347 7.10735 4.25574 7.2693 4.25574H15.674C15.8359 4.25574 15.9677 4.38347 15.9677 4.54045C15.9677 4.69744 15.8359 4.82517 15.674 4.82517Z" fill="#F2F2F2"/>
<path d="M15.2418 28.6125C15.1642 28.6125 15.1011 28.6737 15.1011 28.749V30.8636C15.1011 30.9388 15.1642 31 15.2418 31C15.3194 31 15.3825 30.9388 15.3825 30.8636V28.749C15.3825 28.6737 15.3194 28.6125 15.2418 28.6125Z" fill="#3F3D56"/>
<path d="M16.6212 30.6501C17.1055 30.6501 17.4982 30.2775 17.4982 29.8178C17.4982 29.3582 17.1055 28.9856 16.6212 28.9856C16.1368 28.9856 15.7441 29.3582 15.7441 29.8178C15.7441 30.2775 16.1368 30.6501 16.6212 30.6501Z" fill="url(#paint6_linear_67_4740)"/>
<path d="M23.6518 29.5332H18.9312C18.7692 29.5332 18.6375 29.4054 18.6375 29.2485C18.6375 29.0915 18.7692 28.9637 18.9312 28.9637H23.6518C23.8138 28.9637 23.9455 29.0915 23.9455 29.2485C23.9455 29.4054 23.8138 29.5332 23.6518 29.5332Z" fill="#F2F2F2"/>
<path d="M27.3358 30.4968H18.9312C18.7692 30.4968 18.6375 30.3691 18.6375 30.2121C18.6375 30.0551 18.7692 29.9274 18.9312 29.9274H27.3358C27.4978 29.9274 27.6295 30.0551 27.6295 30.2121C27.6295 30.3691 27.4978 30.4968 27.3358 30.4968Z" fill="#F2F2F2"/>
<path d="M7.10638 11.7361C7.2707 11.7361 7.40392 11.6041 7.40392 11.4412C7.40392 11.2784 7.2707 11.1464 7.10638 11.1464C6.94205 11.1464 6.80884 11.2784 6.80884 11.4412C6.80884 11.6041 6.94205 11.7361 7.10638 11.7361Z" fill="#3F3D56"/>
<path d="M8.13421 11.7361C8.29853 11.7361 8.43175 11.6041 8.43175 11.4412C8.43175 11.2784 8.29853 11.1464 8.13421 11.1464C7.96988 11.1464 7.83667 11.2784 7.83667 11.4412C7.83667 11.6041 7.96988 11.7361 8.13421 11.7361Z" fill="#3F3D56"/>
<path d="M9.16204 11.7361C9.32637 11.7361 9.45958 11.6041 9.45958 11.4412C9.45958 11.2784 9.32637 11.1464 9.16204 11.1464C8.99771 11.1464 8.8645 11.2784 8.8645 11.4412C8.8645 11.6041 8.99771 11.7361 9.16204 11.7361Z" fill="#3F3D56"/>
<path d="M27.7519 5.91808C27.9162 5.91808 28.0494 5.78607 28.0494 5.62322C28.0494 5.46038 27.9162 5.32837 27.7519 5.32837C27.5876 5.32837 27.4543 5.46038 27.4543 5.62322C27.4543 5.78607 27.5876 5.91808 27.7519 5.91808Z" fill="#3F3D56"/>
<path d="M28.78 5.91808C28.9443 5.91808 29.0775 5.78607 29.0775 5.62322C29.0775 5.46038 28.9443 5.32837 28.78 5.32837C28.6156 5.32837 28.4824 5.46038 28.4824 5.62322C28.4824 5.78607 28.6156 5.91808 28.78 5.91808Z" fill="#3F3D56"/>
<path d="M29.808 5.91808C29.9724 5.91808 30.1056 5.78607 30.1056 5.62322C30.1056 5.46038 29.9724 5.32837 29.808 5.32837C29.6437 5.32837 29.5105 5.46038 29.5105 5.62322C29.5105 5.78607 29.6437 5.91808 29.808 5.91808Z" fill="#3F3D56"/>
<path d="M18.7496 17.5685C18.7378 17.6074 18.7804 17.6402 18.8168 17.6203C19.0713 17.4809 19.3825 17.3449 19.6599 17.2715C19.7043 17.2598 19.7058 17.1995 19.6621 17.1853L19.2944 17.0655L20.6986 15.3516L20.603 15.278L19.1988 16.9919L18.9952 16.6718C18.971 16.6338 18.9108 16.6488 18.909 16.6934C18.8981 16.972 18.8319 17.2966 18.7496 17.5685Z" fill="#3F3D56"/>
<path d="M20.7438 20.9418C20.7821 20.9581 20.8211 20.9214 20.8054 20.8837C20.6953 20.6212 20.596 20.3047 20.5564 20.0286C20.5501 19.9844 20.4886 19.9753 20.4684 20.0154L20.2989 20.3536L18.725 18.7843L18.6375 18.8668L20.2114 20.4361L19.8578 20.5909C19.8158 20.6093 19.8235 20.6692 19.8689 20.6765C20.1525 20.7227 20.4761 20.8278 20.7438 20.9418V20.9418Z" fill="#3F3D56"/>
<defs>
<linearGradient id="paint0_linear_67_4740" x1="22.2316" y1="0.116376" x2="27.7753" y2="0.400517" gradientUnits="userSpaceOnUse">
<stop stop-color="#BFC3FC"/>
<stop offset="1" stop-color="#A2C3FC"/>
</linearGradient>
<linearGradient id="paint1_linear_67_4740" x1="3.18262" y1="15.789" x2="9.05874" y2="16.0203" gradientUnits="userSpaceOnUse">
<stop stop-color="#BFC3FC"/>
<stop offset="1" stop-color="#A2C3FC"/>
</linearGradient>
<linearGradient id="paint2_linear_67_4740" x1="3.18286" y1="15.4379" x2="8.3559" y2="15.5747" gradientUnits="userSpaceOnUse">
<stop stop-color="#BFC3FC"/>
<stop offset="1" stop-color="#A2C3FC"/>
</linearGradient>
<linearGradient id="paint3_linear_67_4740" x1="3.33643" y1="15.5745" x2="13.1982" y2="16.9054" gradientUnits="userSpaceOnUse">
<stop stop-color="#BFC3FC"/>
<stop offset="1" stop-color="#A2C3FC"/>
</linearGradient>
<linearGradient id="paint4_linear_67_4740" x1="11.7328" y1="8.03722" x2="17.2763" y2="8.32389" gradientUnits="userSpaceOnUse">
<stop stop-color="#BFC3FC"/>
<stop offset="1" stop-color="#A2C3FC"/>
</linearGradient>
<linearGradient id="paint5_linear_67_4740" x1="4.08228" y1="3.35407" x2="5.91161" y2="3.44383" gradientUnits="userSpaceOnUse">
<stop stop-color="#BFC3FC"/>
<stop offset="1" stop-color="#A2C3FC"/>
</linearGradient>
<linearGradient id="paint6_linear_67_4740" x1="15.7441" y1="29.0257" x2="17.5735" y2="29.1155" gradientUnits="userSpaceOnUse">
<stop stop-color="#BFC3FC"/>
<stop offset="1" stop-color="#A2C3FC"/>
</linearGradient>
</defs>
</svg>
